# Created by FreeCAD <https://www.freecad.org>
v 4.910000 0.078785 0.013892
v 4.910000 0.080000 -0.000000
v 2.560000 0.080000 -0.000000
v 2.560000 0.078785 0.013892
v 4.910000 0.075175 0.027362
v 2.560000 0.075175 0.027362
v 4.910000 0.069282 0.040000
v 2.560000 0.069282 0.040000
v 2.560000 0.061284 0.051423
v 4.910000 0.061284 0.051423
v 4.910000 0.051423 0.061284
v 2.560000 0.051423 0.061284
v 4.910000 0.040000 0.069282
v 2.560000 0.040000 0.069282
v 2.560000 0.027362 0.075175
v 4.910000 0.027362 0.075175
v 4.910000 0.013892 0.078785
v 2.560000 0.013892 0.078785
v 4.910000 0.000000 0.080000
v 2.560000 0.000000 0.080000
v 2.560000 -0.013892 0.078785
v 4.910000 -0.013892 0.078785
v 4.910000 -0.027362 0.075175
v 2.560000 -0.027362 0.075175
v 4.910000 -0.040000 0.069282
v 2.560000 -0.040000 0.069282
v 4.910000 -0.051423 0.061284
v 2.560000 -0.051423 0.061284
v 2.560000 -0.061284 0.051423
v 4.910000 -0.061284 0.051423
v 4.910000 -0.069282 0.040000
v 2.560000 -0.069282 0.040000
v 2.560000 -0.075175 0.027362
v 4.910000 -0.075175 0.027362
v 4.910000 -0.078785 0.013892
v 2.560000 -0.078785 0.013892
v 2.560000 -0.080000 0.000000
v 4.910000 -0.080000 0.000000
v 4.910000 -0.078785 -0.013892
v 2.560000 -0.078785 -0.013892
v 2.560000 -0.075175 -0.027362
v 4.910000 -0.075175 -0.027362
v 2.560000 -0.069282 -0.040000
v 4.910000 -0.069282 -0.040000
v 4.910000 -0.061284 -0.051423
v 2.560000 -0.061284 -0.051423
v 4.910000 -0.051423 -0.061284
v 2.560000 -0.051423 -0.061284
v 2.560000 -0.040000 -0.069282
v 4.910000 -0.040000 -0.069282
v 4.910000 -0.027362 -0.075175
v 2.560000 -0.027362 -0.075175
v 4.910000 -0.013892 -0.078785
v 2.560000 -0.013892 -0.078785
v 4.910000 -0.000000 -0.080000
v 2.560000 -0.000000 -0.080000
v 4.910000 0.013892 -0.078785
v 2.560000 0.013892 -0.078785
v 2.560000 0.027362 -0.075175
v 4.910000 0.027362 -0.075175
v 4.910000 0.040000 -0.069282
v 2.560000 0.040000 -0.069282
v 2.560000 0.051423 -0.061284
v 4.910000 0.051423 -0.061284
v 4.910000 0.061284 -0.051423
v 2.560000 0.061284 -0.051423
v 4.910000 0.069282 -0.040000
v 2.560000 0.069282 -0.040000
v 4.910000 0.075175 -0.027362
v 2.560000 0.075175 -0.027362
v 4.910000 0.078785 -0.013892
v 2.560000 0.078785 -0.013892
vn 0.000000 0.996195 0.087155
vn 0.000000 0.996195 0.087155
vn 0.000000 0.965926 0.258819
vn 0.000000 0.965926 0.258819
vn 0.000000 0.906308 0.422618
vn 0.000000 0.819152 0.573576
vn 0.000000 0.906308 0.422618
vn 0.000000 0.819152 0.573576
vn 0.000000 0.707107 0.707107
vn 0.000000 0.707107 0.707107
vn 0.000000 0.573576 0.819152
vn 0.000000 0.573576 0.819152
vn 0.000000 0.422618 0.906308
vn 0.000000 0.422618 0.906308
vn 0.000000 0.258819 0.965926
vn 0.000000 0.258819 0.965926
vn 0.000000 0.087155 0.996195
vn 0.000000 0.087155 0.996195
vn 0.000000 -0.087155 0.996195
vn 0.000000 -0.087155 0.996195
vn 0.000000 -0.258819 0.965926
vn 0.000000 -0.258819 0.965926
vn 0.000000 -0.422618 0.906308
vn 0.000000 -0.422618 0.906308
vn 0.000000 -0.573576 0.819152
vn 0.000000 -0.573576 0.819152
vn 0.000000 -0.707107 0.707107
vn 0.000000 -0.707107 0.707107
vn 0.000000 -0.819152 0.573576
vn 0.000000 -0.819152 0.573576
vn 0.000000 -0.906308 0.422618
vn 0.000000 -0.906308 0.422618
vn 0.000000 -0.965926 0.258819
vn 0.000000 -0.965926 0.258819
vn 0.000000 -0.996195 0.087155
vn 0.000000 -0.996195 0.087155
vn 0.000000 -0.996195 -0.087155
vn -0.000000 -0.996195 -0.087155
vn -0.000000 -0.965926 -0.258819
vn -0.000000 -0.906308 -0.422618
vn -0.000000 -0.965926 -0.258819
vn -0.000000 -0.906308 -0.422618
vn -0.000000 -0.819152 -0.573576
vn 0.000000 -0.819152 -0.573576
vn -0.000000 -0.707107 -0.707107
vn -0.000000 -0.573576 -0.819152
vn 0.000000 -0.707107 -0.707107
vn -0.000000 -0.573576 -0.819152
vn -0.000000 -0.422618 -0.906308
vn 0.000000 -0.422618 -0.906308
vn -0.000000 -0.258819 -0.965926
vn 0.000000 -0.258819 -0.965926
vn -0.000000 -0.087155 -0.996195
vn 0.000000 -0.087155 -0.996195
vn 0.000000 0.087155 -0.996195
vn 0.000000 0.258819 -0.965926
vn 0.000000 0.087155 -0.996195
vn 0.000000 0.258819 -0.965926
vn 0.000000 0.422618 -0.906308
vn 0.000000 0.573576 -0.819152
vn 0.000000 0.422618 -0.906308
vn 0.000000 0.573576 -0.819152
vn 0.000000 0.707107 -0.707107
vn 0.000000 0.707107 -0.707107
vn 0.000000 0.819152 -0.573576
vn 0.000000 0.819152 -0.573576
vn 0.000000 0.906308 -0.422618
vn 0.000000 0.906308 -0.422618
vn 0.000000 0.965926 -0.258819
vn 0.000000 0.965926 -0.258819
vn 0.000000 0.996195 -0.087155
vn 0.000000 0.996195 -0.087155
vn 1.000000 0.000000 0.000000
vn 1.000000 0.000000 0.000000
vn 1.000000 0.000000 0.000000
vn 1.000000 0.000000 0.000000
vn 1.000000 0.000000 0.000000
vn 1.000000 0.000000 0.000000
vn 1.000000 0.000000 0.000000
vn 1.000000 0.000000 0.000000
vn 1.000000 0.000000 0.000000
vn 1.000000 0.000000 0.000000
vn 1.000000 0.000000 0.000000
vn 1.000000 0.000000 0.000000
vn 1.000000 0.000000 0.000000
vn 1.000000 0.000000 0.000000
vn 1.000000 0.000000 0.000000
vn 1.000000 0.000000 0.000000
vn 1.000000 0.000000 0.000000
vn 1.000000 0.000000 0.000000
vn 1.000000 0.000000 0.000000
vn 1.000000 0.000000 0.000000
vn 1.000000 0.000000 0.000000
vn 1.000000 0.000000 0.000000
vn 1.000000 0.000000 0.000000
vn 1.000000 0.000000 0.000000
vn 1.000000 0.000000 0.000000
vn 1.000000 0.000000 0.000000
vn 1.000000 0.000000 0.000000
vn 1.000000 0.000000 0.000000
vn 1.000000 0.000000 0.000000
vn 1.000000 0.000000 0.000000
vn 1.000000 0.000000 0.000000
vn 1.000000 0.000000 0.000000
vn 1.000000 0.000000 0.000000
vn 1.000000 0.000000 0.000000
vn -1.000000 0.000000 0.000000
vn -1.000000 0.000000 0.000000
vn -1.000000 0.000000 0.000000
vn -1.000000 0.000000 0.000000
vn -1.000000 0.000000 0.000000
vn -1.000000 0.000000 0.000000
vn -1.000000 0.000000 0.000000
vn -1.000000 0.000000 0.000000
vn -1.000000 0.000000 0.000000
vn -1.000000 0.000000 0.000000
vn -1.000000 0.000000 0.000000
vn -1.000000 0.000000 0.000000
vn -1.000000 0.000000 -0.000000
vn -1.000000 0.000000 -0.000000
vn -1.000000 0.000000 -0.000000
vn -1.000000 0.000000 -0.000000
vn -1.000000 0.000000 0.000000
vn -1.000000 0.000000 0.000000
vn -1.000000 0.000000 0.000000
vn -1.000000 0.000000 0.000000
vn -1.000000 0.000000 0.000000
vn -1.000000 0.000000 -0.000000
vn -1.000000 0.000000 -0.000000
vn -1.000000 0.000000 -0.000000
vn -1.000000 0.000000 0.000000
vn -1.000000 -0.000000 -0.000000
vn -1.000000 0.000000 -0.000000
vn -1.000000 0.000000 0.000000
vn -1.000000 0.000000 0.000000
vn -1.000000 -0.000000 -0.000000
vn -1.000000 0.000000 0.000000
vn -1.000000 0.000000 -0.000000
vn -1.000000 0.000000 0.000000
vn -1.000000 0.000000 0.000000
f 1//1 2//1 3//1
f 1//2 3//2 4//2
f 5//3 4//3 6//3
f 5//4 1//4 4//4
f 7//5 6//5 8//5
f 7//6 8//6 9//6
f 7//7 5//7 6//7
f 10//8 7//8 9//8
f 11//9 9//9 12//9
f 11//10 10//10 9//10
f 13//11 11//11 12//11
f 13//12 12//12 14//12
f 13//13 14//13 15//13
f 16//14 13//14 15//14
f 17//15 16//15 15//15
f 17//16 15//16 18//16
f 19//17 17//17 18//17
f 19//18 18//18 20//18
f 19//19 20//19 21//19
f 22//20 19//20 21//20
f 23//21 22//21 21//21
f 23//22 21//22 24//22
f 25//23 23//23 24//23
f 25//24 24//24 26//24
f 27//25 25//25 26//25
f 27//26 26//26 28//26
f 27//27 28//27 29//27
f 30//28 27//28 29//28
f 31//29 30//29 29//29
f 31//30 29//30 32//30
f 31//31 32//31 33//31
f 34//32 31//32 33//32
f 35//33 34//33 33//33
f 35//34 33//34 36//34
f 35//35 36//35 37//35
f 38//36 35//36 37//36
f 39//37 38//37 37//37
f 39//38 37//38 40//38
f 39//39 40//39 41//39
f 42//40 41//40 43//40
f 42//41 39//41 41//41
f 44//42 42//42 43//42
f 45//43 43//43 46//43
f 45//44 44//44 43//44
f 47//45 46//45 48//45
f 47//46 48//46 49//46
f 47//47 45//47 46//47
f 50//48 47//48 49//48
f 51//49 49//49 52//49
f 51//50 50//50 49//50
f 53//51 52//51 54//51
f 53//52 51//52 52//52
f 55//53 54//53 56//53
f 55//54 53//54 54//54
f 57//55 56//55 58//55
f 57//56 58//56 59//56
f 57//57 55//57 56//57
f 60//58 57//58 59//58
f 61//59 59//59 62//59
f 61//60 62//60 63//60
f 61//61 60//61 59//61
f 64//62 61//62 63//62
f 65//63 64//63 63//63
f 65//64 63//64 66//64
f 67//65 65//65 66//65
f 67//66 66//66 68//66
f 69//67 67//67 68//67
f 69//68 68//68 70//68
f 71//69 69//69 70//69
f 71//70 70//70 72//70
f 2//71 71//71 72//71
f 2//72 72//72 3//72
f 44//73 45//73 47//73
f 39//74 42//74 44//74
f 55//75 51//75 53//75
f 35//76 38//76 39//76
f 35//77 47//77 50//77
f 35//78 44//78 47//78
f 35//79 39//79 44//79
f 60//80 55//80 57//80
f 61//81 50//81 51//81
f 61//82 51//82 55//82
f 61//83 55//83 60//83
f 65//84 61//84 64//84
f 25//85 27//85 30//85
f 25//86 30//86 31//86
f 25//87 31//87 34//87
f 25//88 34//88 35//88
f 69//89 65//89 67//89
f 69//90 61//90 65//90
f 71//91 35//91 50//91
f 71//92 50//92 61//92
f 71//93 61//93 69//93
f 22//94 23//94 25//94
f 22//95 25//95 35//95
f 17//96 19//96 22//96
f 1//97 71//97 2//97
f 16//98 17//98 22//98
f 16//99 22//99 35//99
f 5//100 71//100 1//100
f 7//101 71//101 5//101
f 7//102 13//102 16//102
f 7//103 35//103 71//103
f 7//104 16//104 35//104
f 11//105 13//105 7//105
f 11//106 7//106 10//106
f 46//107 43//107 48//107
f 41//108 40//108 43//108
f 52//109 56//109 54//109
f 37//110 36//110 40//110
f 48//111 36//111 49//111
f 43//112 36//112 48//112
f 40//113 36//113 43//113
f 56//114 59//114 58//114
f 49//115 62//115 52//115
f 52//116 62//116 56//116
f 56//117 62//117 59//117
f 62//118 66//118 63//118
f 28//119 26//119 29//119
f 29//120 26//120 32//120
f 32//121 26//121 33//121
f 33//122 26//122 36//122
f 66//123 70//123 68//123
f 62//124 70//124 66//124
f 36//125 72//125 49//125
f 49//126 72//126 62//126
f 62//127 72//127 70//127
f 24//128 21//128 26//128
f 26//129 21//129 36//129
f 20//130 18//130 21//130
f 72//131 4//131 3//131
f 18//132 15//132 21//132
f 21//133 15//133 36//133
f 72//134 6//134 4//134
f 72//135 8//135 6//135
f 14//136 8//136 15//136
f 36//137 8//137 72//137
f 15//138 8//138 36//138
f 14//139 12//139 8//139
f 8//140 12//140 9//140
