# Created by FreeCAD <https://www.freecad.org>
v 4.910000 0.034468 0.006078
v 4.910000 0.035000 -0.000000
v 2.500000 0.035000 -0.000000
v 2.500000 0.034468 0.006078
v 4.910000 0.032889 0.011971
v 2.500000 0.032889 0.011971
v 2.500000 0.030311 0.017500
v 4.910000 0.030311 0.017500
v 4.910000 0.026812 0.022498
v 2.500000 0.026812 0.022498
v 4.910000 0.022498 0.026812
v 2.500000 0.022498 0.026812
v 2.500000 0.017500 0.030311
v 4.910000 0.017500 0.030311
v 2.500000 0.011971 0.032889
v 4.910000 0.011971 0.032889
v 4.910000 0.006078 0.034468
v 2.500000 0.006078 0.034468
v 4.910000 -0.000000 0.035000
v 2.500000 -0.000000 0.035000
v 4.910000 -0.006078 0.034468
v 2.500000 -0.006078 0.034468
v 4.910000 -0.011971 0.032889
v 2.500000 -0.011971 0.032889
v 2.500000 -0.017500 0.030311
v 4.910000 -0.017500 0.030311
v 4.910000 -0.022498 0.026812
v 2.500000 -0.022498 0.026812
v 4.910000 -0.026812 0.022498
v 2.500000 -0.026812 0.022498
v 4.910000 -0.030311 0.017500
v 2.500000 -0.030311 0.017500
v 4.910000 -0.032889 0.011971
v 2.500000 -0.032889 0.011971
v 4.910000 -0.034468 0.006078
v 2.500000 -0.034468 0.006078
v 4.910000 -0.035000 0.000000
v 2.500000 -0.035000 0.000000
v 4.910000 -0.034468 -0.006078
v 2.500000 -0.034468 -0.006078
v 2.500000 -0.032889 -0.011971
v 4.910000 -0.032889 -0.011971
v 4.910000 -0.030311 -0.017500
v 2.500000 -0.030311 -0.017500
v 4.910000 -0.026812 -0.022498
v 2.500000 -0.026812 -0.022498
v 4.910000 -0.022498 -0.026812
v 2.500000 -0.022498 -0.026812
v 4.910000 -0.017500 -0.030311
v 2.500000 -0.017500 -0.030311
v 2.500000 -0.011971 -0.032889
v 4.910000 -0.011971 -0.032889
v 4.910000 -0.006078 -0.034468
v 2.500000 -0.006078 -0.034468
v 4.910000 -0.000000 -0.035000
v 2.500000 -0.000000 -0.035000
v 4.910000 0.006078 -0.034468
v 2.500000 0.006078 -0.034468
v 4.910000 0.011971 -0.032889
v 2.500000 0.011971 -0.032889
v 4.910000 0.017500 -0.030311
v 2.500000 0.017500 -0.030311
v 2.500000 0.022498 -0.026812
v 4.910000 0.022498 -0.026812
v 4.910000 0.026812 -0.022498
v 2.500000 0.026812 -0.022498
v 4.910000 0.030311 -0.017500
v 2.500000 0.030311 -0.017500
v 4.910000 0.032889 -0.011971
v 2.500000 0.032889 -0.011971
v 4.910000 0.034468 -0.006078
v 2.500000 0.034468 -0.006078
vn 0.000000 0.996195 0.087155
vn 0.000000 0.996195 0.087155
vn 0.000000 0.965926 0.258820
vn 0.000000 0.906308 0.422618
vn 0.000000 0.965926 0.258820
vn 0.000000 0.906308 0.422618
vn 0.000000 0.819152 0.573576
vn 0.000000 0.819152 0.573576
vn 0.000000 0.707107 0.707107
vn 0.000000 0.573576 0.819152
vn 0.000000 0.707107 0.707107
vn 0.000000 0.573576 0.819152
vn 0.000000 0.422618 0.906308
vn 0.000000 0.422618 0.906308
vn 0.000000 0.258820 0.965926
vn 0.000000 0.258820 0.965926
vn 0.000000 0.087155 0.996195
vn 0.000000 0.087155 0.996195
vn 0.000000 -0.087155 0.996195
vn 0.000000 -0.087155 0.996195
vn 0.000000 -0.258820 0.965926
vn 0.000000 -0.258820 0.965926
vn 0.000000 -0.422618 0.906308
vn 0.000000 -0.422618 0.906308
vn 0.000000 -0.573576 0.819152
vn 0.000000 -0.573576 0.819152
vn 0.000000 -0.707107 0.707107
vn 0.000000 -0.707107 0.707107
vn 0.000000 -0.819152 0.573576
vn 0.000000 -0.819152 0.573576
vn 0.000000 -0.906308 0.422618
vn 0.000000 -0.906308 0.422618
vn 0.000000 -0.965926 0.258820
vn 0.000000 -0.965926 0.258820
vn 0.000000 -0.996195 0.087155
vn 0.000000 -0.996195 0.087155
vn -0.000000 -0.996195 -0.087155
vn 0.000000 -0.996195 -0.087155
vn -0.000000 -0.965926 -0.258820
vn -0.000000 -0.965926 -0.258820
vn -0.000000 -0.906308 -0.422618
vn 0.000000 -0.906308 -0.422618
vn -0.000000 -0.819152 -0.573576
vn 0.000000 -0.819152 -0.573576
vn -0.000000 -0.707107 -0.707107
vn 0.000000 -0.707107 -0.707107
vn -0.000000 -0.573576 -0.819152
vn -0.000000 -0.422618 -0.906308
vn 0.000000 -0.573576 -0.819152
vn -0.000000 -0.422618 -0.906308
vn -0.000000 -0.258820 -0.965926
vn 0.000000 -0.258820 -0.965926
vn -0.000000 -0.087155 -0.996195
vn 0.000000 -0.087155 -0.996195
vn 0.000000 0.087155 -0.996195
vn 0.000000 0.087155 -0.996195
vn 0.000000 0.258820 -0.965926
vn 0.000000 0.258820 -0.965926
vn 0.000000 0.422618 -0.906308
vn 0.000000 0.573576 -0.819152
vn 0.000000 0.422618 -0.906308
vn 0.000000 0.573576 -0.819152
vn 0.000000 0.707107 -0.707107
vn 0.000000 0.707107 -0.707107
vn 0.000000 0.819152 -0.573576
vn 0.000000 0.819152 -0.573576
vn 0.000000 0.906308 -0.422618
vn 0.000000 0.906308 -0.422618
vn 0.000000 0.965926 -0.258820
vn 0.000000 0.965926 -0.258820
vn 0.000000 0.996195 -0.087155
vn 0.000000 0.996195 -0.087155
vn 1.000000 0.000000 0.000000
vn 1.000000 0.000000 0.000000
vn 1.000000 0.000000 0.000000
vn 1.000000 0.000000 0.000000
vn 1.000000 0.000000 0.000000
vn 1.000000 0.000000 0.000000
vn 1.000000 0.000000 0.000000
vn 1.000000 0.000000 0.000000
vn 1.000000 0.000000 0.000000
vn 1.000000 0.000000 0.000000
vn 1.000000 0.000000 0.000000
vn 1.000000 0.000000 0.000000
vn 1.000000 0.000000 0.000000
vn 1.000000 0.000000 0.000000
vn 1.000000 0.000000 0.000000
vn 1.000000 0.000000 0.000000
vn 1.000000 0.000000 0.000000
vn 1.000000 0.000000 0.000000
vn 1.000000 0.000000 0.000000
vn 1.000000 0.000000 0.000000
vn 1.000000 0.000000 0.000000
vn 1.000000 0.000000 0.000000
vn 1.000000 0.000000 0.000000
vn 1.000000 0.000000 0.000000
vn 1.000000 0.000000 0.000000
vn 1.000000 0.000000 0.000000
vn 1.000000 0.000000 0.000000
vn 1.000000 0.000000 0.000000
vn 1.000000 0.000000 0.000000
vn 1.000000 0.000000 0.000000
vn 1.000000 0.000000 0.000000
vn 1.000000 0.000000 0.000000
vn 1.000000 0.000000 0.000000
vn 1.000000 0.000000 0.000000
vn -1.000000 0.000000 0.000000
vn -1.000000 0.000000 0.000000
vn -1.000000 0.000000 0.000000
vn -1.000000 0.000000 0.000000
vn -1.000000 0.000000 0.000000
vn -1.000000 0.000000 0.000000
vn -1.000000 0.000000 0.000000
vn -1.000000 0.000000 0.000000
vn -1.000000 0.000000 0.000000
vn -1.000000 0.000000 0.000000
vn -1.000000 0.000000 0.000000
vn -1.000000 0.000000 -0.000000
vn -1.000000 0.000000 -0.000000
vn -1.000000 0.000000 0.000000
vn -1.000000 0.000000 0.000000
vn -1.000000 0.000000 0.000000
vn -1.000000 0.000000 -0.000000
vn -1.000000 0.000000 -0.000000
vn -1.000000 0.000000 -0.000000
vn -1.000000 0.000000 0.000000
vn -1.000000 0.000000 0.000000
vn -1.000000 0.000000 -0.000000
vn -1.000000 0.000000 -0.000000
vn -1.000000 0.000000 0.000000
vn -1.000000 0.000000 0.000000
vn -1.000000 0.000000 0.000000
vn -1.000000 -0.000000 -0.000000
vn -1.000000 0.000000 0.000000
vn -1.000000 0.000000 0.000000
vn -1.000000 0.000000 0.000000
vn -1.000000 0.000000 0.000000
vn -1.000000 0.000000 0.000000
vn -1.000000 0.000000 0.000000
vn -1.000000 0.000000 0.000000
f 1//1 2//1 3//1
f 1//2 3//2 4//2
f 5//3 4//3 6//3
f 5//4 6//4 7//4
f 5//5 1//5 4//5
f 8//6 5//6 7//6
f 9//7 7//7 10//7
f 9//8 8//8 7//8
f 11//9 10//9 12//9
f 11//10 12//10 13//10
f 11//11 9//11 10//11
f 14//12 11//12 13//12
f 14//13 13//13 15//13
f 16//14 14//14 15//14
f 17//15 16//15 15//15
f 17//16 15//16 18//16
f 19//17 17//17 18//17
f 19//18 18//18 20//18
f 21//19 19//19 20//19
f 21//20 20//20 22//20
f 23//21 21//21 22//21
f 23//22 22//22 24//22
f 23//23 24//23 25//23
f 26//24 23//24 25//24
f 27//25 26//25 25//25
f 27//26 25//26 28//26
f 29//27 27//27 28//27
f 29//28 28//28 30//28
f 31//29 29//29 30//29
f 31//30 30//30 32//30
f 33//31 31//31 32//31
f 33//32 32//32 34//32
f 35//33 33//33 34//33
f 35//34 34//34 36//34
f 37//35 35//35 36//35
f 37//36 36//36 38//36
f 39//37 38//37 40//37
f 39//38 37//38 38//38
f 39//39 40//39 41//39
f 42//40 39//40 41//40
f 43//41 41//41 44//41
f 43//42 42//42 41//42
f 45//43 44//43 46//43
f 45//44 43//44 44//44
f 47//45 46//45 48//45
f 47//46 45//46 46//46
f 49//47 48//47 50//47
f 49//48 50//48 51//48
f 49//49 47//49 48//49
f 52//50 49//50 51//50
f 53//51 51//51 54//51
f 53//52 52//52 51//52
f 55//53 54//53 56//53
f 55//54 53//54 54//54
f 57//55 56//55 58//55
f 57//56 55//56 56//56
f 59//57 58//57 60//57
f 59//58 57//58 58//58
f 61//59 60//59 62//59
f 61//60 62//60 63//60
f 61//61 59//61 60//61
f 64//62 61//62 63//62
f 65//63 63//63 66//63
f 65//64 64//64 63//64
f 67//65 65//65 66//65
f 67//66 66//66 68//66
f 69//67 67//67 68//67
f 69//68 68//68 70//68
f 71//69 69//69 70//69
f 71//70 70//70 72//70
f 71//71 72//71 3//71
f 2//72 71//72 3//72
f 42//73 43//73 45//73
f 53//74 45//74 47//74
f 53//75 47//75 49//75
f 53//76 49//76 52//76
f 53//77 42//77 45//77
f 57//78 53//78 55//78
f 35//79 37//79 39//79
f 61//80 39//80 42//80
f 61//81 57//81 59//81
f 61//82 42//82 53//82
f 61//83 53//83 57//83
f 29//84 31//84 33//84
f 29//85 33//85 35//85
f 65//86 61//86 64//86
f 71//87 65//87 67//87
f 71//88 67//88 69//88
f 21//89 23//89 26//89
f 21//90 26//90 27//90
f 21//91 27//91 29//91
f 21//92 39//92 61//92
f 21//93 35//93 39//93
f 21//94 29//94 35//94
f 17//95 19//95 21//95
f 17//96 21//96 61//96
f 5//97 2//97 1//97
f 5//98 71//98 2//98
f 14//99 16//99 17//99
f 14//100 61//100 65//100
f 14//101 17//101 61//101
f 8//102 71//102 5//102
f 9//103 71//103 8//103
f 11//104 14//104 65//104
f 11//105 71//105 9//105
f 11//106 65//106 71//106
f 44//107 41//107 46//107
f 46//108 54//108 48//108
f 48//109 54//109 50//109
f 50//110 54//110 51//110
f 41//111 54//111 46//111
f 54//112 58//112 56//112
f 38//113 36//113 40//113
f 40//114 62//114 41//114
f 58//115 62//115 60//115
f 41//116 62//116 54//116
f 54//117 62//117 58//117
f 32//118 30//118 34//118
f 34//119 30//119 36//119
f 62//120 66//120 63//120
f 66//121 72//121 68//121
f 68//122 72//122 70//122
f 24//123 22//123 25//123
f 25//124 22//124 28//124
f 28//125 22//125 30//125
f 40//126 22//126 62//126
f 36//127 22//127 40//127
f 30//128 22//128 36//128
f 20//129 18//129 22//129
f 22//130 18//130 62//130
f 3//131 6//131 4//131
f 72//132 6//132 3//132
f 15//133 13//133 18//133
f 62//134 13//134 66//134
f 18//135 13//135 62//135
f 72//136 7//136 6//136
f 72//137 10//137 7//137
f 13//138 12//138 66//138
f 72//139 12//139 10//139
f 66//140 12//140 72//140
