# Created by FreeCAD <https://www.freecad.org>
v 0.000000 -0.525352 -0.459205
v 0.000000 -0.505348 -0.470756
v 0.000000 -0.509205 -0.475352
v 0.000000 -0.538449 -0.440500
v 0.000000 -0.520756 -0.455348
v 0.000000 -0.487500 -0.483253
v 0.000000 -0.490500 -0.488449
v 0.000000 -0.533253 -0.437500
v 0.000000 -0.548100 -0.419805
v 0.000000 -0.467753 -0.492462
v 0.000000 -0.469805 -0.498100
v 0.000000 -0.542462 -0.417753
v 0.000000 -0.554010 -0.397748
v 0.000000 -0.446706 -0.498101
v 0.000000 -0.447748 -0.504010
v 0.000000 -0.548101 -0.396706
v 0.000000 -0.556000 -0.375000
v 0.000000 -0.425000 -0.500000
v 0.000000 -0.425000 -0.506000
v 0.000000 -0.550000 -0.375000
v 0.000000 -0.550000 0.375000
v 0.000000 -0.556000 0.375000
v 0.000000 -0.554010 0.397748
v 0.000000 -0.548101 0.396706
v 0.000000 -0.548100 0.419805
v 0.000000 -0.542462 0.417753
v 0.000000 -0.538449 0.440500
v 0.000000 -0.533253 0.437500
v 0.000000 0.425000 -0.500000
v 0.000000 0.425000 -0.506000
v 0.000000 -0.525352 0.459205
v 0.000000 -0.520756 0.455348
v 0.000000 0.446706 -0.498101
v 0.000000 0.447748 -0.504010
v 0.000000 -0.509205 0.475352
v 0.000000 -0.505348 0.470756
v 0.000000 0.467753 -0.492462
v 0.000000 0.469805 -0.498100
v 0.000000 -0.490500 0.488449
v 0.000000 -0.487500 0.483253
v 0.000000 0.487500 -0.483253
v 0.000000 0.490500 -0.488449
v 0.000000 -0.469805 0.498100
v 0.000000 -0.467753 0.492462
v 0.000000 0.505348 -0.470756
v 0.000000 0.509205 -0.475352
v 0.000000 -0.446706 0.498101
v 0.000000 -0.447748 0.504010
v 0.000000 0.525352 -0.459205
v 0.000000 0.520756 -0.455348
v 0.000000 -0.425000 0.506000
v 0.000000 -0.425000 0.500000
v 0.000000 0.538449 -0.440500
v 0.000000 0.533253 -0.437500
v 0.000000 0.542462 -0.417753
v 0.000000 0.548100 -0.419805
v 0.000000 0.548101 -0.396706
v 0.000000 0.554010 -0.397748
v 0.000000 0.550000 -0.375000
v 0.000000 0.556000 -0.375000
v 0.000000 0.556000 0.375000
v 0.000000 0.550000 0.375000
v 0.000000 0.425000 0.506000
v 0.000000 0.425000 0.500000
v 0.000000 0.548101 0.396706
v 0.000000 0.447748 0.504010
v 0.000000 0.446706 0.498101
v 0.000000 0.554010 0.397748
v 0.000000 0.469805 0.498100
v 0.000000 0.467753 0.492462
v 0.000000 0.548100 0.419805
v 0.000000 0.542462 0.417753
v 0.000000 0.533253 0.437500
v 0.000000 0.487500 0.483253
v 0.000000 0.490500 0.488449
v 0.000000 0.505348 0.470756
v 0.000000 0.538449 0.440500
v 0.000000 0.525352 0.459205
v 0.000000 0.520756 0.455348
v 0.000000 0.509205 0.475352
v 2.500000 -0.425000 0.506000
v 2.500000 0.425000 0.506000
v 2.500000 -0.447748 0.504010
v 2.500000 -0.469805 0.498100
v 2.500000 -0.490500 0.488449
v 2.500000 -0.509205 0.475352
v 2.500000 -0.525352 0.459205
v 2.500000 -0.538449 0.440500
v 2.500000 -0.548100 0.419805
v 2.500000 -0.554010 0.397748
v 2.500000 -0.556000 0.375000
v 2.500000 0.447748 0.504010
v 2.500000 0.469805 0.498100
v 2.500000 0.490500 0.488449
v 2.500000 0.509205 0.475352
v 2.500000 0.525352 0.459205
v 2.500000 0.538449 0.440500
v 2.500000 0.548100 0.419805
v 2.500000 0.554010 0.397748
v 2.500000 0.556000 0.375000
v 2.500000 -0.556000 -0.375000
v 2.500000 0.556000 -0.375000
v 2.500000 -0.447748 -0.504010
v 2.500000 -0.425000 -0.506000
v 2.500000 -0.469805 -0.498100
v 2.500000 -0.490500 -0.488449
v 2.500000 -0.509205 -0.475352
v 2.500000 -0.525352 -0.459205
v 2.500000 -0.538449 -0.440500
v 2.500000 -0.548100 -0.419805
v 2.500000 -0.554010 -0.397748
v 2.500000 0.447748 -0.504010
v 2.500000 0.425000 -0.506000
v 2.500000 0.469805 -0.498100
v 2.500000 0.490500 -0.488449
v 2.500000 0.509205 -0.475352
v 2.500000 0.525352 -0.459205
v 2.500000 0.538449 -0.440500
v 2.500000 0.548100 -0.419805
v 2.500000 0.554010 -0.397748
v 2.500000 -0.425000 0.500000
v 2.500000 -0.446706 0.498101
v 2.500000 -0.467753 0.492462
v 2.500000 -0.487500 0.483253
v 2.500000 -0.505348 0.470756
v 2.500000 -0.520756 0.455348
v 2.500000 -0.533253 0.437500
v 2.500000 -0.542462 0.417753
v 2.500000 -0.548101 0.396706
v 2.500000 -0.550000 0.375000
v 2.500000 -0.550000 -0.375000
v 2.500000 -0.425000 -0.500000
v 2.500000 -0.446706 -0.498101
v 2.500000 -0.467753 -0.492462
v 2.500000 -0.487500 -0.483253
v 2.500000 -0.505348 -0.470756
v 2.500000 -0.520756 -0.455348
v 2.500000 -0.533253 -0.437500
v 2.500000 -0.542462 -0.417753
v 2.500000 -0.548101 -0.396706
v 2.500000 0.425000 -0.500000
v 2.500000 0.446706 -0.498101
v 2.500000 0.467753 -0.492462
v 2.500000 0.487500 -0.483253
v 2.500000 0.505348 -0.470756
v 2.500000 0.520756 -0.455348
v 2.500000 0.533253 -0.437500
v 2.500000 0.542462 -0.417753
v 2.500000 0.548101 -0.396706
v 2.500000 0.550000 -0.375000
v 2.500000 0.550000 0.375000
v 2.500000 0.425000 0.500000
v 2.500000 0.446706 0.498101
v 2.500000 0.467753 0.492462
v 2.500000 0.487500 0.483253
v 2.500000 0.505348 0.470756
v 2.500000 0.520756 0.455348
v 2.500000 0.533253 0.437500
v 2.500000 0.542462 0.417753
v 2.500000 0.548101 0.396706
vn -1.000000 0.000000 0.000000
vn -1.000000 0.000000 0.000000
vn -1.000000 0.000000 0.000000
vn -1.000000 0.000000 0.000000
vn -1.000000 0.000000 -0.000000
vn -1.000000 0.000000 0.000000
vn -1.000000 0.000000 0.000000
vn -1.000000 0.000000 0.000000
vn -1.000000 0.000000 -0.000000
vn -1.000000 0.000000 0.000000
vn -1.000000 0.000000 0.000000
vn -1.000000 0.000000 -0.000000
vn -1.000000 0.000000 0.000000
vn -1.000000 0.000000 0.000000
vn -1.000000 0.000000 0.000000
vn -1.000000 0.000000 0.000000
vn -1.000000 0.000000 -0.000000
vn -1.000000 0.000000 0.000000
vn -1.000000 0.000000 0.000000
vn -1.000000 0.000000 0.000000
vn -1.000000 0.000000 -0.000000
vn -1.000000 0.000000 0.000000
vn -1.000000 0.000000 0.000000
vn -1.000000 0.000000 -0.000000
vn -1.000000 0.000000 -0.000000
vn -1.000000 0.000000 0.000000
vn -1.000000 0.000000 0.000000
vn -1.000000 0.000000 0.000000
vn -1.000000 0.000000 0.000000
vn -1.000000 0.000000 -0.000000
vn -1.000000 0.000000 0.000000
vn -1.000000 0.000000 0.000000
vn -1.000000 0.000000 0.000000
vn -1.000000 0.000000 0.000000
vn -1.000000 0.000000 0.000000
vn -1.000000 0.000000 0.000000
vn -1.000000 0.000000 0.000000
vn -1.000000 0.000000 0.000000
vn -1.000000 0.000000 0.000000
vn -1.000000 0.000000 0.000000
vn -1.000000 0.000000 0.000000
vn -1.000000 0.000000 0.000000
vn -1.000000 0.000000 0.000000
vn -1.000000 0.000000 0.000000
vn -1.000000 0.000000 0.000000
vn -1.000000 0.000000 0.000000
vn -1.000000 0.000000 0.000000
vn -1.000000 0.000000 -0.000000
vn -1.000000 0.000000 0.000000
vn -1.000000 0.000000 0.000000
vn -1.000000 0.000000 0.000000
vn -1.000000 0.000000 -0.000000
vn -1.000000 0.000000 0.000000
vn -1.000000 0.000000 -0.000000
vn -1.000000 0.000000 -0.000000
vn -1.000000 0.000000 0.000000
vn -1.000000 0.000000 -0.000000
vn -1.000000 0.000000 0.000000
vn -1.000000 0.000000 0.000000
vn -1.000000 0.000000 0.000000
vn -1.000000 0.000000 0.000000
vn -1.000000 0.000000 0.000000
vn -1.000000 0.000000 0.000000
vn -1.000000 0.000000 0.000000
vn -1.000000 0.000000 0.000000
vn -1.000000 0.000000 0.000000
vn -1.000000 0.000000 -0.000000
vn -1.000000 0.000000 0.000000
vn -1.000000 0.000000 0.000000
vn -1.000000 0.000000 0.000000
vn -1.000000 0.000000 0.000000
vn -1.000000 0.000000 -0.000000
vn -1.000000 0.000000 0.000000
vn -1.000000 0.000000 0.000000
vn -1.000000 0.000000 0.000000
vn -1.000000 0.000000 0.000000
vn -1.000000 0.000000 0.000000
vn -1.000000 0.000000 0.000000
vn -1.000000 0.000000 0.000000
vn -1.000000 0.000000 0.000000
vn 0.000000 0.000000 1.000000
vn 0.000000 -0.000000 1.000000
vn 0.000000 -0.087154 0.996195
vn 0.000000 -0.087154 0.996195
vn 0.000000 -0.258820 0.965926
vn 0.000000 -0.258820 0.965926
vn 0.000000 -0.422618 0.906308
vn 0.000000 -0.422618 0.906308
vn 0.000000 -0.573576 0.819152
vn 0.000000 -0.573576 0.819152
vn 0.000000 -0.707107 0.707107
vn 0.000000 -0.707107 0.707107
vn 0.000000 -0.819152 0.573577
vn 0.000000 -0.906308 0.422618
vn 0.000000 -0.819152 0.573577
vn 0.000000 -0.906308 0.422618
vn 0.000000 -0.965926 0.258820
vn 0.000000 -0.965926 0.258820
vn 0.000000 -0.996195 0.087154
vn 0.000000 -0.996195 0.087154
vn 0.000000 0.087154 0.996195
vn 0.000000 0.087154 0.996195
vn 0.000000 0.258820 0.965926
vn 0.000000 0.258820 0.965926
vn 0.000000 0.422618 0.906308
vn -0.000000 0.573576 0.819152
vn 0.000000 0.422618 0.906308
vn 0.000000 0.573576 0.819152
vn 0.000000 0.707107 0.707107
vn 0.000000 0.707107 0.707107
vn 0.000000 0.819152 0.573577
vn 0.000000 0.819152 0.573577
vn 0.000000 0.906308 0.422618
vn 0.000000 0.906308 0.422618
vn 0.000000 0.965926 0.258820
vn 0.000000 0.965926 0.258820
vn 0.000000 0.996195 0.087154
vn 0.000000 0.996195 0.087154
vn 0.000000 -1.000000 0.000000
vn 0.000000 -1.000000 0.000000
vn 0.000000 1.000000 0.000000
vn 0.000000 1.000000 -0.000000
vn 0.000000 -0.087154 -0.996195
vn -0.000000 -0.087154 -0.996195
vn 0.000000 -0.258820 -0.965926
vn -0.000000 -0.258820 -0.965926
vn 0.000000 -0.422618 -0.906308
vn -0.000000 -0.422618 -0.906308
vn 0.000000 -0.573576 -0.819152
vn -0.000000 -0.573576 -0.819152
vn 0.000000 -0.707107 -0.707107
vn -0.000000 -0.707107 -0.707107
vn 0.000000 -0.819152 -0.573577
vn 0.000000 -0.906308 -0.422618
vn -0.000000 -0.819152 -0.573577
vn 0.000000 -0.906308 -0.422618
vn 0.000000 -0.965926 -0.258820
vn -0.000000 -0.965926 -0.258820
vn 0.000000 -0.996195 -0.087154
vn -0.000000 -0.996195 -0.087154
vn 0.000000 0.087154 -0.996195
vn 0.000000 0.087154 -0.996195
vn 0.000000 0.258820 -0.965926
vn 0.000000 0.258820 -0.965926
vn 0.000000 0.422618 -0.906308
vn 0.000000 0.573576 -0.819152
vn 0.000000 0.422618 -0.906308
vn 0.000000 0.573576 -0.819152
vn 0.000000 0.707107 -0.707107
vn 0.000000 0.707107 -0.707107
vn 0.000000 0.819152 -0.573577
vn 0.000000 0.819152 -0.573577
vn 0.000000 0.906308 -0.422618
vn 0.000000 0.906308 -0.422618
vn 0.000000 0.965926 -0.258820
vn 0.000000 0.965926 -0.258820
vn 0.000000 0.996195 -0.087154
vn 0.000000 0.996195 -0.087154
vn 0.000000 0.000000 -1.000000
vn -0.000000 -0.000000 -1.000000
vn 0.000000 0.087155 -0.996195
vn 0.000000 0.087155 -0.996195
vn 0.000000 0.258819 -0.965926
vn 0.000000 0.258819 -0.965926
vn 0.000000 0.422619 -0.906308
vn 0.000000 0.422619 -0.906308
vn 0.000000 0.573577 -0.819151
vn 0.000000 0.573577 -0.819151
vn 0.000000 0.707107 -0.707107
vn 0.000000 0.707107 -0.707107
vn 0.000000 0.819151 -0.573578
vn 0.000000 0.819151 -0.573578
vn 0.000000 0.906308 -0.422618
vn 0.000000 0.906308 -0.422618
vn 0.000000 0.965926 -0.258818
vn 0.000000 0.965926 -0.258818
vn 0.000000 0.996195 -0.087157
vn 0.000000 0.996195 -0.087157
vn 0.000000 1.000000 0.000000
vn 0.000000 1.000000 -0.000000
vn 0.000000 0.087155 0.996195
vn 0.000000 0.087155 0.996195
vn 0.000000 0.422619 0.906308
vn 0.000000 0.258819 0.965926
vn 0.000000 0.258819 0.965926
vn 0.000000 0.422619 0.906308
vn 0.000000 0.707107 0.707107
vn 0.000000 0.573577 0.819151
vn 0.000000 0.573577 0.819151
vn 0.000000 0.819151 0.573578
vn 0.000000 0.707107 0.707107
vn 0.000000 0.819151 0.573578
vn 0.000000 0.965926 0.258818
vn 0.000000 0.906308 0.422618
vn 0.000000 0.906308 0.422618
vn 0.000000 0.965926 0.258818
vn 0.000000 0.996195 0.087157
vn 0.000000 0.996195 0.087157
vn 0.000000 0.000000 1.000000
vn 0.000000 -0.000000 1.000000
vn 0.000000 -0.087155 0.996195
vn 0.000000 -0.087155 0.996195
vn 0.000000 -0.258819 0.965926
vn 0.000000 -0.258819 0.965926
vn 0.000000 -0.422619 0.906308
vn 0.000000 -0.422619 0.906308
vn 0.000000 -0.573577 0.819151
vn 0.000000 -0.573577 0.819151
vn 0.000000 -0.707107 0.707107
vn 0.000000 -0.707107 0.707107
vn 0.000000 -0.819151 0.573578
vn 0.000000 -0.819151 0.573578
vn 0.000000 -0.906308 0.422618
vn 0.000000 -0.906308 0.422618
vn 0.000000 -0.965926 0.258818
vn 0.000000 -0.965926 0.258818
vn 0.000000 -0.996195 0.087157
vn 0.000000 -0.996195 0.087157
vn 0.000000 -1.000000 0.000000
vn 0.000000 -1.000000 0.000000
vn -0.000000 -0.087155 -0.996195
vn -0.000000 -0.087155 -0.996195
vn -0.000000 -0.422619 -0.906308
vn -0.000000 -0.258819 -0.965926
vn 0.000000 -0.258819 -0.965926
vn -0.000000 -0.422619 -0.906308
vn -0.000000 -0.707107 -0.707107
vn -0.000000 -0.573577 -0.819151
vn 0.000000 -0.573577 -0.819151
vn -0.000000 -0.819151 -0.573578
vn -0.000000 -0.707107 -0.707107
vn -0.000000 -0.819151 -0.573578
vn -0.000000 -0.965926 -0.258818
vn -0.000000 -0.906308 -0.422618
vn 0.000000 -0.906308 -0.422618
vn -0.000000 -0.965926 -0.258818
vn -0.000000 -0.996195 -0.087157
vn 0.000000 -0.996195 -0.087157
vn 0.000000 0.000000 -1.000000
vn -0.000000 -0.000000 -1.000000
vn 1.000000 0.000000 0.000000
vn 1.000000 0.000000 0.000000
vn 1.000000 0.000000 0.000000
vn 1.000000 0.000000 0.000000
vn 1.000000 0.000000 0.000000
vn 1.000000 0.000000 0.000000
vn 1.000000 0.000000 0.000000
vn 1.000000 0.000000 0.000000
vn 1.000000 0.000000 0.000000
vn 1.000000 0.000000 0.000000
vn 1.000000 0.000000 0.000000
vn 1.000000 0.000000 0.000000
vn 1.000000 0.000000 0.000000
vn 1.000000 0.000000 0.000000
vn 1.000000 0.000000 0.000000
vn 1.000000 0.000000 0.000000
vn 1.000000 0.000000 0.000000
vn 1.000000 0.000000 0.000000
vn 1.000000 0.000000 0.000000
vn 1.000000 0.000000 0.000000
vn 1.000000 0.000000 0.000000
vn 1.000000 0.000000 0.000000
vn 1.000000 0.000000 0.000000
vn 1.000000 0.000000 0.000000
vn 1.000000 0.000000 0.000000
vn 1.000000 0.000000 0.000000
vn 1.000000 0.000000 0.000000
vn 1.000000 0.000000 0.000000
vn 1.000000 0.000000 0.000000
vn 1.000000 0.000000 0.000000
vn 1.000000 0.000000 0.000000
vn 1.000000 0.000000 0.000000
vn 1.000000 0.000000 0.000000
vn 1.000000 0.000000 0.000000
vn 1.000000 0.000000 0.000000
vn 1.000000 0.000000 0.000000
vn 1.000000 0.000000 0.000000
vn 1.000000 0.000000 0.000000
vn 1.000000 0.000000 0.000000
vn 1.000000 0.000000 0.000000
vn 1.000000 0.000000 0.000000
vn 1.000000 0.000000 0.000000
vn 1.000000 0.000000 0.000000
vn 1.000000 0.000000 0.000000
vn 1.000000 0.000000 0.000000
vn 1.000000 0.000000 0.000000
vn 1.000000 0.000000 0.000000
vn 1.000000 0.000000 0.000000
vn 1.000000 0.000000 0.000000
vn 1.000000 0.000000 0.000000
vn 1.000000 0.000000 0.000000
vn 1.000000 0.000000 0.000000
vn 1.000000 0.000000 0.000000
vn 1.000000 0.000000 0.000000
vn 1.000000 0.000000 0.000000
vn 1.000000 0.000000 0.000000
vn 1.000000 0.000000 0.000000
vn 1.000000 0.000000 0.000000
vn 1.000000 0.000000 0.000000
vn 1.000000 0.000000 0.000000
vn 1.000000 0.000000 0.000000
vn 1.000000 0.000000 0.000000
vn 1.000000 0.000000 0.000000
vn 1.000000 0.000000 0.000000
vn 1.000000 0.000000 0.000000
vn 1.000000 0.000000 0.000000
vn 1.000000 0.000000 0.000000
vn 1.000000 0.000000 0.000000
vn 1.000000 0.000000 0.000000
vn 1.000000 0.000000 0.000000
vn 1.000000 0.000000 0.000000
vn 1.000000 0.000000 0.000000
vn 1.000000 0.000000 0.000000
vn 1.000000 0.000000 0.000000
vn 1.000000 0.000000 0.000000
vn 1.000000 0.000000 0.000000
vn 1.000000 0.000000 0.000000
vn 1.000000 0.000000 0.000000
vn 1.000000 0.000000 0.000000
vn 1.000000 0.000000 0.000000
f 1//1 2//1 3//1
f 4//2 5//2 1//2
f 1//3 5//3 2//3
f 3//4 6//4 7//4
f 2//5 6//5 3//5
f 4//6 8//6 5//6
f 4//7 9//7 8//7
f 7//8 10//8 11//8
f 6//9 10//9 7//9
f 9//10 12//10 8//10
f 9//11 13//11 12//11
f 10//12 14//12 11//12
f 11//13 14//13 15//13
f 13//14 16//14 12//14
f 13//15 17//15 16//15
f 15//16 18//16 19//16
f 14//17 18//17 15//17
f 17//18 20//18 16//18
f 17//19 21//19 20//19
f 22//20 21//20 17//20
f 23//21 24//21 22//21
f 22//22 24//22 21//22
f 23//23 25//23 24//23
f 25//24 26//24 24//24
f 27//25 28//25 25//25
f 25//26 28//26 26//26
f 18//27 29//27 19//27
f 19//28 29//28 30//28
f 27//29 31//29 28//29
f 31//30 32//30 28//30
f 30//31 33//31 34//31
f 29//32 33//32 30//32
f 32//33 35//33 36//33
f 31//34 35//34 32//34
f 34//35 37//35 38//35
f 33//36 37//36 34//36
f 36//37 39//37 40//37
f 35//38 39//38 36//38
f 38//39 41//39 42//39
f 37//40 41//40 38//40
f 40//41 43//41 44//41
f 39//42 43//42 40//42
f 42//43 45//43 46//43
f 41//44 45//44 42//44
f 43//45 47//45 44//45
f 43//46 48//46 47//46
f 45//47 49//47 46//47
f 50//48 49//48 45//48
f 47//49 51//49 52//49
f 48//50 51//50 47//50
f 50//51 53//51 49//51
f 54//52 53//52 50//52
f 54//53 55//53 53//53
f 55//54 56//54 53//54
f 57//55 58//55 55//55
f 55//56 58//56 56//56
f 59//57 60//57 57//57
f 57//58 60//58 58//58
f 59//59 61//59 60//59
f 62//60 61//60 59//60
f 52//61 63//61 64//61
f 51//62 63//62 52//62
f 62//63 65//63 61//63
f 63//64 66//64 64//64
f 64//65 66//65 67//65
f 65//66 68//66 61//66
f 66//67 69//67 67//67
f 67//68 69//68 70//68
f 65//69 71//69 68//69
f 72//70 71//70 65//70
f 72//71 73//71 71//71
f 69//72 74//72 70//72
f 69//73 75//73 74//73
f 74//74 75//74 76//74
f 73//75 77//75 71//75
f 73//76 78//76 77//76
f 79//77 78//77 73//77
f 75//78 80//78 76//78
f 79//79 80//79 78//79
f 76//80 80//80 79//80
f 51//81 81//81 63//81
f 81//82 82//82 63//82
f 83//83 51//83 48//83
f 83//84 81//84 51//84
f 84//85 48//85 43//85
f 84//86 83//86 48//86
f 85//87 43//87 39//87
f 85//88 84//88 43//88
f 86//89 39//89 35//89
f 86//90 85//90 39//90
f 87//91 35//91 31//91
f 87//92 86//92 35//92
f 88//93 31//93 27//93
f 88//94 27//94 25//94
f 88//95 87//95 31//95
f 89//96 88//96 25//96
f 90//97 25//97 23//97
f 90//98 89//98 25//98
f 91//99 23//99 22//99
f 91//100 90//100 23//100
f 63//101 92//101 66//101
f 82//102 92//102 63//102
f 66//103 93//103 69//103
f 92//104 93//104 66//104
f 69//105 94//105 75//105
f 75//106 94//106 80//106
f 93//107 94//107 69//107
f 94//108 95//108 80//108
f 80//109 96//109 78//109
f 95//110 96//110 80//110
f 78//111 97//111 77//111
f 96//112 97//112 78//112
f 77//113 98//113 71//113
f 97//114 98//114 77//114
f 71//115 99//115 68//115
f 98//116 99//116 71//116
f 68//117 100//117 61//117
f 99//118 100//118 68//118
f 17//119 91//119 22//119
f 17//120 101//120 91//120
f 100//121 60//121 61//121
f 102//122 60//122 100//122
f 19//123 103//123 15//123
f 104//124 103//124 19//124
f 15//125 105//125 11//125
f 103//126 105//126 15//126
f 11//127 106//127 7//127
f 105//128 106//128 11//128
f 7//129 107//129 3//129
f 106//130 107//130 7//130
f 3//131 108//131 1//131
f 107//132 108//132 3//132
f 1//133 109//133 4//133
f 4//134 109//134 9//134
f 108//135 109//135 1//135
f 109//136 110//136 9//136
f 9//137 111//137 13//137
f 110//138 111//138 9//138
f 13//139 101//139 17//139
f 111//140 101//140 13//140
f 112//141 30//141 34//141
f 112//142 113//142 30//142
f 114//143 34//143 38//143
f 114//144 112//144 34//144
f 115//145 38//145 42//145
f 115//146 42//146 46//146
f 115//147 114//147 38//147
f 116//148 115//148 46//148
f 117//149 46//149 49//149
f 117//150 116//150 46//150
f 118//151 49//151 53//151
f 118//152 117//152 49//152
f 119//153 53//153 56//153
f 119//154 118//154 53//154
f 120//155 56//155 58//155
f 120//156 119//156 56//156
f 102//157 58//157 60//157
f 102//158 120//158 58//158
f 104//159 19//159 30//159
f 113//160 104//160 30//160
f 121//161 122//161 52//161
f 52//162 122//162 47//162
f 47//163 123//163 44//163
f 122//164 123//164 47//164
f 44//165 124//165 40//165
f 123//166 124//166 44//166
f 40//167 125//167 36//167
f 124//168 125//168 40//168
f 36//169 126//169 32//169
f 125//170 126//170 36//170
f 32//171 127//171 28//171
f 126//172 127//172 32//172
f 28//173 128//173 26//173
f 127//174 128//174 28//174
f 26//175 129//175 24//175
f 128//176 129//176 26//176
f 24//177 130//177 21//177
f 129//178 130//178 24//178
f 130//179 20//179 21//179
f 131//180 20//180 130//180
f 132//181 18//181 14//181
f 133//182 132//182 14//182
f 134//183 10//183 6//183
f 134//184 14//184 10//184
f 134//185 133//185 14//185
f 135//186 134//186 6//186
f 136//187 2//187 5//187
f 136//188 6//188 2//188
f 136//189 135//189 6//189
f 137//190 5//190 8//190
f 137//191 136//191 5//191
f 138//192 137//192 8//192
f 139//193 12//193 16//193
f 139//194 8//194 12//194
f 139//195 138//195 8//195
f 140//196 139//196 16//196
f 131//197 16//197 20//197
f 131//198 140//198 16//198
f 18//199 132//199 29//199
f 132//200 141//200 29//200
f 141//201 142//201 29//201
f 29//202 142//202 33//202
f 33//203 143//203 37//203
f 142//204 143//204 33//204
f 37//205 144//205 41//205
f 143//206 144//206 37//206
f 41//207 145//207 45//207
f 144//208 145//208 41//208
f 45//209 146//209 50//209
f 145//210 146//210 45//210
f 50//211 147//211 54//211
f 146//212 147//212 50//212
f 54//213 148//213 55//213
f 147//214 148//214 54//214
f 55//215 149//215 57//215
f 148//216 149//216 55//216
f 57//217 150//217 59//217
f 149//218 150//218 57//218
f 59//219 151//219 62//219
f 59//220 150//220 151//220
f 152//221 64//221 67//221
f 153//222 152//222 67//222
f 154//223 70//223 74//223
f 154//224 67//224 70//224
f 154//225 153//225 67//225
f 155//226 154//226 74//226
f 156//227 76//227 79//227
f 156//228 74//228 76//228
f 156//229 155//229 74//229
f 157//230 79//230 73//230
f 157//231 156//231 79//231
f 158//232 157//232 73//232
f 159//233 72//233 65//233
f 159//234 73//234 72//234
f 159//235 158//235 73//235
f 160//236 159//236 65//236
f 151//237 65//237 62//237
f 151//238 160//238 65//238
f 121//239 52//239 64//239
f 152//240 121//240 64//240
f 136//241 108//241 107//241
f 137//242 109//242 108//242
f 137//243 108//243 136//243
f 135//244 107//244 106//244
f 135//245 136//245 107//245
f 138//246 109//246 137//246
f 110//247 109//247 138//247
f 134//248 106//248 105//248
f 134//249 135//249 106//249
f 139//250 110//250 138//250
f 111//251 110//251 139//251
f 133//252 134//252 105//252
f 133//253 105//253 103//253
f 140//254 111//254 139//254
f 101//255 111//255 140//255
f 132//256 103//256 104//256
f 132//257 133//257 103//257
f 131//258 101//258 140//258
f 130//259 101//259 131//259
f 130//260 91//260 101//260
f 129//261 90//261 91//261
f 129//262 91//262 130//262
f 89//263 90//263 129//263
f 128//264 89//264 129//264
f 127//265 88//265 89//265
f 127//266 89//266 128//266
f 141//267 132//267 104//267
f 141//268 104//268 113//268
f 87//269 88//269 127//269
f 126//270 87//270 127//270
f 142//271 113//271 112//271
f 142//272 141//272 113//272
f 86//273 126//273 125//273
f 86//274 87//274 126//274
f 143//275 112//275 114//275
f 143//276 142//276 112//276
f 85//277 125//277 124//277
f 85//278 86//278 125//278
f 144//279 114//279 115//279
f 144//280 143//280 114//280
f 84//281 124//281 123//281
f 84//282 85//282 124//282
f 145//283 115//283 116//283
f 145//284 144//284 115//284
f 122//285 84//285 123//285
f 83//286 84//286 122//286
f 117//287 145//287 116//287
f 117//288 146//288 145//288
f 81//289 122//289 121//289
f 81//290 83//290 122//290
f 118//291 146//291 117//291
f 118//292 147//292 146//292
f 148//293 147//293 118//293
f 119//294 148//294 118//294
f 120//295 149//295 148//295
f 120//296 148//296 119//296
f 102//297 150//297 149//297
f 102//298 149//298 120//298
f 100//299 150//299 102//299
f 100//300 151//300 150//300
f 82//301 121//301 152//301
f 82//302 81//302 121//302
f 160//303 151//303 100//303
f 92//304 82//304 152//304
f 92//305 152//305 153//305
f 99//306 160//306 100//306
f 93//307 92//307 153//307
f 93//308 153//308 154//308
f 98//309 160//309 99//309
f 98//310 159//310 160//310
f 158//311 159//311 98//311
f 155//312 93//312 154//312
f 94//313 93//313 155//313
f 94//314 155//314 156//314
f 97//315 158//315 98//315
f 96//316 158//316 97//316
f 96//317 157//317 158//317
f 95//318 94//318 156//318
f 95//319 157//319 96//319
f 95//320 156//320 157//320
