# Created by FreeCAD <https://www.freecad.org>
v 2.063070 -0.615000 -0.006512
v 2.062500 -0.615000 -0.000000
v 2.062500 -0.549000 -0.000000
v 2.063070 -0.549000 -0.006512
v 2.064761 -0.615000 -0.012826
v 2.064761 -0.549000 -0.012826
v 2.067524 -0.615000 -0.018750
v 2.067524 -0.549000 -0.018750
v 2.071273 -0.615000 -0.024105
v 2.071273 -0.549000 -0.024105
v 2.075896 -0.549000 -0.028727
v 2.075896 -0.615000 -0.028727
v 2.081250 -0.615000 -0.032476
v 2.081250 -0.549000 -0.032476
v 2.087174 -0.615000 -0.035238
v 2.087174 -0.549000 -0.035238
v 2.093488 -0.615000 -0.036930
v 2.093488 -0.549000 -0.036930
v 2.100000 -0.615000 -0.037500
v 2.100000 -0.549000 -0.037500
v 2.106512 -0.549000 -0.036930
v 2.106512 -0.615000 -0.036930
v 2.112826 -0.615000 -0.035238
v 2.112826 -0.549000 -0.035238
v 2.118750 -0.615000 -0.032476
v 2.118750 -0.549000 -0.032476
v 2.124104 -0.615000 -0.028727
v 2.124104 -0.549000 -0.028727
v 2.128726 -0.615000 -0.024105
v 2.128726 -0.549000 -0.024105
v 2.132476 -0.615000 -0.018750
v 2.132476 -0.549000 -0.018750
v 2.135238 -0.615000 -0.012826
v 2.135238 -0.549000 -0.012826
v 2.136930 -0.549000 -0.006512
v 2.136930 -0.615000 -0.006512
v 2.137500 -0.615000 -0.000000
v 2.137500 -0.549000 -0.000000
v 2.136930 -0.549000 0.006512
v 2.136930 -0.615000 0.006512
v 2.135238 -0.615000 0.012826
v 2.135238 -0.549000 0.012826
v 2.132476 -0.549000 0.018750
v 2.132476 -0.615000 0.018750
v 2.128726 -0.615000 0.024105
v 2.128726 -0.549000 0.024105
v 2.124104 -0.549000 0.028727
v 2.124104 -0.615000 0.028727
v 2.118750 -0.615000 0.032476
v 2.118750 -0.549000 0.032476
v 2.112826 -0.615000 0.035238
v 2.112826 -0.549000 0.035238
v 2.106512 -0.549000 0.036930
v 2.106512 -0.615000 0.036930
v 2.100000 -0.615000 0.037500
v 2.100000 -0.549000 0.037500
v 2.093488 -0.549000 0.036930
v 2.093488 -0.615000 0.036930
v 2.087174 -0.615000 0.035238
v 2.087174 -0.549000 0.035238
v 2.081250 -0.615000 0.032476
v 2.081250 -0.549000 0.032476
v 2.075896 -0.615000 0.028727
v 2.075896 -0.549000 0.028727
v 2.071273 -0.615000 0.024105
v 2.071273 -0.549000 0.024105
v 2.067524 -0.615000 0.018750
v 2.067524 -0.549000 0.018750
v 2.064761 -0.615000 0.012826
v 2.064761 -0.549000 0.012826
v 2.063070 -0.615000 0.006512
v 2.063070 -0.549000 0.006512
vn -0.996193 0.000000 -0.087173
vn -0.996193 0.000000 -0.087173
vn -0.965935 0.000000 -0.258785
vn -0.965935 0.000000 -0.258785
vn -0.906306 0.000000 -0.422623
vn -0.906306 0.000000 -0.422623
vn -0.819146 0.000000 -0.573585
vn -0.707100 0.000000 -0.707114
vn -0.819146 0.000000 -0.573585
vn -0.707100 0.000000 -0.707114
vn -0.573586 0.000000 -0.819146
vn -0.573586 0.000000 -0.819146
vn -0.422605 0.000000 -0.906314
vn -0.422605 0.000000 -0.906314
vn -0.258825 0.000000 -0.965924
vn -0.258825 0.000000 -0.965924
vn -0.087158 0.000000 -0.996194
vn -0.087158 0.000000 -0.996194
vn 0.087155 0.000000 -0.996195
vn 0.087155 0.000000 -0.996195
vn 0.258825 0.000000 -0.965924
vn 0.258825 0.000000 -0.965924
vn 0.422605 0.000000 -0.906314
vn 0.422605 0.000000 -0.906314
vn 0.573586 0.000000 -0.819146
vn 0.573586 0.000000 -0.819146
vn 0.707118 0.000000 -0.707095
vn 0.707118 0.000000 -0.707095
vn 0.819129 0.000000 -0.573610
vn 0.819129 0.000000 -0.573610
vn 0.906320 0.000000 -0.422593
vn 0.906320 0.000000 -0.422593
vn 0.965926 0.000000 -0.258819
vn 0.965926 0.000000 -0.258819
vn 0.996193 0.000000 -0.087173
vn 0.996193 0.000000 -0.087173
vn 0.996193 -0.000000 0.087173
vn 0.996193 -0.000000 0.087173
vn 0.965926 -0.000000 0.258819
vn 0.906320 -0.000000 0.422593
vn 0.965926 0.000000 0.258819
vn 0.906320 -0.000000 0.422593
vn 0.819129 -0.000000 0.573610
vn 0.707118 -0.000000 0.707095
vn 0.819129 0.000000 0.573610
vn 0.707118 -0.000000 0.707095
vn 0.573586 -0.000000 0.819146
vn 0.573586 0.000000 0.819146
vn 0.422605 -0.000000 0.906314
vn 0.258825 -0.000000 0.965924
vn 0.422605 0.000000 0.906314
vn 0.258825 -0.000000 0.965924
vn 0.087155 -0.000000 0.996195
vn -0.087158 0.000000 0.996194
vn 0.087155 0.000000 0.996195
vn -0.087158 0.000000 0.996194
vn -0.258825 0.000000 0.965924
vn -0.258825 0.000000 0.965924
vn -0.422605 0.000000 0.906314
vn -0.422605 0.000000 0.906314
vn -0.573586 0.000000 0.819146
vn -0.573586 0.000000 0.819146
vn -0.707100 0.000000 0.707114
vn -0.707100 0.000000 0.707114
vn -0.819146 0.000000 0.573585
vn -0.819146 0.000000 0.573585
vn -0.906306 0.000000 0.422623
vn -0.906306 0.000000 0.422623
vn -0.965935 0.000000 0.258785
vn -0.965935 0.000000 0.258785
vn -0.996193 0.000000 0.087173
vn -0.996193 -0.000000 0.087173
vn 0.000000 -1.000000 0.000000
vn 0.000000 -1.000000 0.000000
vn 0.000000 -1.000000 0.000000
vn 0.000000 -1.000000 0.000000
vn 0.000000 -1.000000 0.000000
vn 0.000000 -1.000000 0.000000
vn 0.000000 -1.000000 0.000000
vn 0.000000 -1.000000 0.000000
vn 0.000000 -1.000000 0.000000
vn 0.000000 -1.000000 0.000000
vn 0.000000 -1.000000 0.000000
vn 0.000000 -1.000000 0.000000
vn 0.000000 -1.000000 0.000000
vn 0.000000 -1.000000 0.000000
vn 0.000000 -1.000000 0.000000
vn 0.000000 -1.000000 0.000000
vn 0.000000 -1.000000 0.000000
vn 0.000000 -1.000000 0.000000
vn 0.000000 -1.000000 0.000000
vn 0.000000 -1.000000 0.000000
vn 0.000000 -1.000000 0.000000
vn 0.000000 -1.000000 0.000000
vn 0.000000 -1.000000 0.000000
vn 0.000000 -1.000000 0.000000
vn 0.000000 -1.000000 0.000000
vn 0.000000 -1.000000 0.000000
vn 0.000000 -1.000000 0.000000
vn 0.000000 -1.000000 0.000000
vn 0.000000 -1.000000 0.000000
vn 0.000000 -1.000000 0.000000
vn 0.000000 -1.000000 0.000000
vn 0.000000 -1.000000 0.000000
vn 0.000000 -1.000000 0.000000
vn 0.000000 -1.000000 0.000000
vn 0.000000 1.000000 0.000000
vn 0.000000 1.000000 0.000000
vn 0.000000 1.000000 0.000000
vn 0.000000 1.000000 0.000000
vn 0.000000 1.000000 0.000000
vn 0.000000 1.000000 0.000000
vn 0.000000 1.000000 -0.000000
vn 0.000000 1.000000 0.000000
vn 0.000000 1.000000 0.000000
vn 0.000000 1.000000 0.000000
vn 0.000000 1.000000 0.000000
vn 0.000000 1.000000 0.000000
vn 0.000000 1.000000 -0.000000
vn 0.000000 1.000000 -0.000000
vn 0.000000 1.000000 -0.000000
vn 0.000000 1.000000 -0.000000
vn 0.000000 1.000000 0.000000
vn 0.000000 1.000000 -0.000000
vn 0.000000 1.000000 0.000000
vn 0.000000 1.000000 0.000000
vn 0.000000 1.000000 0.000000
vn 0.000000 1.000000 -0.000000
vn 0.000000 1.000000 -0.000000
vn 0.000000 1.000000 0.000000
vn 0.000000 1.000000 0.000000
vn -0.000000 1.000000 -0.000000
vn 0.000000 1.000000 0.000000
vn 0.000000 1.000000 0.000000
vn 0.000000 1.000000 0.000000
vn 0.000000 1.000000 0.000000
vn 0.000000 1.000000 -0.000000
vn 0.000000 1.000000 0.000000
vn 0.000000 1.000000 0.000000
vn 0.000000 1.000000 0.000000
f 1//1 2//1 3//1
f 1//2 3//2 4//2
f 5//3 4//3 6//3
f 5//4 1//4 4//4
f 7//5 6//5 8//5
f 7//6 5//6 6//6
f 9//7 8//7 10//7
f 9//8 10//8 11//8
f 9//9 7//9 8//9
f 12//10 9//10 11//10
f 13//11 12//11 11//11
f 13//12 11//12 14//12
f 15//13 13//13 14//13
f 15//14 14//14 16//14
f 17//15 15//15 16//15
f 17//16 16//16 18//16
f 19//17 17//17 18//17
f 19//18 18//18 20//18
f 19//19 20//19 21//19
f 22//20 19//20 21//20
f 23//21 22//21 21//21
f 23//22 21//22 24//22
f 25//23 23//23 24//23
f 25//24 24//24 26//24
f 27//25 25//25 26//25
f 27//26 26//26 28//26
f 29//27 27//27 28//27
f 29//28 28//28 30//28
f 31//29 29//29 30//29
f 31//30 30//30 32//30
f 33//31 31//31 32//31
f 33//32 32//32 34//32
f 33//33 34//33 35//33
f 36//34 33//34 35//34
f 37//35 36//35 35//35
f 37//36 35//36 38//36
f 37//37 38//37 39//37
f 40//38 37//38 39//38
f 41//39 39//39 42//39
f 41//40 42//40 43//40
f 41//41 40//41 39//41
f 44//42 41//42 43//42
f 45//43 43//43 46//43
f 45//44 46//44 47//44
f 45//45 44//45 43//45
f 48//46 45//46 47//46
f 49//47 47//47 50//47
f 49//48 48//48 47//48
f 51//49 50//49 52//49
f 51//50 52//50 53//50
f 51//51 49//51 50//51
f 54//52 51//52 53//52
f 55//53 53//53 56//53
f 55//54 56//54 57//54
f 55//55 54//55 53//55
f 58//56 55//56 57//56
f 59//57 57//57 60//57
f 59//58 58//58 57//58
f 61//59 60//59 62//59
f 61//60 59//60 60//60
f 63//61 61//61 62//61
f 63//62 62//62 64//62
f 65//63 63//63 64//63
f 65//64 64//64 66//64
f 67//65 65//65 66//65
f 67//66 66//66 68//66
f 69//67 67//67 68//67
f 69//68 68//68 70//68
f 71//69 69//69 70//69
f 71//70 70//70 72//70
f 2//71 71//71 72//71
f 2//72 72//72 3//72
f 41//73 44//73 45//73
f 54//74 48//74 49//74
f 54//75 49//75 51//75
f 58//76 45//76 48//76
f 58//77 54//77 55//77
f 58//78 48//78 54//78
f 33//79 36//79 37//79
f 33//80 37//80 40//80
f 33//81 40//81 41//81
f 63//82 58//82 59//82
f 63//83 59//83 61//83
f 65//84 58//84 63//84
f 25//85 27//85 29//85
f 25//86 29//86 31//86
f 25//87 31//87 33//87
f 25//88 33//88 41//88
f 71//89 67//89 69//89
f 22//90 23//90 25//90
f 22//91 41//91 45//91
f 22//92 45//92 58//92
f 22//93 58//93 65//93
f 22//94 25//94 41//94
f 17//95 19//95 22//95
f 1//96 71//96 2//96
f 7//97 1//97 5//97
f 13//98 15//98 17//98
f 13//99 65//99 67//99
f 13//100 67//100 71//100
f 13//101 22//101 65//101
f 13//102 71//102 1//102
f 13//103 17//103 22//103
f 12//104 7//104 9//104
f 12//105 1//105 7//105
f 12//106 13//106 1//106
f 43//107 42//107 46//107
f 47//108 53//108 50//108
f 50//109 53//109 52//109
f 46//110 57//110 47//110
f 53//111 57//111 56//111
f 47//112 57//112 53//112
f 35//113 34//113 38//113
f 38//114 34//114 39//114
f 39//115 34//115 42//115
f 57//116 64//116 60//116
f 60//117 64//117 62//117
f 57//118 66//118 64//118
f 28//119 26//119 30//119
f 30//120 26//120 32//120
f 32//121 26//121 34//121
f 34//122 26//122 42//122
f 68//123 72//123 70//123
f 24//124 21//124 26//124
f 42//125 21//125 46//125
f 46//126 21//126 57//126
f 57//127 21//127 66//127
f 26//128 21//128 42//128
f 20//129 18//129 21//129
f 72//130 4//130 3//130
f 4//131 8//131 6//131
f 16//132 14//132 18//132
f 66//133 14//133 68//133
f 68//134 14//134 72//134
f 21//135 14//135 66//135
f 72//136 14//136 4//136
f 18//137 14//137 21//137
f 8//138 11//138 10//138
f 4//139 11//139 8//139
f 14//140 11//140 4//140
