# Created by FreeCAD <https://www.freecad.org>
v 2.200000 -0.503420 -0.468457
v 2.200000 -0.530655 -0.436000
v 2.200000 -0.486000 -0.480655
v 2.200000 -0.518457 -0.453420
v 2.200000 -0.539643 -0.416726
v 2.200000 -0.547000 -0.375000
v 2.200000 -0.545147 -0.396185
v 2.200000 -0.466726 -0.489643
v 2.200000 -0.425000 -0.497000
v 2.200000 -0.446185 -0.495147
v 2.200000 -0.545147 0.396185
v 2.200000 -0.539643 0.416726
v 2.200000 -0.547000 0.375000
v 2.200000 -0.530655 0.436000
v 2.200000 -0.518457 0.453420
v 2.200000 -0.503420 0.468457
v 2.200000 0.425000 -0.497000
v 2.200000 0.466726 -0.489643
v 2.200000 0.446185 -0.495147
v 2.200000 -0.486000 0.480655
v 2.200000 0.486000 -0.480655
v 2.200000 0.503420 -0.468457
v 2.200000 -0.446185 0.495147
v 2.200000 -0.425000 0.497000
v 2.200000 -0.466726 0.489643
v 2.200000 0.530655 -0.436000
v 2.200000 0.518457 -0.453420
v 2.200000 0.539643 -0.416726
v 2.200000 0.547000 -0.375000
v 2.200000 0.545147 -0.396185
v 2.200000 0.425000 0.497000
v 2.200000 0.547000 0.375000
v 2.200000 0.539643 0.416726
v 2.200000 0.545147 0.396185
v 2.200000 0.466726 0.489643
v 2.200000 0.503420 0.468457
v 2.200000 0.446185 0.495147
v 2.200000 0.486000 0.480655
v 2.200000 0.518457 0.453420
v 2.200000 0.530655 0.436000
v 2.500000 -0.425000 0.497000
v 2.500000 0.425000 0.497000
v 2.500000 -0.446185 0.495147
v 2.500000 -0.466726 0.489643
v 2.500000 -0.486000 0.480655
v 2.500000 -0.503420 0.468457
v 2.500000 -0.518457 0.453420
v 2.500000 -0.530655 0.436000
v 2.500000 -0.539643 0.416726
v 2.500000 -0.545147 0.396185
v 2.500000 -0.547000 0.375000
v 2.500000 0.446185 0.495147
v 2.500000 0.466726 0.489643
v 2.500000 0.486000 0.480655
v 2.500000 0.503420 0.468457
v 2.500000 0.518457 0.453420
v 2.500000 0.530655 0.436000
v 2.500000 0.539643 0.416726
v 2.500000 0.545147 0.396185
v 2.500000 0.547000 0.375000
v 2.500000 -0.547000 -0.375000
v 2.500000 0.547000 -0.375000
v 2.500000 -0.446185 -0.495147
v 2.500000 -0.425000 -0.497000
v 2.500000 -0.466726 -0.489643
v 2.500000 -0.486000 -0.480655
v 2.500000 -0.503420 -0.468457
v 2.500000 -0.518457 -0.453420
v 2.500000 -0.530655 -0.436000
v 2.500000 -0.539643 -0.416726
v 2.500000 -0.545147 -0.396185
v 2.500000 0.446185 -0.495147
v 2.500000 0.425000 -0.497000
v 2.500000 0.466726 -0.489643
v 2.500000 0.486000 -0.480655
v 2.500000 0.503420 -0.468457
v 2.500000 0.518457 -0.453420
v 2.500000 0.530655 -0.436000
v 2.500000 0.539643 -0.416726
v 2.500000 0.545147 -0.396185
vn -1.000000 0.000000 0.000000
vn -1.000000 0.000000 0.000000
vn -1.000000 0.000000 0.000000
vn -1.000000 0.000000 0.000000
vn -1.000000 0.000000 0.000000
vn -1.000000 0.000000 0.000000
vn -1.000000 0.000000 0.000000
vn -1.000000 0.000000 0.000000
vn -1.000000 0.000000 -0.000000
vn -1.000000 0.000000 -0.000000
vn -1.000000 0.000000 -0.000000
vn -1.000000 0.000000 -0.000000
vn -1.000000 0.000000 0.000000
vn -1.000000 0.000000 -0.000000
vn -1.000000 0.000000 0.000000
vn -1.000000 0.000000 0.000000
vn -1.000000 0.000000 -0.000000
vn -1.000000 0.000000 -0.000000
vn -1.000000 0.000000 0.000000
vn -1.000000 0.000000 0.000000
vn -1.000000 0.000000 0.000000
vn -1.000000 0.000000 -0.000000
vn -1.000000 0.000000 0.000000
vn -1.000000 0.000000 0.000000
vn -1.000000 0.000000 0.000000
vn -1.000000 0.000000 0.000000
vn -1.000000 0.000000 0.000000
vn -1.000000 0.000000 0.000000
vn -1.000000 0.000000 0.000000
vn -1.000000 0.000000 0.000000
vn -1.000000 0.000000 0.000000
vn -1.000000 0.000000 0.000000
vn -1.000000 -0.000000 -0.000000
vn -1.000000 -0.000000 -0.000000
vn -1.000000 0.000000 0.000000
vn -1.000000 -0.000000 -0.000000
vn -1.000000 -0.000000 -0.000000
vn -1.000000 0.000000 0.000000
vn 0.000000 -0.000000 1.000000
vn 0.000000 0.000000 1.000000
vn 0.000000 -0.087156 0.996195
vn 0.000000 -0.258819 0.965926
vn 0.000000 -0.087156 0.996195
vn 0.000000 -0.258819 0.965926
vn 0.000000 -0.422619 0.906308
vn 0.000000 -0.422619 0.906308
vn 0.000000 -0.573577 0.819152
vn 0.000000 -0.573577 0.819152
vn 0.000000 -0.707107 0.707107
vn 0.000000 -0.707107 0.707107
vn 0.000000 -0.819152 0.573576
vn 0.000000 -0.906307 0.422620
vn 0.000000 -0.819152 0.573576
vn 0.000000 -0.906307 0.422620
vn 0.000000 -0.965926 0.258818
vn 0.000000 -0.996195 0.087156
vn 0.000000 -0.965926 0.258818
vn 0.000000 -0.996195 0.087156
vn 0.000000 0.087156 0.996195
vn 0.000000 0.087156 0.996195
vn 0.000000 0.258819 0.965926
vn -0.000000 0.422619 0.906308
vn 0.000000 0.258819 0.965926
vn 0.000000 0.422619 0.906308
vn 0.000000 0.573577 0.819152
vn -0.000000 0.707107 0.707107
vn 0.000000 0.573577 0.819152
vn -0.000000 0.819152 0.573576
vn 0.000000 0.707107 0.707107
vn 0.000000 0.819152 0.573576
vn 0.000000 0.906307 0.422620
vn 0.000000 0.906307 0.422620
vn 0.000000 0.965926 0.258818
vn 0.000000 0.965926 0.258818
vn 0.000000 0.996195 0.087156
vn 0.000000 0.996195 0.087156
vn 0.000000 -1.000000 0.000000
vn 0.000000 -1.000000 0.000000
vn 0.000000 1.000000 0.000000
vn 0.000000 1.000000 -0.000000
vn 0.000000 -0.087156 -0.996195
vn 0.000000 -0.258819 -0.965926
vn -0.000000 -0.087156 -0.996195
vn 0.000000 -0.258819 -0.965926
vn 0.000000 -0.422619 -0.906308
vn -0.000000 -0.422619 -0.906308
vn 0.000000 -0.573577 -0.819152
vn -0.000000 -0.573577 -0.819152
vn 0.000000 -0.707107 -0.707107
vn -0.000000 -0.707107 -0.707107
vn 0.000000 -0.819152 -0.573576
vn 0.000000 -0.906307 -0.422620
vn -0.000000 -0.819152 -0.573576
vn 0.000000 -0.906307 -0.422620
vn 0.000000 -0.965926 -0.258818
vn 0.000000 -0.996195 -0.087156
vn -0.000000 -0.965926 -0.258818
vn 0.000000 -0.996195 -0.087156
vn 0.000000 0.087156 -0.996195
vn 0.000000 0.087156 -0.996195
vn 0.000000 0.258819 -0.965926
vn 0.000000 0.422619 -0.906308
vn 0.000000 0.258819 -0.965926
vn 0.000000 0.422619 -0.906308
vn 0.000000 0.573577 -0.819152
vn 0.000000 0.707107 -0.707107
vn 0.000000 0.573577 -0.819152
vn 0.000000 0.819152 -0.573576
vn 0.000000 0.707107 -0.707107
vn 0.000000 0.819152 -0.573576
vn 0.000000 0.906307 -0.422620
vn 0.000000 0.906307 -0.422620
vn 0.000000 0.965926 -0.258818
vn 0.000000 0.965926 -0.258818
vn 0.000000 0.996195 -0.087156
vn 0.000000 0.996195 -0.087156
vn 0.000000 -0.000000 -1.000000
vn -0.000000 0.000000 -1.000000
vn 1.000000 0.000000 0.000000
vn 1.000000 0.000000 0.000000
vn 1.000000 0.000000 0.000000
vn 1.000000 0.000000 0.000000
vn 1.000000 0.000000 0.000000
vn 1.000000 0.000000 0.000000
vn 1.000000 0.000000 0.000000
vn 1.000000 0.000000 0.000000
vn 1.000000 0.000000 0.000000
vn 1.000000 0.000000 0.000000
vn 1.000000 0.000000 0.000000
vn 1.000000 0.000000 0.000000
vn 1.000000 0.000000 0.000000
vn 1.000000 0.000000 0.000000
vn 1.000000 0.000000 0.000000
vn 1.000000 0.000000 0.000000
vn 1.000000 0.000000 0.000000
vn 1.000000 0.000000 0.000000
vn 1.000000 0.000000 0.000000
vn 1.000000 0.000000 0.000000
vn 1.000000 0.000000 0.000000
vn 1.000000 0.000000 0.000000
vn 1.000000 0.000000 0.000000
vn 1.000000 0.000000 0.000000
vn 1.000000 0.000000 0.000000
vn 1.000000 0.000000 0.000000
vn 1.000000 0.000000 0.000000
vn 1.000000 0.000000 0.000000
vn 1.000000 0.000000 0.000000
vn 1.000000 0.000000 0.000000
vn 1.000000 0.000000 0.000000
vn 1.000000 0.000000 0.000000
vn 1.000000 0.000000 0.000000
vn 1.000000 0.000000 0.000000
vn 1.000000 0.000000 0.000000
vn 1.000000 0.000000 0.000000
vn 1.000000 0.000000 0.000000
vn 1.000000 0.000000 0.000000
f 1//1 2//1 3//1
f 4//2 2//2 1//2
f 5//3 6//3 2//3
f 7//4 6//4 5//4
f 8//5 9//5 10//5
f 3//6 9//6 8//6
f 2//7 9//7 3//7
f 6//8 9//8 2//8
f 11//9 12//9 13//9
f 12//10 14//10 13//10
f 14//11 15//11 13//11
f 15//12 16//12 13//12
f 17//13 18//13 19//13
f 16//14 20//14 13//14
f 17//15 21//15 18//15
f 17//16 22//16 21//16
f 23//17 24//17 25//17
f 25//18 24//18 20//18
f 13//19 24//19 6//19
f 9//20 24//20 17//20
f 6//21 24//21 9//21
f 20//22 24//22 13//22
f 22//23 26//23 27//23
f 22//24 28//24 26//24
f 28//25 29//25 30//25
f 17//26 29//26 22//26
f 22//27 29//27 28//27
f 24//28 31//28 17//28
f 31//29 32//29 17//29
f 17//30 32//30 29//30
f 31//31 33//31 32//31
f 32//32 33//32 34//32
f 35//33 36//33 37//33
f 38//34 36//34 35//34
f 31//35 39//35 33//35
f 36//36 39//36 37//36
f 37//37 39//37 31//37
f 33//38 39//38 40//38
f 41//39 42//39 24//39
f 24//40 42//40 31//40
f 43//41 24//41 23//41
f 43//42 23//42 25//42
f 43//43 41//43 24//43
f 44//44 43//44 25//44
f 45//45 25//45 20//45
f 45//46 44//46 25//46
f 46//47 20//47 16//47
f 46//48 45//48 20//48
f 47//49 16//49 15//49
f 47//50 46//50 16//50
f 48//51 15//51 14//51
f 48//52 14//52 12//52
f 48//53 47//53 15//53
f 49//54 48//54 12//54
f 50//55 12//55 11//55
f 50//56 11//56 13//56
f 50//57 49//57 12//57
f 51//58 50//58 13//58
f 31//59 52//59 37//59
f 42//60 52//60 31//60
f 37//61 53//61 35//61
f 35//62 53//62 38//62
f 52//63 53//63 37//63
f 53//64 54//64 38//64
f 38//65 55//65 36//65
f 36//66 55//66 39//66
f 54//67 55//67 38//67
f 39//68 56//68 40//68
f 55//69 56//69 39//69
f 56//70 57//70 40//70
f 40//71 58//71 33//71
f 57//72 58//72 40//72
f 33//73 59//73 34//73
f 58//74 59//74 33//74
f 34//75 60//75 32//75
f 59//76 60//76 34//76
f 6//77 61//77 13//77
f 13//78 61//78 51//78
f 62//79 29//79 32//79
f 62//80 32//80 60//80
f 9//81 63//81 10//81
f 10//82 63//82 8//82
f 64//83 63//83 9//83
f 63//84 65//84 8//84
f 8//85 66//85 3//85
f 65//86 66//86 8//86
f 3//87 67//87 1//87
f 66//88 67//88 3//88
f 1//89 68//89 4//89
f 67//90 68//90 1//90
f 4//91 69//91 2//91
f 2//92 69//92 5//92
f 68//93 69//93 4//93
f 69//94 70//94 5//94
f 5//95 71//95 7//95
f 7//96 71//96 6//96
f 70//97 71//97 5//97
f 71//98 61//98 6//98
f 72//99 17//99 19//99
f 72//100 73//100 17//100
f 74//101 19//101 18//101
f 74//102 18//102 21//102
f 74//103 72//103 19//103
f 75//104 74//104 21//104
f 76//105 21//105 22//105
f 76//106 22//106 27//106
f 76//107 75//107 21//107
f 77//108 27//108 26//108
f 77//109 76//109 27//109
f 78//110 77//110 26//110
f 79//111 26//111 28//111
f 79//112 78//112 26//112
f 80//113 28//113 30//113
f 80//114 79//114 28//114
f 62//115 30//115 29//115
f 62//116 80//116 30//116
f 73//117 64//117 9//117
f 73//118 9//118 17//118
f 69//119 67//119 66//119
f 69//120 68//120 67//120
f 61//121 70//121 69//121
f 61//122 71//122 70//122
f 64//123 65//123 63//123
f 64//124 66//124 65//124
f 64//125 69//125 66//125
f 64//126 61//126 69//126
f 49//127 50//127 51//127
f 48//128 49//128 51//128
f 47//129 48//129 51//129
f 46//130 47//130 51//130
f 74//131 73//131 72//131
f 45//132 46//132 51//132
f 75//133 73//133 74//133
f 76//134 73//134 75//134
f 41//135 43//135 44//135
f 41//136 44//136 45//136
f 41//137 51//137 61//137
f 41//138 64//138 73//138
f 41//139 61//139 64//139
f 41//140 45//140 51//140
f 78//141 76//141 77//141
f 79//142 76//142 78//142
f 62//143 79//143 80//143
f 62//144 73//144 76//144
f 62//145 76//145 79//145
f 42//146 41//146 73//146
f 60//147 42//147 73//147
f 60//148 73//148 62//148
f 58//149 42//149 60//149
f 58//150 60//150 59//150
f 55//151 53//151 52//151
f 55//152 54//152 53//152
f 56//153 42//153 58//153
f 56//154 55//154 52//154
f 56//155 52//155 42//155
f 56//156 58//156 57//156
