# Created by FreeCAD <https://www.freecad.org>
v 2.500000 -0.518457 -0.453420
v 2.500000 -0.426532 -0.376286
v 2.500000 -0.503420 -0.468457
v 2.500000 -0.426286 -0.376532
v 2.500000 -0.530655 -0.436000
v 2.500000 -0.426732 -0.376000
v 2.500000 -0.539643 -0.416726
v 2.500000 -0.426000 -0.376732
v 2.500000 -0.486000 -0.480655
v 2.500000 -0.425684 -0.376879
v 2.500000 -0.466726 -0.489643
v 2.500000 -0.426879 -0.375684
v 2.500000 -0.425347 -0.376970
v 2.500000 -0.446185 -0.495147
v 2.500000 -0.426970 -0.375347
v 2.500000 -0.545147 -0.396185
v 2.500000 -0.425000 -0.377000
v 2.500000 -0.425000 -0.497000
v 2.500000 -0.427000 -0.375000
v 2.500000 -0.547000 -0.375000
v 2.500000 -0.547000 0.375000
v 2.500000 -0.427000 0.375000
v 2.500000 -0.545147 0.396185
v 2.500000 -0.426970 0.375347
v 2.500000 -0.539643 0.416726
v 2.500000 -0.426879 0.375684
v 2.500000 -0.530655 0.436000
v 2.500000 -0.426732 0.376000
v 2.500000 -0.518457 0.453420
v 2.500000 -0.426532 0.376286
v 2.500000 -0.503420 0.468457
v 2.500000 -0.426286 0.376532
v 2.500000 -0.486000 0.480655
v 2.500000 -0.426000 0.376732
v 2.500000 -0.466726 0.489643
v 2.500000 -0.425684 0.376879
v 2.500000 0.425000 -0.377000
v 2.500000 0.425000 -0.497000
v 2.500000 0.425347 -0.376970
v 2.500000 0.446185 -0.495147
v 2.500000 0.425684 -0.376879
v 2.500000 0.466726 -0.489643
v 2.500000 0.486000 -0.480655
v 2.500000 -0.425347 0.376970
v 2.500000 -0.446185 0.495147
v 2.500000 -0.425000 0.377000
v 2.500000 0.426000 -0.376732
v 2.500000 0.426286 -0.376532
v 2.500000 0.503420 -0.468457
v 2.500000 0.426532 -0.376286
v 2.500000 0.518457 -0.453420
v 2.500000 0.426732 -0.376000
v 2.500000 -0.425000 0.497000
v 2.500000 0.530655 -0.436000
v 2.500000 0.426879 -0.375684
v 2.500000 0.539643 -0.416726
v 2.500000 0.426970 -0.375347
v 2.500000 0.545147 -0.396185
v 2.500000 0.427000 -0.375000
v 2.500000 0.547000 -0.375000
v 2.500000 0.425000 0.497000
v 2.500000 0.425000 0.377000
v 2.500000 0.425347 0.376970
v 2.500000 0.547000 0.375000
v 2.500000 0.427000 0.375000
v 2.500000 0.446185 0.495147
v 2.500000 0.425684 0.376879
v 2.500000 0.545147 0.396185
v 2.500000 0.426970 0.375347
v 2.500000 0.426879 0.375684
v 2.500000 0.466726 0.489643
v 2.500000 0.426732 0.376000
v 2.500000 0.539643 0.416726
v 2.500000 0.486000 0.480655
v 2.500000 0.426000 0.376732
v 2.500000 0.530655 0.436000
v 2.500000 0.503420 0.468457
v 2.500000 0.426286 0.376532
v 2.500000 0.518457 0.453420
v 2.500000 0.426532 0.376286
v 2.550000 -0.425000 0.497000
v 2.550000 0.425000 0.497000
v 2.550000 -0.446185 0.495147
v 2.550000 -0.466726 0.489643
v 2.550000 -0.486000 0.480655
v 2.550000 -0.503420 0.468457
v 2.550000 -0.518457 0.453420
v 2.550000 -0.530655 0.436000
v 2.550000 -0.539643 0.416726
v 2.550000 -0.545147 0.396185
v 2.550000 -0.547000 0.375000
v 2.550000 0.446185 0.495147
v 2.550000 0.466726 0.489643
v 2.550000 0.486000 0.480655
v 2.550000 0.503420 0.468457
v 2.550000 0.518457 0.453420
v 2.550000 0.530655 0.436000
v 2.550000 0.539643 0.416726
v 2.550000 0.545147 0.396185
v 2.550000 0.547000 0.375000
v 2.550000 -0.547000 -0.375000
v 2.550000 0.547000 -0.375000
v 2.550000 -0.446185 -0.495147
v 2.550000 -0.425000 -0.497000
v 2.550000 -0.466726 -0.489643
v 2.550000 -0.486000 -0.480655
v 2.550000 -0.503420 -0.468457
v 2.550000 -0.518457 -0.453420
v 2.550000 -0.530655 -0.436000
v 2.550000 -0.539643 -0.416726
v 2.550000 -0.545147 -0.396185
v 2.550000 0.446185 -0.495147
v 2.550000 0.425000 -0.497000
v 2.550000 0.466726 -0.489643
v 2.550000 0.486000 -0.480655
v 2.550000 0.503420 -0.468457
v 2.550000 0.518457 -0.453420
v 2.550000 0.530655 -0.436000
v 2.550000 0.539643 -0.416726
v 2.550000 0.545147 -0.396185
v 2.550000 -0.425000 0.377000
v 2.550000 -0.425347 0.376970
v 2.550000 -0.425684 0.376879
v 2.550000 -0.426000 0.376732
v 2.550000 -0.426286 0.376532
v 2.550000 -0.426532 0.376286
v 2.550000 -0.426732 0.376000
v 2.550000 -0.426879 0.375684
v 2.550000 -0.426970 0.375347
v 2.550000 -0.427000 0.375000
v 2.550000 -0.427000 -0.375000
v 2.550000 -0.425347 -0.376970
v 2.550000 -0.425000 -0.377000
v 2.550000 -0.425684 -0.376879
v 2.550000 -0.426000 -0.376732
v 2.550000 -0.426286 -0.376532
v 2.550000 -0.426532 -0.376286
v 2.550000 -0.426732 -0.376000
v 2.550000 -0.426879 -0.375684
v 2.550000 -0.426970 -0.375347
v 2.550000 0.425000 -0.377000
v 2.550000 0.425347 -0.376970
v 2.550000 0.425684 -0.376879
v 2.550000 0.426000 -0.376732
v 2.550000 0.426286 -0.376532
v 2.550000 0.426532 -0.376286
v 2.550000 0.426732 -0.376000
v 2.550000 0.426879 -0.375684
v 2.550000 0.426970 -0.375347
v 2.550000 0.427000 -0.375000
v 2.550000 0.427000 0.375000
v 2.550000 0.425347 0.376970
v 2.550000 0.425000 0.377000
v 2.550000 0.425684 0.376879
v 2.550000 0.426000 0.376732
v 2.550000 0.426286 0.376532
v 2.550000 0.426532 0.376286
v 2.550000 0.426732 0.376000
v 2.550000 0.426879 0.375684
v 2.550000 0.426970 0.375347
vn -1.000000 0.000000 0.000000
vn -1.000000 0.000000 0.000000
vn -1.000000 0.000000 0.000000
vn -1.000000 0.000000 0.000000
vn -1.000000 0.000000 0.000000
vn -1.000000 0.000000 0.000000
vn -1.000000 0.000000 -0.000000
vn -1.000000 0.000000 0.000000
vn -1.000000 0.000000 -0.000000
vn -1.000000 0.000000 0.000000
vn -1.000000 0.000000 -0.000000
vn -1.000000 0.000000 0.000000
vn -1.000000 0.000000 0.000000
vn -1.000000 0.000000 0.000000
vn -1.000000 0.000000 0.000000
vn -1.000000 0.000000 -0.000000
vn -1.000000 0.000000 0.000000
vn -1.000000 0.000000 0.000000
vn -1.000000 0.000000 0.000000
vn -1.000000 0.000000 0.000000
vn -1.000000 0.000000 -0.000000
vn -1.000000 0.000000 0.000000
vn -1.000000 0.000000 -0.000000
vn -1.000000 0.000000 0.000000
vn -1.000000 0.000000 -0.000000
vn -1.000000 0.000000 0.000000
vn -1.000000 0.000000 -0.000000
vn -1.000000 0.000000 0.000000
vn -1.000000 0.000000 0.000000
vn -1.000000 0.000000 0.000000
vn -1.000000 0.000000 0.000000
vn -1.000000 0.000000 0.000000
vn -1.000000 0.000000 0.000000
vn -1.000000 0.000000 0.000000
vn -1.000000 0.000000 0.000000
vn -1.000000 0.000000 0.000000
vn -1.000000 0.000000 0.000000
vn -1.000000 0.000000 0.000000
vn -1.000000 0.000000 0.000000
vn -1.000000 0.000000 0.000000
vn -1.000000 0.000000 0.000000
vn -1.000000 0.000000 0.000000
vn -1.000000 0.000000 0.000000
vn -1.000000 0.000000 0.000000
vn -1.000000 0.000000 0.000000
vn -1.000000 0.000000 0.000000
vn -1.000000 0.000000 0.000000
vn -1.000000 0.000000 -0.000000
vn -1.000000 0.000000 -0.000000
vn -1.000000 0.000000 0.000000
vn -1.000000 0.000000 0.000000
vn -1.000000 0.000000 0.000000
vn -1.000000 0.000000 -0.000000
vn -1.000000 0.000000 -0.000000
vn -1.000000 0.000000 0.000000
vn -1.000000 0.000000 0.000000
vn -1.000000 0.000000 -0.000000
vn -1.000000 0.000000 0.000000
vn -1.000000 0.000000 0.000000
vn -1.000000 0.000000 0.000000
vn -1.000000 0.000000 0.000000
vn -1.000000 0.000000 0.000000
vn -1.000000 0.000000 0.000000
vn -1.000000 0.000000 0.000000
vn -1.000000 0.000000 0.000000
vn -1.000000 0.000000 0.000000
vn -1.000000 0.000000 0.000000
vn -1.000000 0.000000 0.000000
vn -1.000000 0.000000 -0.000000
vn -1.000000 0.000000 0.000000
vn -1.000000 0.000000 0.000000
vn -1.000000 0.000000 -0.000000
vn -1.000000 0.000000 0.000000
vn -1.000000 0.000000 0.000000
vn -1.000000 0.000000 -0.000000
vn -1.000000 0.000000 0.000000
vn -1.000000 0.000000 0.000000
vn -1.000000 0.000000 -0.000000
vn -1.000000 0.000000 0.000000
vn -1.000000 0.000000 0.000000
vn 0.000000 0.000000 1.000000
vn 0.000000 -0.000000 1.000000
vn 0.000000 -0.087156 0.996195
vn 0.000000 -0.087156 0.996195
vn 0.000000 -0.258819 0.965926
vn 0.000000 -0.422619 0.906308
vn 0.000000 -0.258819 0.965926
vn 0.000000 -0.573577 0.819152
vn 0.000000 -0.422619 0.906308
vn 0.000000 -0.573577 0.819152
vn 0.000000 -0.707107 0.707107
vn 0.000000 -0.707107 0.707107
vn 0.000000 -0.819152 0.573576
vn 0.000000 -0.819152 0.573576
vn 0.000000 -0.906307 0.422620
vn 0.000000 -0.906307 0.422620
vn 0.000000 -0.965926 0.258818
vn 0.000000 -0.965926 0.258818
vn 0.000000 -0.996195 0.087156
vn 0.000000 -0.996195 0.087156
vn 0.000000 0.087156 0.996195
vn 0.000000 0.087156 0.996195
vn 0.000000 0.258819 0.965926
vn -0.000000 0.422619 0.906308
vn 0.000000 0.258819 0.965926
vn 0.000000 0.422619 0.906308
vn 0.000000 0.573577 0.819152
vn 0.000000 0.573577 0.819152
vn 0.000000 0.707107 0.707107
vn -0.000000 0.819152 0.573576
vn 0.000000 0.707107 0.707107
vn 0.000000 0.819152 0.573576
vn 0.000000 0.906307 0.422620
vn 0.000000 0.906307 0.422620
vn 0.000000 0.965926 0.258818
vn -0.000000 0.996195 0.087156
vn 0.000000 0.965926 0.258818
vn 0.000000 0.996195 0.087156
vn 0.000000 -1.000000 0.000000
vn 0.000000 -1.000000 0.000000
vn 0.000000 1.000000 0.000000
vn 0.000000 1.000000 -0.000000
vn 0.000000 -0.087156 -0.996195
vn -0.000000 -0.087156 -0.996195
vn 0.000000 -0.258819 -0.965926
vn 0.000000 -0.422619 -0.906308
vn -0.000000 -0.258819 -0.965926
vn 0.000000 -0.573577 -0.819152
vn 0.000000 -0.422619 -0.906308
vn 0.000000 -0.573577 -0.819152
vn 0.000000 -0.707107 -0.707107
vn -0.000000 -0.707107 -0.707107
vn 0.000000 -0.819152 -0.573576
vn -0.000000 -0.819152 -0.573576
vn 0.000000 -0.906307 -0.422620
vn -0.000000 -0.906307 -0.422620
vn 0.000000 -0.965926 -0.258818
vn -0.000000 -0.965926 -0.258818
vn 0.000000 -0.996195 -0.087156
vn -0.000000 -0.996195 -0.087156
vn 0.000000 0.087156 -0.996195
vn 0.000000 0.087156 -0.996195
vn 0.000000 0.258819 -0.965926
vn 0.000000 0.422619 -0.906308
vn 0.000000 0.258819 -0.965926
vn 0.000000 0.422619 -0.906308
vn 0.000000 0.573577 -0.819152
vn 0.000000 0.573577 -0.819152
vn 0.000000 0.707107 -0.707107
vn 0.000000 0.819152 -0.573576
vn 0.000000 0.707107 -0.707107
vn 0.000000 0.819152 -0.573576
vn 0.000000 0.906307 -0.422620
vn 0.000000 0.906307 -0.422620
vn 0.000000 0.965926 -0.258818
vn 0.000000 0.996195 -0.087156
vn 0.000000 0.965926 -0.258818
vn 0.000000 0.996195 -0.087156
vn 0.000000 0.000000 -1.000000
vn -0.000000 -0.000000 -1.000000
vn 0.000000 0.087198 -0.996191
vn 0.000000 0.087198 -0.996191
vn 0.000000 0.258753 -0.965943
vn 0.000000 0.258753 -0.965943
vn 0.000000 0.422665 -0.906286
vn 0.000000 0.422665 -0.906286
vn 0.000000 0.573571 -0.819156
vn 0.000000 0.707150 -0.707064
vn 0.000000 0.573571 -0.819156
vn 0.000000 0.707150 -0.707064
vn 0.000000 0.819115 -0.573629
vn 0.000000 0.906286 -0.422665
vn 0.000000 0.819115 -0.573629
vn 0.000000 0.906286 -0.422665
vn 0.000000 0.965943 -0.258753
vn 0.000000 0.996198 -0.087113
vn 0.000000 0.965943 -0.258753
vn 0.000000 0.996198 -0.087113
vn 0.000000 1.000000 0.000000
vn 0.000000 1.000000 -0.000000
vn 0.000000 0.087198 0.996191
vn 0.000000 0.087198 0.996191
vn 0.000000 0.258753 0.965943
vn 0.000000 0.258753 0.965943
vn 0.000000 0.573571 0.819156
vn 0.000000 0.422665 0.906286
vn 0.000000 0.422665 0.906286
vn 0.000000 0.573571 0.819156
vn 0.000000 0.707150 0.707064
vn 0.000000 0.707150 0.707064
vn 0.000000 0.906286 0.422665
vn 0.000000 0.819115 0.573629
vn 0.000000 0.819115 0.573629
vn 0.000000 0.906286 0.422665
vn 0.000000 0.965943 0.258753
vn 0.000000 0.965943 0.258753
vn 0.000000 0.996198 0.087113
vn 0.000000 0.996198 0.087113
vn 0.000000 0.000000 1.000000
vn 0.000000 -0.000000 1.000000
vn 0.000000 -0.087198 0.996191
vn 0.000000 -0.087198 0.996191
vn 0.000000 -0.258753 0.965943
vn 0.000000 -0.258753 0.965943
vn 0.000000 -0.422665 0.906286
vn 0.000000 -0.422665 0.906286
vn 0.000000 -0.573571 0.819156
vn 0.000000 -0.707150 0.707064
vn 0.000000 -0.573571 0.819156
vn 0.000000 -0.707150 0.707064
vn 0.000000 -0.819115 0.573629
vn 0.000000 -0.906286 0.422665
vn 0.000000 -0.819115 0.573629
vn 0.000000 -0.906286 0.422665
vn 0.000000 -0.965943 0.258753
vn 0.000000 -0.996198 0.087113
vn 0.000000 -0.965943 0.258753
vn 0.000000 -0.996198 0.087113
vn 0.000000 -1.000000 0.000000
vn 0.000000 -1.000000 0.000000
vn 0.000000 -0.087198 -0.996191
vn -0.000000 -0.087198 -0.996191
vn -0.000000 -0.258753 -0.965943
vn 0.000000 -0.258753 -0.965943
vn -0.000000 -0.573571 -0.819156
vn -0.000000 -0.422665 -0.906286
vn 0.000000 -0.422665 -0.906286
vn -0.000000 -0.573571 -0.819156
vn -0.000000 -0.707150 -0.707064
vn 0.000000 -0.707150 -0.707064
vn -0.000000 -0.906286 -0.422665
vn -0.000000 -0.819115 -0.573629
vn 0.000000 -0.819115 -0.573629
vn -0.000000 -0.906286 -0.422665
vn -0.000000 -0.965943 -0.258753
vn 0.000000 -0.965943 -0.258753
vn -0.000000 -0.996198 -0.087113
vn 0.000000 -0.996198 -0.087113
vn 0.000000 0.000000 -1.000000
vn -0.000000 -0.000000 -1.000000
vn 1.000000 0.000000 0.000000
vn 1.000000 0.000000 0.000000
vn 1.000000 0.000000 0.000000
vn 1.000000 0.000000 0.000000
vn 1.000000 0.000000 0.000000
vn 1.000000 0.000000 0.000000
vn 1.000000 0.000000 0.000000
vn 1.000000 0.000000 0.000000
vn 1.000000 0.000000 0.000000
vn 1.000000 0.000000 0.000000
vn 1.000000 0.000000 0.000000
vn 1.000000 0.000000 0.000000
vn 1.000000 0.000000 0.000000
vn 1.000000 0.000000 0.000000
vn 1.000000 0.000000 0.000000
vn 1.000000 0.000000 0.000000
vn 1.000000 0.000000 0.000000
vn 1.000000 0.000000 0.000000
vn 1.000000 0.000000 0.000000
vn 1.000000 0.000000 0.000000
vn 1.000000 0.000000 0.000000
vn 1.000000 0.000000 0.000000
vn 1.000000 0.000000 0.000000
vn 1.000000 0.000000 0.000000
vn 1.000000 0.000000 0.000000
vn 1.000000 0.000000 0.000000
vn 1.000000 0.000000 0.000000
vn 1.000000 0.000000 0.000000
vn 1.000000 0.000000 0.000000
vn 1.000000 0.000000 0.000000
vn 1.000000 0.000000 0.000000
vn 1.000000 0.000000 0.000000
vn 1.000000 0.000000 0.000000
vn 1.000000 0.000000 0.000000
vn 1.000000 0.000000 0.000000
vn 1.000000 0.000000 0.000000
vn 1.000000 0.000000 0.000000
vn 1.000000 0.000000 0.000000
vn 1.000000 0.000000 0.000000
vn 1.000000 0.000000 0.000000
vn 1.000000 0.000000 0.000000
vn 1.000000 0.000000 0.000000
vn 1.000000 0.000000 0.000000
vn 1.000000 0.000000 0.000000
vn 1.000000 0.000000 0.000000
vn 1.000000 0.000000 0.000000
vn 1.000000 0.000000 0.000000
vn 1.000000 0.000000 0.000000
vn 1.000000 0.000000 0.000000
vn 1.000000 0.000000 0.000000
vn 1.000000 0.000000 0.000000
vn 1.000000 0.000000 0.000000
vn 1.000000 0.000000 0.000000
vn 1.000000 0.000000 0.000000
vn 1.000000 0.000000 0.000000
vn 1.000000 0.000000 0.000000
vn 1.000000 0.000000 0.000000
vn 1.000000 0.000000 0.000000
vn 1.000000 0.000000 0.000000
vn 1.000000 0.000000 0.000000
vn 1.000000 0.000000 0.000000
vn 1.000000 0.000000 0.000000
vn 1.000000 0.000000 0.000000
vn 1.000000 0.000000 0.000000
vn 1.000000 0.000000 0.000000
vn 1.000000 0.000000 0.000000
vn 1.000000 0.000000 0.000000
vn 1.000000 0.000000 0.000000
vn 1.000000 0.000000 0.000000
vn 1.000000 0.000000 0.000000
vn 1.000000 0.000000 0.000000
vn 1.000000 0.000000 0.000000
vn 1.000000 0.000000 0.000000
vn 1.000000 0.000000 0.000000
vn 1.000000 0.000000 0.000000
vn 1.000000 0.000000 0.000000
vn 1.000000 0.000000 0.000000
vn 1.000000 0.000000 0.000000
vn 1.000000 0.000000 0.000000
vn 1.000000 0.000000 0.000000
f 1//1 2//1 3//1
f 3//2 2//2 4//2
f 5//3 6//3 1//3
f 7//4 6//4 5//4
f 1//5 6//5 2//5
f 3//6 8//6 9//6
f 4//7 8//7 3//7
f 9//8 10//8 11//8
f 8//9 10//9 9//9
f 7//10 12//10 6//10
f 10//11 13//11 11//11
f 11//12 13//12 14//12
f 7//13 15//13 12//13
f 16//14 15//14 7//14
f 14//15 17//15 18//15
f 13//16 17//16 14//16
f 16//17 19//17 15//17
f 20//18 19//18 16//18
f 20//19 21//19 19//19
f 21//20 22//20 19//20
f 23//21 24//21 21//21
f 21//22 24//22 22//22
f 25//23 26//23 23//23
f 23//24 26//24 24//24
f 27//25 28//25 25//25
f 25//26 28//26 26//26
f 29//27 30//27 27//27
f 27//28 30//28 28//28
f 29//29 31//29 30//29
f 30//30 31//30 32//30
f 32//31 33//31 34//31
f 31//32 33//32 32//32
f 34//33 35//33 36//33
f 33//34 35//34 34//34
f 18//35 37//35 38//35
f 17//36 37//36 18//36
f 38//37 39//37 40//37
f 37//38 39//38 38//38
f 40//39 41//39 42//39
f 42//40 41//40 43//40
f 39//41 41//41 40//41
f 44//42 45//42 46//42
f 36//43 45//43 44//43
f 35//44 45//44 36//44
f 41//45 47//45 43//45
f 43//46 48//46 49//46
f 47//47 48//47 43//47
f 50//48 51//48 48//48
f 52//49 51//49 50//49
f 48//50 51//50 49//50
f 45//51 53//51 46//51
f 52//52 54//52 51//52
f 55//53 56//53 52//53
f 57//54 56//54 55//54
f 52//55 56//55 54//55
f 57//56 58//56 56//56
f 59//57 58//57 57//57
f 59//58 60//58 58//58
f 46//59 61//59 62//59
f 62//60 61//60 63//60
f 53//61 61//61 46//61
f 59//62 64//62 60//62
f 65//63 64//63 59//63
f 61//64 66//64 63//64
f 63//65 66//65 67//65
f 65//66 68//66 64//66
f 69//67 68//67 65//67
f 70//68 68//68 69//68
f 66//69 71//69 67//69
f 72//70 73//70 70//70
f 70//71 73//71 68//71
f 71//72 74//72 67//72
f 67//73 74//73 75//73
f 72//74 76//74 73//74
f 74//75 77//75 75//75
f 75//76 77//76 78//76
f 72//77 79//77 76//77
f 77//78 79//78 78//78
f 80//79 79//79 72//79
f 78//80 79//80 80//80
f 81//81 61//81 53//81
f 81//82 82//82 61//82
f 83//83 53//83 45//83
f 83//84 81//84 53//84
f 84//85 45//85 35//85
f 84//86 35//86 33//86
f 84//87 83//87 45//87
f 85//88 33//88 31//88
f 85//89 84//89 33//89
f 86//90 85//90 31//90
f 87//91 31//91 29//91
f 87//92 86//92 31//92
f 88//93 29//93 27//93
f 88//94 87//94 29//94
f 89//95 27//95 25//95
f 89//96 88//96 27//96
f 90//97 25//97 23//97
f 90//98 89//98 25//98
f 91//99 23//99 21//99
f 91//100 90//100 23//100
f 61//101 92//101 66//101
f 82//102 92//102 61//102
f 66//103 93//103 71//103
f 71//104 93//104 74//104
f 92//105 93//105 66//105
f 93//106 94//106 74//106
f 74//107 95//107 77//107
f 94//108 95//108 74//108
f 77//109 96//109 79//109
f 79//110 96//110 76//110
f 95//111 96//111 77//111
f 96//112 97//112 76//112
f 76//113 98//113 73//113
f 97//114 98//114 76//114
f 73//115 99//115 68//115
f 68//116 99//116 64//116
f 98//117 99//117 73//117
f 99//118 100//118 64//118
f 20//119 101//119 21//119
f 21//120 101//120 91//120
f 102//121 60//121 64//121
f 102//122 64//122 100//122
f 18//123 103//123 14//123
f 104//124 103//124 18//124
f 14//125 105//125 11//125
f 11//126 105//126 9//126
f 103//127 105//127 14//127
f 9//128 106//128 3//128
f 105//129 106//129 9//129
f 106//130 107//130 3//130
f 3//131 108//131 1//131
f 107//132 108//132 3//132
f 1//133 109//133 5//133
f 108//134 109//134 1//134
f 5//135 110//135 7//135
f 109//136 110//136 5//136
f 7//137 111//137 16//137
f 110//138 111//138 7//138
f 16//139 101//139 20//139
f 111//140 101//140 16//140
f 112//141 38//141 40//141
f 112//142 113//142 38//142
f 114//143 40//143 42//143
f 114//144 42//144 43//144
f 114//145 112//145 40//145
f 115//146 114//146 43//146
f 116//147 43//147 49//147
f 116//148 115//148 43//148
f 117//149 49//149 51//149
f 117//150 51//150 54//150
f 117//151 116//151 49//151
f 118//152 117//152 54//152
f 119//153 54//153 56//153
f 119//154 118//154 54//154
f 120//155 56//155 58//155
f 120//156 58//156 60//156
f 120//157 119//157 56//157
f 102//158 120//158 60//158
f 38//159 104//159 18//159
f 113//160 104//160 38//160
f 121//161 122//161 46//161
f 46//162 122//162 44//162
f 44//163 123//163 36//163
f 122//164 123//164 44//164
f 36//165 124//165 34//165
f 123//166 124//166 36//166
f 34//167 125//167 32//167
f 32//168 125//168 30//168
f 124//169 125//169 34//169
f 125//170 126//170 30//170
f 30//171 127//171 28//171
f 28//172 127//172 26//172
f 126//173 127//173 30//173
f 127//174 128//174 26//174
f 26//175 129//175 24//175
f 24//176 129//176 22//176
f 128//177 129//177 26//177
f 129//178 130//178 22//178
f 131//179 19//179 22//179
f 131//180 22//180 130//180
f 132//181 133//181 17//181
f 132//182 17//182 13//182
f 134//183 13//183 10//183
f 134//184 132//184 13//184
f 135//185 8//185 4//185
f 135//186 10//186 8//186
f 135//187 134//187 10//187
f 136//188 135//188 4//188
f 137//189 4//189 2//189
f 137//190 136//190 4//190
f 138//191 6//191 12//191
f 138//192 2//192 6//192
f 138//193 137//193 2//193
f 139//194 138//194 12//194
f 140//195 12//195 15//195
f 140//196 139//196 12//196
f 131//197 15//197 19//197
f 131//198 140//198 15//198
f 133//199 37//199 17//199
f 133//200 141//200 37//200
f 141//201 142//201 37//201
f 37//202 142//202 39//202
f 39//203 143//203 41//203
f 142//204 143//204 39//204
f 41//205 144//205 47//205
f 143//206 144//206 41//206
f 47//207 145//207 48//207
f 48//208 145//208 50//208
f 144//209 145//209 47//209
f 145//210 146//210 50//210
f 50//211 147//211 52//211
f 52//212 147//212 55//212
f 146//213 147//213 50//213
f 147//214 148//214 55//214
f 55//215 149//215 57//215
f 57//216 149//216 59//216
f 148//217 149//217 55//217
f 149//218 150//218 59//218
f 59//219 150//219 65//219
f 65//220 150//220 151//220
f 152//221 153//221 62//221
f 152//222 62//222 63//222
f 154//223 63//223 67//223
f 154//224 152//224 63//224
f 155//225 75//225 78//225
f 155//226 67//226 75//226
f 155//227 154//227 67//227
f 156//228 155//228 78//228
f 157//229 78//229 80//229
f 157//230 156//230 78//230
f 158//231 72//231 70//231
f 158//232 80//232 72//232
f 158//233 157//233 80//233
f 159//234 158//234 70//234
f 160//235 70//235 69//235
f 160//236 159//236 70//236
f 151//237 69//237 65//237
f 151//238 160//238 69//238
f 62//239 121//239 46//239
f 153//240 121//240 62//240
f 137//241 108//241 107//241
f 137//242 107//242 136//242
f 138//243 109//243 108//243
f 138//244 110//244 109//244
f 138//245 108//245 137//245
f 135//246 107//246 106//246
f 135//247 136//247 107//247
f 134//248 106//248 105//248
f 134//249 135//249 106//249
f 139//250 110//250 138//250
f 132//251 134//251 105//251
f 132//252 105//252 103//252
f 140//253 110//253 139//253
f 140//254 111//254 110//254
f 133//255 103//255 104//255
f 133//256 132//256 103//256
f 131//257 111//257 140//257
f 131//258 101//258 111//258
f 91//259 101//259 131//259
f 130//260 91//260 131//260
f 129//261 90//261 91//261
f 129//262 91//262 130//262
f 128//263 89//263 90//263
f 128//264 90//264 129//264
f 127//265 88//265 89//265
f 127//266 89//266 128//266
f 126//267 87//267 88//267
f 126//268 88//268 127//268
f 86//269 87//269 126//269
f 86//270 126//270 125//270
f 85//271 125//271 124//271
f 85//272 86//272 125//272
f 84//273 124//273 123//273
f 84//274 85//274 124//274
f 141//275 104//275 113//275
f 141//276 133//276 104//276
f 142//277 113//277 112//277
f 142//278 141//278 113//278
f 143//279 112//279 114//279
f 143//280 114//280 115//280
f 143//281 142//281 112//281
f 83//282 122//282 121//282
f 83//283 123//283 122//283
f 83//284 84//284 123//284
f 144//285 143//285 115//285
f 145//286 115//286 116//286
f 145//287 144//287 115//287
f 117//288 146//288 145//288
f 117//289 147//289 146//289
f 117//290 145//290 116//290
f 81//291 83//291 121//291
f 118//292 147//292 117//292
f 119//293 148//293 147//293
f 119//294 149//294 148//294
f 119//295 147//295 118//295
f 120//296 149//296 119//296
f 120//297 150//297 149//297
f 102//298 150//298 120//298
f 82//299 121//299 153//299
f 82//300 153//300 152//300
f 82//301 81//301 121//301
f 100//302 150//302 102//302
f 100//303 151//303 150//303
f 92//304 82//304 152//304
f 92//305 152//305 154//305
f 99//306 151//306 100//306
f 99//307 160//307 151//307
f 99//308 159//308 160//308
f 93//309 92//309 154//309
f 98//310 158//310 159//310
f 98//311 159//311 99//311
f 94//312 93//312 154//312
f 94//313 154//313 155//313
f 97//314 158//314 98//314
f 95//315 94//315 155//315
f 95//316 155//316 156//316
f 96//317 158//317 97//317
f 96//318 95//318 156//318
f 96//319 157//319 158//319
f 96//320 156//320 157//320
