# Created by FreeCAD <https://www.freecad.org>
v 0.040000 -0.543530 -0.511791
v 0.040000 -0.509205 -0.475352
v 0.040000 -0.522856 -0.527267
v 0.040000 -0.561791 -0.493530
v 0.040000 -0.525352 -0.459205
v 0.040000 -0.577267 -0.472856
v 0.040000 -0.490500 -0.488449
v 0.040000 -0.500190 -0.539643
v 0.040000 -0.538449 -0.440500
v 0.040000 -0.589643 -0.450190
v 0.040000 -0.469805 -0.498100
v 0.040000 -0.475994 -0.548668
v 0.040000 -0.598668 -0.425994
v 0.040000 -0.548100 -0.419805
v 0.040000 -0.447748 -0.504010
v 0.040000 -0.450759 -0.554158
v 0.040000 -0.554010 -0.397748
v 0.040000 -0.604158 -0.400759
v 0.040000 -0.425000 -0.506000
v 0.040000 -0.425000 -0.556000
v 0.040000 -0.606000 -0.375000
v 0.040000 -0.556000 -0.375000
v 0.040000 -0.604158 0.400759
v 0.040000 -0.556000 0.375000
v 0.040000 -0.606000 0.375000
v 0.040000 -0.598668 0.425994
v 0.040000 -0.554010 0.397748
v 0.040000 -0.589643 0.450190
v 0.040000 -0.548100 0.419805
v 0.040000 -0.577267 0.472856
v 0.040000 -0.538449 0.440500
v 0.040000 0.425000 -0.506000
v 0.040000 0.425000 -0.556000
v 0.040000 0.450759 -0.554158
v 0.040000 -0.561791 0.493530
v 0.040000 -0.525352 0.459205
v 0.040000 0.447748 -0.504010
v 0.040000 0.475994 -0.548668
v 0.040000 -0.509205 0.475352
v 0.040000 -0.543530 0.511791
v 0.040000 0.469805 -0.498100
v 0.040000 0.500190 -0.539643
v 0.040000 0.490500 -0.488449
v 0.040000 0.522856 -0.527267
v 0.040000 -0.522856 0.527267
v 0.040000 -0.490500 0.488449
v 0.040000 0.509205 -0.475352
v 0.040000 0.543530 -0.511791
v 0.040000 -0.500190 0.539643
v 0.040000 -0.469805 0.498100
v 0.040000 0.525352 -0.459205
v 0.040000 0.561791 -0.493530
v 0.040000 -0.475994 0.548668
v 0.040000 -0.447748 0.504010
v 0.040000 -0.450759 0.554158
v 0.040000 -0.425000 0.506000
v 0.040000 0.538449 -0.440500
v 0.040000 0.577267 -0.472856
v 0.040000 -0.425000 0.556000
v 0.040000 0.589643 -0.450190
v 0.040000 0.548100 -0.419805
v 0.040000 0.598668 -0.425994
v 0.040000 0.554010 -0.397748
v 0.040000 0.604158 -0.400759
v 0.040000 0.556000 -0.375000
v 0.040000 0.606000 -0.375000
v 0.040000 0.606000 0.375000
v 0.040000 0.556000 0.375000
v 0.040000 0.425000 0.556000
v 0.040000 0.425000 0.506000
v 0.040000 0.450759 0.554158
v 0.040000 0.447748 0.504010
v 0.040000 0.604158 0.400759
v 0.040000 0.554010 0.397748
v 0.040000 0.475994 0.548668
v 0.040000 0.469805 0.498100
v 0.040000 0.598668 0.425994
v 0.040000 0.548100 0.419805
v 0.040000 0.500190 0.539643
v 0.040000 0.490500 0.488449
v 0.040000 0.589643 0.450190
v 0.040000 0.538449 0.440500
v 0.040000 0.577267 0.472856
v 0.040000 0.525352 0.459205
v 0.040000 0.522856 0.527267
v 0.040000 0.509205 0.475352
v 0.040000 0.543530 0.511791
v 0.040000 0.561791 0.493530
v 0.120000 -0.425000 0.556000
v 0.120000 0.425000 0.556000
v 0.120000 -0.450759 0.554158
v 0.120000 -0.475994 0.548668
v 0.120000 -0.500190 0.539643
v 0.120000 -0.522856 0.527267
v 0.120000 -0.543530 0.511791
v 0.120000 -0.561791 0.493530
v 0.120000 -0.577267 0.472856
v 0.120000 -0.589643 0.450190
v 0.120000 -0.598668 0.425994
v 0.120000 -0.604158 0.400759
v 0.120000 -0.606000 0.375000
v 0.120000 0.450759 0.554158
v 0.120000 0.475994 0.548668
v 0.120000 0.500190 0.539643
v 0.120000 0.522856 0.527267
v 0.120000 0.543530 0.511791
v 0.120000 0.561791 0.493530
v 0.120000 0.577267 0.472856
v 0.120000 0.589643 0.450190
v 0.120000 0.598668 0.425994
v 0.120000 0.604158 0.400759
v 0.120000 0.606000 0.375000
v 0.120000 -0.606000 -0.375000
v 0.120000 0.606000 -0.375000
v 0.120000 -0.450759 -0.554158
v 0.120000 -0.425000 -0.556000
v 0.120000 -0.475994 -0.548668
v 0.120000 -0.500190 -0.539643
v 0.120000 -0.522856 -0.527267
v 0.120000 -0.543530 -0.511791
v 0.120000 -0.561791 -0.493530
v 0.120000 -0.577267 -0.472856
v 0.120000 -0.589643 -0.450190
v 0.120000 -0.598668 -0.425994
v 0.120000 -0.604158 -0.400759
v 0.120000 0.425000 -0.556000
v 0.120000 0.450759 -0.554158
v 0.120000 0.475994 -0.548668
v 0.120000 0.500190 -0.539643
v 0.120000 0.522856 -0.527267
v 0.120000 0.543530 -0.511791
v 0.120000 0.561791 -0.493530
v 0.120000 0.577267 -0.472856
v 0.120000 0.589643 -0.450190
v 0.120000 0.598668 -0.425994
v 0.120000 0.604158 -0.400759
v 0.120000 -0.425000 0.506000
v 0.120000 -0.447748 0.504010
v 0.120000 -0.469805 0.498100
v 0.120000 -0.490500 0.488449
v 0.120000 -0.509205 0.475352
v 0.120000 -0.525352 0.459205
v 0.120000 -0.538449 0.440500
v 0.120000 -0.548100 0.419805
v 0.120000 -0.554010 0.397748
v 0.120000 -0.556000 0.375000
v 0.120000 -0.556000 -0.375000
v 0.120000 -0.447748 -0.504010
v 0.120000 -0.425000 -0.506000
v 0.120000 -0.469805 -0.498100
v 0.120000 -0.490500 -0.488449
v 0.120000 -0.509205 -0.475352
v 0.120000 -0.525352 -0.459205
v 0.120000 -0.538449 -0.440500
v 0.120000 -0.548100 -0.419805
v 0.120000 -0.554010 -0.397748
v 0.120000 0.425000 -0.506000
v 0.120000 0.447748 -0.504010
v 0.120000 0.469805 -0.498100
v 0.120000 0.490500 -0.488449
v 0.120000 0.509205 -0.475352
v 0.120000 0.525352 -0.459205
v 0.120000 0.538449 -0.440500
v 0.120000 0.548100 -0.419805
v 0.120000 0.554010 -0.397748
v 0.120000 0.556000 -0.375000
v 0.120000 0.556000 0.375000
v 0.120000 0.447748 0.504010
v 0.120000 0.425000 0.506000
v 0.120000 0.469805 0.498100
v 0.120000 0.490500 0.488449
v 0.120000 0.509205 0.475352
v 0.120000 0.525352 0.459205
v 0.120000 0.538449 0.440500
v 0.120000 0.548100 0.419805
v 0.120000 0.554010 0.397748
vn -1.000000 0.000000 0.000000
vn -1.000000 0.000000 0.000000
vn -1.000000 0.000000 0.000000
vn -1.000000 0.000000 0.000000
vn -1.000000 0.000000 -0.000000
vn -1.000000 0.000000 0.000000
vn -1.000000 0.000000 0.000000
vn -1.000000 0.000000 0.000000
vn -1.000000 0.000000 -0.000000
vn -1.000000 0.000000 0.000000
vn -1.000000 0.000000 0.000000
vn -1.000000 0.000000 0.000000
vn -1.000000 0.000000 0.000000
vn -1.000000 0.000000 -0.000000
vn -1.000000 0.000000 0.000000
vn -1.000000 0.000000 0.000000
vn -1.000000 0.000000 -0.000000
vn -1.000000 0.000000 0.000000
vn -1.000000 0.000000 0.000000
vn -1.000000 0.000000 0.000000
vn -1.000000 0.000000 -0.000000
vn -1.000000 0.000000 0.000000
vn -1.000000 0.000000 0.000000
vn -1.000000 0.000000 -0.000000
vn -1.000000 0.000000 0.000000
vn -1.000000 0.000000 -0.000000
vn -1.000000 0.000000 0.000000
vn -1.000000 0.000000 -0.000000
vn -1.000000 0.000000 0.000000
vn -1.000000 0.000000 0.000000
vn -1.000000 0.000000 0.000000
vn -1.000000 0.000000 0.000000
vn -1.000000 0.000000 -0.000000
vn -1.000000 0.000000 0.000000
vn -1.000000 0.000000 0.000000
vn -1.000000 0.000000 0.000000
vn -1.000000 0.000000 0.000000
vn -1.000000 0.000000 0.000000
vn -1.000000 0.000000 0.000000
vn -1.000000 0.000000 0.000000
vn -1.000000 0.000000 0.000000
vn -1.000000 0.000000 0.000000
vn -1.000000 0.000000 0.000000
vn -1.000000 0.000000 0.000000
vn -1.000000 0.000000 0.000000
vn -1.000000 0.000000 0.000000
vn -1.000000 0.000000 0.000000
vn -1.000000 0.000000 0.000000
vn -1.000000 0.000000 -0.000000
vn -1.000000 0.000000 0.000000
vn -1.000000 0.000000 0.000000
vn -1.000000 0.000000 0.000000
vn -1.000000 0.000000 0.000000
vn -1.000000 0.000000 0.000000
vn -1.000000 0.000000 -0.000000
vn -1.000000 0.000000 0.000000
vn -1.000000 0.000000 0.000000
vn -1.000000 0.000000 0.000000
vn -1.000000 0.000000 -0.000000
vn -1.000000 0.000000 0.000000
vn -1.000000 0.000000 -0.000000
vn -1.000000 0.000000 0.000000
vn -1.000000 0.000000 -0.000000
vn -1.000000 0.000000 0.000000
vn -1.000000 0.000000 0.000000
vn -1.000000 0.000000 0.000000
vn -1.000000 0.000000 0.000000
vn -1.000000 0.000000 0.000000
vn -1.000000 0.000000 0.000000
vn -1.000000 0.000000 0.000000
vn -1.000000 0.000000 0.000000
vn -1.000000 0.000000 0.000000
vn -1.000000 0.000000 -0.000000
vn -1.000000 0.000000 0.000000
vn -1.000000 0.000000 0.000000
vn -1.000000 0.000000 0.000000
vn -1.000000 0.000000 -0.000000
vn -1.000000 0.000000 0.000000
vn -1.000000 0.000000 0.000000
vn -1.000000 0.000000 0.000000
vn -1.000000 0.000000 0.000000
vn -1.000000 0.000000 0.000000
vn -1.000000 0.000000 -0.000000
vn -1.000000 0.000000 0.000000
vn -1.000000 0.000000 -0.000000
vn -1.000000 0.000000 0.000000
vn -1.000000 0.000000 0.000000
vn -1.000000 0.000000 -0.000000
vn 0.000000 -0.000000 1.000000
vn 0.000000 0.000000 1.000000
vn 0.000000 -0.071339 0.997452
vn 0.000000 -0.071339 0.997452
vn 0.000000 -0.212566 0.977147
vn 0.000000 -0.212566 0.977147
vn 0.000000 -0.349465 0.936949
vn 0.000000 -0.349465 0.936949
vn 0.000000 -0.479247 0.877680
vn 0.000000 -0.599278 0.800541
vn 0.000000 -0.479247 0.877680
vn 0.000000 -0.599278 0.800541
vn 0.000000 -0.707108 0.707106
vn 0.000000 -0.707108 0.707106
vn 0.000000 -0.800540 0.599279
vn 0.000000 -0.800540 0.599279
vn 0.000000 -0.877680 0.479247
vn 0.000000 -0.936949 0.349465
vn 0.000000 -0.877680 0.479247
vn 0.000000 -0.977147 0.212564
vn 0.000000 -0.936949 0.349465
vn 0.000000 -0.977147 0.212564
vn 0.000000 -0.997452 0.071342
vn 0.000000 -0.997452 0.071342
vn -0.000000 0.071339 0.997452
vn 0.000000 0.071339 0.997452
vn 0.000000 0.212566 0.977147
vn 0.000000 0.212566 0.977147
vn 0.000000 0.349465 0.936949
vn -0.000000 0.479247 0.877680
vn 0.000000 0.349465 0.936949
vn 0.000000 0.479247 0.877680
vn 0.000000 0.599278 0.800541
vn -0.000000 0.707108 0.707106
vn 0.000000 0.599278 0.800541
vn 0.000000 0.707108 0.707106
vn 0.000000 0.800540 0.599279
vn -0.000000 0.877680 0.479247
vn 0.000000 0.800540 0.599279
vn 0.000000 0.877680 0.479247
vn 0.000000 0.936949 0.349465
vn 0.000000 0.936949 0.349465
vn 0.000000 0.977147 0.212564
vn 0.000000 0.977147 0.212564
vn 0.000000 0.997452 0.071342
vn 0.000000 0.997452 0.071342
vn 0.000000 -1.000000 0.000000
vn 0.000000 -1.000000 0.000000
vn 0.000000 1.000000 0.000000
vn 0.000000 1.000000 -0.000000
vn 0.000000 -0.071339 -0.997452
vn -0.000000 -0.071339 -0.997452
vn 0.000000 -0.212566 -0.977147
vn -0.000000 -0.212566 -0.977147
vn 0.000000 -0.349465 -0.936949
vn -0.000000 -0.349465 -0.936949
vn 0.000000 -0.479247 -0.877680
vn 0.000000 -0.599278 -0.800541
vn -0.000000 -0.479247 -0.877680
vn 0.000000 -0.599278 -0.800541
vn 0.000000 -0.707108 -0.707106
vn -0.000000 -0.707108 -0.707106
vn 0.000000 -0.800540 -0.599279
vn -0.000000 -0.800540 -0.599279
vn 0.000000 -0.877680 -0.479247
vn 0.000000 -0.936949 -0.349465
vn -0.000000 -0.877680 -0.479247
vn 0.000000 -0.977147 -0.212564
vn 0.000000 -0.936949 -0.349465
vn 0.000000 -0.977147 -0.212564
vn 0.000000 -0.997452 -0.071342
vn -0.000000 -0.997452 -0.071342
vn 0.000000 0.071339 -0.997452
vn 0.000000 0.071339 -0.997452
vn 0.000000 0.212566 -0.977147
vn 0.000000 0.212566 -0.977147
vn 0.000000 0.349465 -0.936949
vn 0.000000 0.479247 -0.877680
vn 0.000000 0.349465 -0.936949
vn 0.000000 0.479247 -0.877680
vn 0.000000 0.599278 -0.800541
vn 0.000000 0.707108 -0.707106
vn 0.000000 0.599278 -0.800541
vn 0.000000 0.707108 -0.707106
vn 0.000000 0.800540 -0.599279
vn 0.000000 0.877680 -0.479247
vn 0.000000 0.800540 -0.599279
vn 0.000000 0.877680 -0.479247
vn 0.000000 0.936949 -0.349465
vn 0.000000 0.936949 -0.349465
vn 0.000000 0.977147 -0.212564
vn 0.000000 0.977147 -0.212564
vn 0.000000 0.997452 -0.071342
vn 0.000000 0.997452 -0.071342
vn 0.000000 -0.000000 -1.000000
vn -0.000000 0.000000 -1.000000
vn 0.000000 0.087154 -0.996195
vn 0.000000 0.087154 -0.996195
vn 0.000000 0.258820 -0.965926
vn 0.000000 0.258820 -0.965926
vn 0.000000 0.422618 -0.906308
vn 0.000000 0.573576 -0.819152
vn 0.000000 0.422618 -0.906308
vn 0.000000 0.573576 -0.819152
vn 0.000000 0.707107 -0.707107
vn 0.000000 0.707107 -0.707107
vn 0.000000 0.819152 -0.573577
vn 0.000000 0.906308 -0.422618
vn 0.000000 0.819152 -0.573577
vn 0.000000 0.965926 -0.258820
vn 0.000000 0.906308 -0.422618
vn 0.000000 0.965926 -0.258820
vn 0.000000 0.996195 -0.087154
vn 0.000000 0.996195 -0.087154
vn 0.000000 1.000000 0.000000
vn 0.000000 1.000000 -0.000000
vn 0.000000 0.087154 0.996195
vn 0.000000 0.087154 0.996195
vn 0.000000 0.258820 0.965926
vn 0.000000 0.258820 0.965926
vn 0.000000 0.422618 0.906308
vn 0.000000 0.422618 0.906308
vn 0.000000 0.707107 0.707107
vn 0.000000 0.573576 0.819152
vn 0.000000 0.573576 0.819152
vn 0.000000 0.707107 0.707107
vn 0.000000 0.906308 0.422618
vn 0.000000 0.819152 0.573577
vn 0.000000 0.819152 0.573577
vn 0.000000 0.906308 0.422618
vn 0.000000 0.965926 0.258820
vn 0.000000 0.965926 0.258820
vn 0.000000 0.996195 0.087154
vn 0.000000 0.996195 0.087154
vn 0.000000 -0.000000 1.000000
vn 0.000000 0.000000 1.000000
vn 0.000000 -0.087154 0.996195
vn 0.000000 -0.087154 0.996195
vn 0.000000 -0.258820 0.965926
vn 0.000000 -0.258820 0.965926
vn 0.000000 -0.422618 0.906308
vn 0.000000 -0.573576 0.819152
vn 0.000000 -0.422618 0.906308
vn 0.000000 -0.573576 0.819152
vn 0.000000 -0.707107 0.707107
vn 0.000000 -0.707107 0.707107
vn 0.000000 -0.819152 0.573577
vn 0.000000 -0.906308 0.422618
vn 0.000000 -0.819152 0.573577
vn 0.000000 -0.965926 0.258820
vn 0.000000 -0.906308 0.422618
vn 0.000000 -0.965926 0.258820
vn 0.000000 -0.996195 0.087154
vn 0.000000 -0.996195 0.087154
vn 0.000000 -1.000000 0.000000
vn 0.000000 -1.000000 0.000000
vn 0.000000 -0.087154 -0.996195
vn -0.000000 -0.087154 -0.996195
vn -0.000000 -0.258820 -0.965926
vn 0.000000 -0.258820 -0.965926
vn -0.000000 -0.422618 -0.906308
vn 0.000000 -0.422618 -0.906308
vn -0.000000 -0.707107 -0.707107
vn -0.000000 -0.573576 -0.819152
vn 0.000000 -0.573576 -0.819152
vn -0.000000 -0.707107 -0.707107
vn -0.000000 -0.906308 -0.422618
vn -0.000000 -0.819152 -0.573577
vn 0.000000 -0.819152 -0.573577
vn -0.000000 -0.906308 -0.422618
vn -0.000000 -0.965926 -0.258820
vn 0.000000 -0.965926 -0.258820
vn -0.000000 -0.996195 -0.087154
vn 0.000000 -0.996195 -0.087154
vn 0.000000 -0.000000 -1.000000
vn -0.000000 0.000000 -1.000000
vn 1.000000 0.000000 0.000000
vn 1.000000 0.000000 0.000000
vn 1.000000 0.000000 0.000000
vn 1.000000 0.000000 0.000000
vn 1.000000 0.000000 0.000000
vn 1.000000 0.000000 0.000000
vn 1.000000 0.000000 0.000000
vn 1.000000 0.000000 0.000000
vn 1.000000 0.000000 0.000000
vn 1.000000 0.000000 0.000000
vn 1.000000 0.000000 0.000000
vn 1.000000 0.000000 0.000000
vn 1.000000 0.000000 0.000000
vn 1.000000 0.000000 0.000000
vn 1.000000 0.000000 0.000000
vn 1.000000 0.000000 0.000000
vn 1.000000 0.000000 0.000000
vn 1.000000 0.000000 0.000000
vn 1.000000 0.000000 0.000000
vn 1.000000 0.000000 0.000000
vn 1.000000 0.000000 0.000000
vn 1.000000 0.000000 0.000000
vn 1.000000 0.000000 0.000000
vn 1.000000 0.000000 0.000000
vn 1.000000 0.000000 0.000000
vn 1.000000 0.000000 0.000000
vn 1.000000 0.000000 0.000000
vn 1.000000 0.000000 0.000000
vn 1.000000 0.000000 0.000000
vn 1.000000 0.000000 0.000000
vn 1.000000 0.000000 0.000000
vn 1.000000 0.000000 0.000000
vn 1.000000 0.000000 0.000000
vn 1.000000 0.000000 0.000000
vn 1.000000 0.000000 0.000000
vn 1.000000 0.000000 0.000000
vn 1.000000 0.000000 0.000000
vn 1.000000 0.000000 0.000000
vn 1.000000 0.000000 0.000000
vn 1.000000 0.000000 0.000000
vn 1.000000 0.000000 0.000000
vn 1.000000 0.000000 0.000000
vn 1.000000 0.000000 0.000000
vn 1.000000 0.000000 0.000000
vn 1.000000 0.000000 0.000000
vn 1.000000 0.000000 0.000000
vn 1.000000 0.000000 0.000000
vn 1.000000 0.000000 0.000000
vn 1.000000 0.000000 0.000000
vn 1.000000 0.000000 0.000000
vn 1.000000 0.000000 0.000000
vn 1.000000 0.000000 0.000000
vn 1.000000 0.000000 0.000000
vn 1.000000 0.000000 0.000000
vn 1.000000 0.000000 0.000000
vn 1.000000 0.000000 0.000000
vn 1.000000 0.000000 0.000000
vn 1.000000 0.000000 0.000000
vn 1.000000 0.000000 0.000000
vn 1.000000 0.000000 0.000000
vn 1.000000 0.000000 0.000000
vn 1.000000 0.000000 0.000000
vn 1.000000 0.000000 0.000000
vn 1.000000 0.000000 0.000000
vn 1.000000 0.000000 0.000000
vn 1.000000 0.000000 0.000000
vn 1.000000 0.000000 0.000000
vn 1.000000 0.000000 0.000000
vn 1.000000 0.000000 0.000000
vn 1.000000 0.000000 0.000000
vn 1.000000 0.000000 0.000000
vn 1.000000 0.000000 0.000000
vn 1.000000 0.000000 0.000000
vn 1.000000 0.000000 0.000000
vn 1.000000 0.000000 0.000000
vn 1.000000 0.000000 0.000000
vn 1.000000 0.000000 0.000000
vn 1.000000 0.000000 0.000000
vn 1.000000 0.000000 0.000000
vn 1.000000 0.000000 0.000000
vn 1.000000 0.000000 0.000000
vn 1.000000 0.000000 0.000000
vn 1.000000 0.000000 0.000000
vn 1.000000 0.000000 0.000000
vn 1.000000 0.000000 0.000000
vn 1.000000 0.000000 0.000000
vn 1.000000 0.000000 0.000000
vn 1.000000 0.000000 0.000000
f 1//1 2//1 3//1
f 4//2 2//2 1//2
f 4//3 5//3 2//3
f 6//4 5//4 4//4
f 2//5 7//5 3//5
f 3//6 7//6 8//6
f 6//7 9//7 5//7
f 10//8 9//8 6//8
f 7//9 11//9 8//9
f 8//10 11//10 12//10
f 13//11 14//11 10//11
f 10//12 14//12 9//12
f 12//13 15//13 16//13
f 11//14 15//14 12//14
f 13//15 17//15 14//15
f 18//16 17//16 13//16
f 15//17 19//17 16//17
f 16//18 19//18 20//18
f 21//19 22//19 18//19
f 18//20 22//20 17//20
f 23//21 24//21 25//21
f 25//22 24//22 21//22
f 21//23 24//23 22//23
f 26//24 27//24 23//24
f 23//25 27//25 24//25
f 28//26 29//26 26//26
f 26//27 29//27 27//27
f 30//28 31//28 28//28
f 28//29 31//29 29//29
f 19//30 32//30 20//30
f 20//31 32//31 33//31
f 33//32 32//32 34//32
f 35//33 36//33 30//33
f 30//34 36//34 31//34
f 34//35 37//35 38//35
f 32//36 37//36 34//36
f 35//37 39//37 36//37
f 35//38 40//38 39//38
f 38//39 41//39 42//39
f 37//40 41//40 38//40
f 42//41 43//41 44//41
f 41//42 43//42 42//42
f 39//43 45//43 46//43
f 40//44 45//44 39//44
f 44//45 47//45 48//45
f 43//46 47//46 44//46
f 46//47 49//47 50//47
f 45//48 49//48 46//48
f 51//49 52//49 47//49
f 47//50 52//50 48//50
f 50//51 53//51 54//51
f 49//52 53//52 50//52
f 54//53 55//53 56//53
f 53//54 55//54 54//54
f 57//55 58//55 51//55
f 51//56 58//56 52//56
f 55//57 59//57 56//57
f 57//58 60//58 58//58
f 61//59 60//59 57//59
f 61//60 62//60 60//60
f 63//61 62//61 61//61
f 63//62 64//62 62//62
f 65//63 64//63 63//63
f 65//64 66//64 64//64
f 65//65 67//65 66//65
f 68//66 67//66 65//66
f 59//67 69//67 56//67
f 56//68 69//68 70//68
f 69//69 71//69 70//69
f 70//70 71//70 72//70
f 68//71 73//71 67//71
f 74//72 73//72 68//72
f 71//73 75//73 72//73
f 72//74 75//74 76//74
f 74//75 77//75 73//75
f 78//76 77//76 74//76
f 75//77 79//77 76//77
f 76//78 79//78 80//78
f 78//79 81//79 77//79
f 82//80 81//80 78//80
f 82//81 83//81 81//81
f 84//82 83//82 82//82
f 79//83 85//83 80//83
f 80//84 85//84 86//84
f 85//85 87//85 86//85
f 84//86 88//86 83//86
f 86//87 88//87 84//87
f 87//88 88//88 86//88
f 89//89 90//89 59//89
f 59//90 90//90 69//90
f 91//91 59//91 55//91
f 91//92 89//92 59//92
f 92//93 55//93 53//93
f 92//94 91//94 55//94
f 93//95 53//95 49//95
f 93//96 92//96 53//96
f 94//97 49//97 45//97
f 94//98 45//98 40//98
f 94//99 93//99 49//99
f 95//100 94//100 40//100
f 96//101 40//101 35//101
f 96//102 95//102 40//102
f 97//103 35//103 30//103
f 97//104 96//104 35//104
f 98//105 30//105 28//105
f 98//106 28//106 26//106
f 98//107 97//107 30//107
f 99//108 26//108 23//108
f 99//109 98//109 26//109
f 100//110 99//110 23//110
f 101//111 23//111 25//111
f 101//112 100//112 23//112
f 69//113 90//113 71//113
f 90//114 102//114 71//114
f 71//115 103//115 75//115
f 102//116 103//116 71//116
f 75//117 104//117 79//117
f 79//118 104//118 85//118
f 103//119 104//119 75//119
f 104//120 105//120 85//120
f 85//121 106//121 87//121
f 87//122 106//122 88//122
f 105//123 106//123 85//123
f 106//124 107//124 88//124
f 88//125 108//125 83//125
f 83//126 108//126 81//126
f 107//127 108//127 88//127
f 108//128 109//128 81//128
f 81//129 110//129 77//129
f 109//130 110//130 81//130
f 77//131 111//131 73//131
f 110//132 111//132 77//132
f 73//133 112//133 67//133
f 111//134 112//134 73//134
f 21//135 113//135 25//135
f 25//136 113//136 101//136
f 114//137 66//137 67//137
f 114//138 67//138 112//138
f 20//139 115//139 16//139
f 116//140 115//140 20//140
f 16//141 117//141 12//141
f 115//142 117//142 16//142
f 12//143 118//143 8//143
f 117//144 118//144 12//144
f 8//145 119//145 3//145
f 3//146 119//146 1//146
f 118//147 119//147 8//147
f 119//148 120//148 1//148
f 1//149 121//149 4//149
f 120//150 121//150 1//150
f 4//151 122//151 6//151
f 121//152 122//152 4//152
f 6//153 123//153 10//153
f 10//154 123//154 13//154
f 122//155 123//155 6//155
f 13//156 124//156 18//156
f 123//157 124//157 13//157
f 124//158 125//158 18//158
f 18//159 113//159 21//159
f 125//160 113//160 18//160
f 126//161 33//161 34//161
f 127//162 126//162 34//162
f 128//163 34//163 38//163
f 128//164 127//164 34//164
f 129//165 38//165 42//165
f 129//166 42//166 44//166
f 129//167 128//167 38//167
f 130//168 129//168 44//168
f 131//169 44//169 48//169
f 131//170 48//170 52//170
f 131//171 130//171 44//171
f 132//172 131//172 52//172
f 133//173 52//173 58//173
f 133//174 58//174 60//174
f 133//175 132//175 52//175
f 134//176 133//176 60//176
f 135//177 60//177 62//177
f 135//178 134//178 60//178
f 136//179 62//179 64//179
f 136//180 135//180 62//180
f 114//181 64//181 66//181
f 114//182 136//182 64//182
f 126//183 116//183 20//183
f 126//184 20//184 33//184
f 56//185 137//185 54//185
f 137//186 138//186 54//186
f 54//187 139//187 50//187
f 138//188 139//188 54//188
f 50//189 140//189 46//189
f 46//190 140//190 39//190
f 139//191 140//191 50//191
f 140//192 141//192 39//192
f 39//193 142//193 36//193
f 141//194 142//194 39//194
f 36//195 143//195 31//195
f 31//196 143//196 29//196
f 142//197 143//197 36//197
f 29//198 144//198 27//198
f 143//199 144//199 29//199
f 144//200 145//200 27//200
f 27//201 146//201 24//201
f 145//202 146//202 27//202
f 147//203 22//203 24//203
f 147//204 24//204 146//204
f 148//205 149//205 19//205
f 148//206 19//206 15//206
f 150//207 15//207 11//207
f 150//208 148//208 15//208
f 151//209 11//209 7//209
f 151//210 150//210 11//210
f 152//211 2//211 5//211
f 152//212 7//212 2//212
f 152//213 151//213 7//213
f 153//214 152//214 5//214
f 154//215 9//215 14//215
f 154//216 5//216 9//216
f 154//217 153//217 5//217
f 155//218 154//218 14//218
f 156//219 14//219 17//219
f 156//220 155//220 14//220
f 147//221 17//221 22//221
f 147//222 156//222 17//222
f 149//223 157//223 19//223
f 19//224 157//224 32//224
f 32//225 157//225 37//225
f 157//226 158//226 37//226
f 37//227 159//227 41//227
f 158//228 159//228 37//228
f 41//229 160//229 43//229
f 43//230 160//230 47//230
f 159//231 160//231 41//231
f 160//232 161//232 47//232
f 47//233 162//233 51//233
f 161//234 162//234 47//234
f 51//235 163//235 57//235
f 57//236 163//236 61//236
f 162//237 163//237 51//237
f 61//238 164//238 63//238
f 163//239 164//239 61//239
f 164//240 165//240 63//240
f 63//241 166//241 65//241
f 165//242 166//242 63//242
f 65//243 166//243 68//243
f 68//244 166//244 167//244
f 168//245 169//245 70//245
f 168//246 70//246 72//246
f 170//247 72//247 76//247
f 170//248 168//248 72//248
f 171//249 76//249 80//249
f 171//250 170//250 76//250
f 172//251 86//251 84//251
f 172//252 80//252 86//252
f 172//253 171//253 80//253
f 173//254 172//254 84//254
f 174//255 82//255 78//255
f 174//256 84//256 82//256
f 174//257 173//257 84//257
f 175//258 174//258 78//258
f 176//259 78//259 74//259
f 176//260 175//260 78//260
f 167//261 74//261 68//261
f 167//262 176//262 74//262
f 169//263 137//263 56//263
f 169//264 56//264 70//264
f 152//265 120//265 119//265
f 152//266 121//266 120//266
f 153//267 121//267 152//267
f 153//268 122//268 121//268
f 151//269 152//269 119//269
f 151//270 119//270 118//270
f 154//271 122//271 153//271
f 154//272 123//272 122//272
f 150//273 151//273 118//273
f 150//274 118//274 117//274
f 155//275 124//275 123//275
f 155//276 123//276 154//276
f 148//277 117//277 115//277
f 148//278 150//278 117//278
f 156//279 124//279 155//279
f 156//280 125//280 124//280
f 149//281 148//281 115//281
f 149//282 115//282 116//282
f 147//283 113//283 125//283
f 147//284 125//284 156//284
f 146//285 100//285 101//285
f 146//286 101//286 113//286
f 146//287 113//287 147//287
f 145//288 99//288 100//288
f 145//289 100//289 146//289
f 144//290 98//290 99//290
f 144//291 99//291 145//291
f 143//292 97//292 98//292
f 143//293 98//293 144//293
f 157//294 149//294 116//294
f 157//295 116//295 126//295
f 157//296 126//296 127//296
f 142//297 96//297 97//297
f 142//298 97//298 143//298
f 158//299 127//299 128//299
f 158//300 157//300 127//300
f 141//301 96//301 142//301
f 95//302 96//302 141//302
f 159//303 128//303 129//303
f 159//304 158//304 128//304
f 160//305 129//305 130//305
f 160//306 159//306 129//306
f 94//307 141//307 140//307
f 94//308 95//308 141//308
f 161//309 130//309 131//309
f 161//310 160//310 130//310
f 93//311 140//311 139//311
f 93//312 94//312 140//312
f 132//313 162//313 161//313
f 132//314 161//314 131//314
f 92//315 139//315 138//315
f 92//316 93//316 139//316
f 91//317 138//317 137//317
f 91//318 92//318 138//318
f 133//319 163//319 162//319
f 133//320 162//320 132//320
f 89//321 91//321 137//321
f 134//322 163//322 133//322
f 134//323 164//323 163//323
f 135//324 164//324 134//324
f 135//325 165//325 164//325
f 136//326 165//326 135//326
f 136//327 166//327 165//327
f 114//328 166//328 136//328
f 112//329 166//329 114//329
f 112//330 167//330 166//330
f 90//331 89//331 137//331
f 90//332 137//332 169//332
f 102//333 90//333 169//333
f 102//334 169//334 168//334
f 111//335 167//335 112//335
f 111//336 176//336 167//336
f 103//337 102//337 168//337
f 103//338 168//338 170//338
f 110//339 176//339 111//339
f 110//340 175//340 176//340
f 104//341 103//341 170//341
f 104//342 170//342 171//342
f 109//343 175//343 110//343
f 109//344 174//344 175//344
f 108//345 174//345 109//345
f 108//346 173//346 174//346
f 105//347 104//347 171//347
f 105//348 171//348 172//348
f 106//349 105//349 172//349
f 107//350 173//350 108//350
f 107//351 172//351 173//351
f 107//352 106//352 172//352
