# Created by FreeCAD <https://www.freecad.org>
v 2.640000 -0.260000 -0.365000
v 2.640000 0.260000 -0.625000
v 2.640000 -0.260000 -0.625000
v 2.640000 0.260000 -0.365000
v 2.940000 0.260000 -0.625000
v 2.940000 -0.260000 -0.365000
v 2.940000 -0.260000 -0.625000
v 2.940000 0.260000 -0.365000
vn -1.000000 0.000000 0.000000
vn -1.000000 0.000000 0.000000
vn 1.000000 0.000000 0.000000
vn 1.000000 0.000000 0.000000
vn 0.000000 -0.000000 1.000000
vn 0.000000 0.000000 1.000000
vn 0.000000 -0.000000 -1.000000
vn -0.000000 0.000000 -1.000000
vn 0.000000 -1.000000 0.000000
vn 0.000000 -1.000000 0.000000
vn 0.000000 1.000000 0.000000
vn 0.000000 1.000000 -0.000000
f 1//1 2//1 3//1
f 1//2 4//2 2//2
f 5//3 6//3 7//3
f 8//4 6//4 5//4
f 6//5 8//5 1//5
f 1//6 8//6 4//6
f 5//7 7//7 3//7
f 5//8 3//8 2//8
f 3//9 7//9 1//9
f 1//10 7//10 6//10
f 5//11 2//11 4//11
f 5//12 4//12 8//12
