# Created by FreeCAD <https://www.freecad.org>
v 2.280000 -0.670000 -0.160000
v 2.280000 -0.670000 0.160000
v 2.280000 -0.550000 -0.160000
v 2.280000 -0.550000 0.160000
v 2.420000 -0.670000 0.160000
v 2.420000 -0.670000 -0.160000
v 2.420000 -0.550000 -0.160000
v 2.420000 -0.550000 0.160000
vn -1.000000 0.000000 0.000000
vn -1.000000 0.000000 0.000000
vn 1.000000 0.000000 0.000000
vn 1.000000 0.000000 0.000000
vn 0.000000 -0.000000 1.000000
vn 0.000000 0.000000 1.000000
vn 0.000000 -0.000000 -1.000000
vn -0.000000 0.000000 -1.000000
vn 0.000000 -1.000000 0.000000
vn 0.000000 -1.000000 0.000000
vn 0.000000 1.000000 0.000000
vn 0.000000 1.000000 -0.000000
f 1//1 2//1 3//1
f 2//2 4//2 3//2
f 5//3 6//3 7//3
f 8//4 5//4 7//4
f 5//5 8//5 2//5
f 2//6 8//6 4//6
f 7//7 6//7 1//7
f 7//8 1//8 3//8
f 1//9 6//9 2//9
f 2//10 6//10 5//10
f 7//11 3//11 4//11
f 7//12 4//12 8//12
