# Created by FreeCAD <https://www.freecad.org>
v -0.300000 -1.176000 0.620000
v -0.300000 -1.056000 0.620000
v -0.300000 -1.176000 -0.620000
v -0.300000 -1.056000 -0.620000
v 0.000000 -1.176000 0.620000
v 0.000000 -1.056000 0.620000
v -0.292000 -1.056000 0.573000
v -0.292000 -1.056000 0.595000
v -0.292000 -1.056000 0.559000
v -0.292000 -1.056000 0.537000
v -0.292000 -1.056000 0.523000
v -0.292000 -1.056000 0.501000
v -0.008000 -1.056000 0.595000
v -0.008000 -1.056000 0.573000
v -0.008000 -1.056000 0.559000
v -0.008000 -1.056000 0.537000
v -0.008000 -1.056000 0.523000
v -0.008000 -1.056000 0.501000
v -0.008000 -1.056000 0.487000
v -0.292000 -1.056000 0.487000
v -0.008000 -1.056000 0.451000
v -0.292000 -1.056000 0.465000
v -0.008000 -1.056000 0.465000
v -0.292000 -1.056000 0.451000
v -0.008000 -1.056000 0.415000
v -0.292000 -1.056000 0.429000
v -0.008000 -1.056000 0.429000
v -0.292000 -1.056000 0.415000
v -0.008000 -1.056000 0.379000
v -0.292000 -1.056000 0.393000
v -0.008000 -1.056000 0.393000
v -0.292000 -1.056000 0.379000
v -0.008000 -1.056000 0.343000
v -0.292000 -1.056000 0.357000
v -0.008000 -1.056000 0.357000
v -0.292000 -1.056000 0.343000
v -0.008000 -1.056000 0.307000
v -0.292000 -1.056000 0.321000
v -0.008000 -1.056000 0.321000
v -0.292000 -1.056000 0.307000
v -0.008000 -1.056000 0.271000
v -0.292000 -1.056000 0.285000
v -0.008000 -1.056000 0.285000
v -0.292000 -1.056000 0.271000
v -0.008000 -1.056000 0.235000
v -0.292000 -1.056000 0.235000
v -0.292000 -1.056000 0.249000
v -0.008000 -1.056000 0.249000
v -0.008000 -1.056000 0.199000
v -0.292000 -1.056000 0.199000
v -0.292000 -1.056000 0.213000
v -0.008000 -1.056000 0.213000
v -0.008000 -1.056000 0.163000
v -0.292000 -1.056000 0.163000
v -0.292000 -1.056000 0.177000
v -0.008000 -1.056000 0.177000
v -0.008000 -1.056000 0.127000
v -0.292000 -1.056000 0.127000
v -0.292000 -1.056000 0.141000
v -0.008000 -1.056000 0.141000
v -0.008000 -1.056000 0.091000
v -0.292000 -1.056000 0.091000
v -0.292000 -1.056000 0.105000
v -0.008000 -1.056000 0.105000
v -0.008000 -1.056000 0.055000
v -0.292000 -1.056000 0.055000
v -0.292000 -1.056000 0.069000
v -0.008000 -1.056000 0.069000
v -0.008000 -1.056000 0.019000
v -0.292000 -1.056000 0.019000
v -0.292000 -1.056000 0.033000
v -0.008000 -1.056000 0.033000
v -0.008000 -1.056000 -0.017000
v -0.292000 -1.056000 -0.017000
v -0.292000 -1.056000 -0.003000
v -0.008000 -1.056000 -0.003000
v -0.008000 -1.056000 -0.053000
v -0.292000 -1.056000 -0.053000
v -0.292000 -1.056000 -0.039000
v -0.008000 -1.056000 -0.039000
v -0.008000 -1.056000 -0.089000
v -0.292000 -1.056000 -0.089000
v -0.292000 -1.056000 -0.075000
v -0.008000 -1.056000 -0.075000
v -0.008000 -1.056000 -0.125000
v -0.292000 -1.056000 -0.111000
v -0.008000 -1.056000 -0.111000
v -0.292000 -1.056000 -0.125000
v -0.008000 -1.056000 -0.161000
v -0.292000 -1.056000 -0.147000
v -0.008000 -1.056000 -0.147000
v -0.292000 -1.056000 -0.161000
v -0.008000 -1.056000 -0.197000
v -0.292000 -1.056000 -0.183000
v -0.008000 -1.056000 -0.183000
v -0.292000 -1.056000 -0.197000
v -0.008000 -1.056000 -0.233000
v -0.292000 -1.056000 -0.233000
v -0.292000 -1.056000 -0.219000
v -0.008000 -1.056000 -0.219000
v -0.008000 -1.056000 -0.269000
v -0.292000 -1.056000 -0.269000
v -0.292000 -1.056000 -0.255000
v -0.008000 -1.056000 -0.255000
v -0.008000 -1.056000 -0.305000
v -0.292000 -1.056000 -0.291000
v -0.008000 -1.056000 -0.291000
v -0.292000 -1.056000 -0.305000
v -0.292000 -1.056000 -0.485000
v -0.292000 -1.056000 -0.507000
v -0.292000 -1.056000 -0.521000
v -0.292000 -1.056000 -0.543000
v -0.292000 -1.056000 -0.557000
v -0.292000 -1.056000 -0.579000
v -0.292000 -1.056000 -0.471000
v -0.008000 -1.056000 -0.341000
v -0.292000 -1.056000 -0.327000
v -0.008000 -1.056000 -0.327000
v -0.292000 -1.056000 -0.341000
v -0.008000 -1.056000 -0.377000
v -0.292000 -1.056000 -0.363000
v -0.008000 -1.056000 -0.363000
v -0.292000 -1.056000 -0.377000
v -0.008000 -1.056000 -0.413000
v -0.292000 -1.056000 -0.399000
v -0.008000 -1.056000 -0.399000
v -0.292000 -1.056000 -0.413000
v -0.008000 -1.056000 -0.449000
v -0.292000 -1.056000 -0.435000
v -0.008000 -1.056000 -0.435000
v -0.292000 -1.056000 -0.449000
v -0.008000 -1.056000 -0.485000
v -0.008000 -1.056000 -0.471000
v -0.008000 -1.056000 -0.521000
v -0.008000 -1.056000 -0.507000
v -0.008000 -1.056000 -0.557000
v -0.008000 -1.056000 -0.543000
v -0.008000 -1.056000 -0.579000
v 0.000000 -1.056000 -0.620000
v 0.000000 -1.176000 -0.620000
v -0.008000 -1.126000 0.595000
v -0.292000 -1.126000 0.595000
v -0.008000 -1.126000 0.573000
v -0.292000 -1.126000 0.573000
v -0.008000 -1.126000 0.559000
v -0.292000 -1.126000 0.559000
v -0.008000 -1.126000 0.537000
v -0.292000 -1.126000 0.537000
v -0.008000 -1.126000 0.523000
v -0.292000 -1.126000 0.523000
v -0.008000 -1.126000 0.501000
v -0.292000 -1.126000 0.501000
v -0.008000 -1.126000 0.487000
v -0.292000 -1.126000 0.487000
v -0.008000 -1.126000 0.465000
v -0.292000 -1.126000 0.465000
v -0.008000 -1.126000 0.451000
v -0.292000 -1.126000 0.451000
v -0.008000 -1.126000 0.429000
v -0.292000 -1.126000 0.429000
v -0.008000 -1.126000 0.415000
v -0.292000 -1.126000 0.415000
v -0.008000 -1.126000 0.393000
v -0.292000 -1.126000 0.393000
v -0.008000 -1.126000 0.379000
v -0.292000 -1.126000 0.379000
v -0.008000 -1.126000 0.357000
v -0.292000 -1.126000 0.357000
v -0.008000 -1.126000 0.343000
v -0.292000 -1.126000 0.343000
v -0.008000 -1.126000 0.321000
v -0.292000 -1.126000 0.321000
v -0.008000 -1.126000 0.307000
v -0.292000 -1.126000 0.307000
v -0.008000 -1.126000 0.285000
v -0.292000 -1.126000 0.285000
v -0.008000 -1.126000 0.271000
v -0.292000 -1.126000 0.271000
v -0.008000 -1.126000 0.249000
v -0.292000 -1.126000 0.249000
v -0.008000 -1.126000 0.235000
v -0.292000 -1.126000 0.235000
v -0.008000 -1.126000 0.213000
v -0.292000 -1.126000 0.213000
v -0.008000 -1.126000 0.199000
v -0.292000 -1.126000 0.199000
v -0.008000 -1.126000 0.177000
v -0.292000 -1.126000 0.177000
v -0.008000 -1.126000 0.163000
v -0.292000 -1.126000 0.163000
v -0.008000 -1.126000 0.141000
v -0.292000 -1.126000 0.141000
v -0.008000 -1.126000 0.127000
v -0.292000 -1.126000 0.127000
v -0.008000 -1.126000 0.105000
v -0.292000 -1.126000 0.105000
v -0.008000 -1.126000 0.091000
v -0.292000 -1.126000 0.091000
v -0.008000 -1.126000 0.069000
v -0.292000 -1.126000 0.069000
v -0.008000 -1.126000 0.055000
v -0.292000 -1.126000 0.055000
v -0.008000 -1.126000 0.033000
v -0.292000 -1.126000 0.033000
v -0.008000 -1.126000 0.019000
v -0.292000 -1.126000 0.019000
v -0.008000 -1.126000 -0.003000
v -0.292000 -1.126000 -0.003000
v -0.008000 -1.126000 -0.017000
v -0.292000 -1.126000 -0.017000
v -0.008000 -1.126000 -0.039000
v -0.292000 -1.126000 -0.039000
v -0.008000 -1.126000 -0.053000
v -0.292000 -1.126000 -0.053000
v -0.008000 -1.126000 -0.075000
v -0.292000 -1.126000 -0.075000
v -0.008000 -1.126000 -0.089000
v -0.292000 -1.126000 -0.089000
v -0.008000 -1.126000 -0.111000
v -0.292000 -1.126000 -0.111000
v -0.008000 -1.126000 -0.125000
v -0.292000 -1.126000 -0.125000
v -0.008000 -1.126000 -0.147000
v -0.292000 -1.126000 -0.147000
v -0.008000 -1.126000 -0.161000
v -0.292000 -1.126000 -0.161000
v -0.008000 -1.126000 -0.183000
v -0.292000 -1.126000 -0.183000
v -0.008000 -1.126000 -0.197000
v -0.292000 -1.126000 -0.197000
v -0.008000 -1.126000 -0.219000
v -0.292000 -1.126000 -0.219000
v -0.008000 -1.126000 -0.233000
v -0.292000 -1.126000 -0.233000
v -0.008000 -1.126000 -0.255000
v -0.292000 -1.126000 -0.255000
v -0.008000 -1.126000 -0.269000
v -0.292000 -1.126000 -0.269000
v -0.008000 -1.126000 -0.291000
v -0.292000 -1.126000 -0.291000
v -0.008000 -1.126000 -0.305000
v -0.292000 -1.126000 -0.305000
v -0.008000 -1.126000 -0.327000
v -0.292000 -1.126000 -0.327000
v -0.008000 -1.126000 -0.341000
v -0.292000 -1.126000 -0.341000
v -0.008000 -1.126000 -0.363000
v -0.292000 -1.126000 -0.363000
v -0.008000 -1.126000 -0.377000
v -0.292000 -1.126000 -0.377000
v -0.008000 -1.126000 -0.399000
v -0.292000 -1.126000 -0.399000
v -0.008000 -1.126000 -0.413000
v -0.292000 -1.126000 -0.413000
v -0.008000 -1.126000 -0.435000
v -0.292000 -1.126000 -0.435000
v -0.008000 -1.126000 -0.449000
v -0.292000 -1.126000 -0.449000
v -0.008000 -1.126000 -0.471000
v -0.292000 -1.126000 -0.471000
v -0.008000 -1.126000 -0.485000
v -0.292000 -1.126000 -0.485000
v -0.008000 -1.126000 -0.507000
v -0.292000 -1.126000 -0.507000
v -0.008000 -1.126000 -0.521000
v -0.292000 -1.126000 -0.521000
v -0.008000 -1.126000 -0.543000
v -0.292000 -1.126000 -0.543000
v -0.008000 -1.126000 -0.557000
v -0.292000 -1.126000 -0.557000
v -0.008000 -1.126000 -0.579000
v -0.292000 -1.126000 -0.579000
vn -1.000000 0.000000 0.000000
vn -1.000000 0.000000 0.000000
vn 0.000000 -0.000000 1.000000
vn 0.000000 0.000000 1.000000
vn 0.000000 1.000000 -0.000000
vn 0.000000 1.000000 -0.000000
vn 0.000000 1.000000 -0.000000
vn 0.000000 1.000000 -0.000000
vn 0.000000 1.000000 -0.000000
vn 0.000000 1.000000 -0.000000
vn 0.000000 1.000000 0.000000
vn 0.000000 1.000000 0.000000
vn 0.000000 1.000000 -0.000000
vn 0.000000 1.000000 0.000000
vn 0.000000 1.000000 0.000000
vn 0.000000 1.000000 0.000000
vn 0.000000 1.000000 -0.000000
vn 0.000000 1.000000 0.000000
vn 0.000000 1.000000 0.000000
vn 0.000000 1.000000 0.000000
vn 0.000000 1.000000 -0.000000
vn 0.000000 1.000000 0.000000
vn 0.000000 1.000000 -0.000000
vn 0.000000 1.000000 0.000000
vn 0.000000 1.000000 -0.000000
vn 0.000000 1.000000 0.000000
vn 0.000000 1.000000 -0.000000
vn 0.000000 1.000000 0.000000
vn 0.000000 1.000000 -0.000000
vn 0.000000 1.000000 0.000000
vn 0.000000 1.000000 -0.000000
vn 0.000000 1.000000 0.000000
vn 0.000000 1.000000 -0.000000
vn 0.000000 1.000000 0.000000
vn 0.000000 1.000000 0.000000
vn 0.000000 1.000000 -0.000000
vn 0.000000 1.000000 0.000000
vn 0.000000 1.000000 -0.000000
vn 0.000000 1.000000 0.000000
vn 0.000000 1.000000 -0.000000
vn 0.000000 1.000000 0.000000
vn 0.000000 1.000000 -0.000000
vn 0.000000 1.000000 0.000000
vn 0.000000 1.000000 -0.000000
vn 0.000000 1.000000 0.000000
vn 0.000000 1.000000 -0.000000
vn 0.000000 1.000000 0.000000
vn 0.000000 1.000000 -0.000000
vn 0.000000 1.000000 0.000000
vn 0.000000 1.000000 -0.000000
vn 0.000000 1.000000 0.000000
vn 0.000000 1.000000 -0.000000
vn 0.000000 1.000000 0.000000
vn 0.000000 1.000000 -0.000000
vn 0.000000 1.000000 -0.000000
vn 0.000000 1.000000 0.000000
vn 0.000000 1.000000 -0.000000
vn 0.000000 1.000000 0.000000
vn 0.000000 1.000000 -0.000000
vn 0.000000 1.000000 0.000000
vn 0.000000 1.000000 0.000000
vn 0.000000 1.000000 -0.000000
vn 0.000000 1.000000 0.000000
vn 0.000000 1.000000 -0.000000
vn 0.000000 1.000000 -0.000000
vn 0.000000 1.000000 0.000000
vn 0.000000 1.000000 0.000000
vn 0.000000 1.000000 0.000000
vn 0.000000 1.000000 0.000000
vn 0.000000 1.000000 0.000000
vn 0.000000 1.000000 0.000000
vn 0.000000 1.000000 0.000000
vn 0.000000 1.000000 -0.000000
vn 0.000000 1.000000 0.000000
vn 0.000000 1.000000 -0.000000
vn 0.000000 1.000000 0.000000
vn 0.000000 1.000000 -0.000000
vn 0.000000 1.000000 0.000000
vn 0.000000 1.000000 -0.000000
vn 0.000000 1.000000 0.000000
vn 0.000000 1.000000 -0.000000
vn 0.000000 1.000000 0.000000
vn 0.000000 1.000000 -0.000000
vn 0.000000 1.000000 0.000000
vn 0.000000 1.000000 -0.000000
vn 0.000000 1.000000 0.000000
vn 0.000000 1.000000 0.000000
vn 0.000000 1.000000 0.000000
vn 0.000000 1.000000 0.000000
vn 0.000000 1.000000 0.000000
vn 0.000000 1.000000 0.000000
vn 0.000000 1.000000 0.000000
vn 0.000000 1.000000 0.000000
vn 0.000000 1.000000 0.000000
vn 0.000000 1.000000 0.000000
vn 0.000000 1.000000 0.000000
vn 0.000000 1.000000 0.000000
vn 0.000000 1.000000 0.000000
vn 0.000000 1.000000 0.000000
vn 0.000000 1.000000 0.000000
vn 0.000000 1.000000 0.000000
vn 0.000000 1.000000 0.000000
vn 0.000000 1.000000 0.000000
vn 0.000000 1.000000 0.000000
vn 0.000000 1.000000 0.000000
vn 0.000000 1.000000 0.000000
vn 0.000000 1.000000 0.000000
vn 0.000000 1.000000 0.000000
vn 0.000000 1.000000 0.000000
vn 0.000000 1.000000 0.000000
vn 0.000000 1.000000 0.000000
vn 0.000000 1.000000 0.000000
vn 0.000000 1.000000 0.000000
vn 0.000000 1.000000 0.000000
vn 0.000000 1.000000 0.000000
vn 0.000000 1.000000 0.000000
vn 0.000000 1.000000 0.000000
vn 0.000000 1.000000 0.000000
vn 0.000000 1.000000 0.000000
vn 0.000000 1.000000 0.000000
vn 0.000000 1.000000 0.000000
vn 0.000000 1.000000 0.000000
vn 0.000000 1.000000 0.000000
vn 0.000000 1.000000 0.000000
vn 0.000000 1.000000 0.000000
vn 0.000000 1.000000 0.000000
vn 0.000000 1.000000 0.000000
vn 0.000000 1.000000 0.000000
vn 0.000000 1.000000 0.000000
vn 0.000000 1.000000 0.000000
vn 0.000000 1.000000 0.000000
vn 0.000000 1.000000 0.000000
vn 0.000000 1.000000 0.000000
vn 0.000000 1.000000 0.000000
vn 0.000000 1.000000 0.000000
vn 0.000000 1.000000 0.000000
vn 0.000000 1.000000 0.000000
vn 0.000000 1.000000 0.000000
vn 0.000000 1.000000 0.000000
vn 0.000000 1.000000 0.000000
vn 0.000000 1.000000 0.000000
vn 0.000000 1.000000 0.000000
vn 0.000000 1.000000 0.000000
vn 0.000000 1.000000 0.000000
vn 0.000000 1.000000 0.000000
vn 0.000000 1.000000 0.000000
vn 0.000000 1.000000 0.000000
vn 0.000000 1.000000 0.000000
vn 0.000000 1.000000 0.000000
vn 0.000000 1.000000 0.000000
vn 0.000000 1.000000 0.000000
vn 0.000000 1.000000 0.000000
vn 0.000000 1.000000 0.000000
vn 0.000000 1.000000 0.000000
vn 0.000000 1.000000 0.000000
vn 0.000000 1.000000 0.000000
vn 0.000000 1.000000 0.000000
vn 0.000000 1.000000 0.000000
vn 0.000000 1.000000 0.000000
vn 0.000000 1.000000 0.000000
vn 0.000000 1.000000 0.000000
vn 0.000000 1.000000 0.000000
vn 0.000000 1.000000 0.000000
vn 0.000000 1.000000 0.000000
vn 0.000000 1.000000 0.000000
vn 0.000000 1.000000 0.000000
vn 0.000000 1.000000 0.000000
vn 0.000000 1.000000 0.000000
vn 0.000000 1.000000 0.000000
vn 0.000000 1.000000 0.000000
vn 0.000000 1.000000 0.000000
vn 0.000000 1.000000 0.000000
vn 0.000000 1.000000 0.000000
vn 0.000000 1.000000 0.000000
vn 0.000000 1.000000 0.000000
vn 0.000000 1.000000 0.000000
vn 0.000000 1.000000 0.000000
vn 0.000000 1.000000 0.000000
vn 0.000000 1.000000 0.000000
vn 0.000000 1.000000 0.000000
vn 0.000000 1.000000 0.000000
vn 0.000000 1.000000 0.000000
vn 0.000000 1.000000 0.000000
vn 0.000000 1.000000 0.000000
vn 0.000000 1.000000 0.000000
vn 0.000000 1.000000 0.000000
vn 0.000000 1.000000 0.000000
vn 0.000000 1.000000 0.000000
vn 0.000000 1.000000 0.000000
vn 0.000000 1.000000 0.000000
vn 0.000000 1.000000 0.000000
vn 0.000000 1.000000 0.000000
vn 0.000000 1.000000 0.000000
vn 0.000000 1.000000 0.000000
vn 0.000000 1.000000 0.000000
vn 0.000000 1.000000 0.000000
vn 0.000000 1.000000 0.000000
vn 0.000000 1.000000 0.000000
vn 0.000000 1.000000 0.000000
vn 0.000000 1.000000 0.000000
vn 0.000000 1.000000 0.000000
vn 0.000000 1.000000 0.000000
vn 0.000000 1.000000 0.000000
vn 0.000000 1.000000 0.000000
vn 0.000000 -0.000000 -1.000000
vn -0.000000 0.000000 -1.000000
vn 0.000000 -1.000000 0.000000
vn 0.000000 -1.000000 0.000000
vn 1.000000 0.000000 0.000000
vn 1.000000 0.000000 0.000000
vn 0.000000 -0.000000 -1.000000
vn -0.000000 0.000000 -1.000000
vn -1.000000 0.000000 0.000000
vn -1.000000 0.000000 0.000000
vn 1.000000 0.000000 0.000000
vn 1.000000 0.000000 0.000000
vn 0.000000 -0.000000 1.000000
vn 0.000000 0.000000 1.000000
vn 0.000000 -0.000000 -1.000000
vn -0.000000 0.000000 -1.000000
vn -1.000000 0.000000 0.000000
vn -1.000000 0.000000 0.000000
vn 1.000000 0.000000 0.000000
vn 1.000000 0.000000 0.000000
vn 0.000000 -0.000000 1.000000
vn 0.000000 0.000000 1.000000
vn 0.000000 -0.000000 -1.000000
vn -0.000000 0.000000 -1.000000
vn -1.000000 0.000000 0.000000
vn -1.000000 0.000000 0.000000
vn 1.000000 0.000000 0.000000
vn 1.000000 0.000000 0.000000
vn 0.000000 -0.000000 1.000000
vn 0.000000 0.000000 1.000000
vn 0.000000 -0.000000 -1.000000
vn -0.000000 0.000000 -1.000000
vn -1.000000 0.000000 0.000000
vn -1.000000 0.000000 0.000000
vn 1.000000 0.000000 0.000000
vn 1.000000 0.000000 0.000000
vn 0.000000 -0.000000 1.000000
vn 0.000000 0.000000 1.000000
vn 0.000000 -0.000000 -1.000000
vn -0.000000 0.000000 -1.000000
vn -1.000000 0.000000 0.000000
vn -1.000000 0.000000 0.000000
vn 1.000000 0.000000 0.000000
vn 1.000000 0.000000 0.000000
vn 0.000000 -0.000000 1.000000
vn 0.000000 0.000000 1.000000
vn 0.000000 -0.000000 -1.000000
vn -0.000000 0.000000 -1.000000
vn -1.000000 0.000000 0.000000
vn -1.000000 0.000000 0.000000
vn 1.000000 0.000000 0.000000
vn 1.000000 0.000000 0.000000
vn 0.000000 -0.000000 1.000000
vn 0.000000 0.000000 1.000000
vn 0.000000 -0.000000 -1.000000
vn -0.000000 0.000000 -1.000000
vn -1.000000 0.000000 0.000000
vn -1.000000 0.000000 0.000000
vn 1.000000 0.000000 0.000000
vn 1.000000 0.000000 0.000000
vn 0.000000 -0.000000 1.000000
vn 0.000000 0.000000 1.000000
vn 0.000000 -0.000000 -1.000000
vn -0.000000 0.000000 -1.000000
vn -1.000000 0.000000 0.000000
vn -1.000000 0.000000 0.000000
vn 1.000000 0.000000 0.000000
vn 1.000000 0.000000 0.000000
vn 0.000000 -0.000000 1.000000
vn 0.000000 0.000000 1.000000
vn 0.000000 -0.000000 -1.000000
vn -0.000000 0.000000 -1.000000
vn -1.000000 0.000000 0.000000
vn -1.000000 0.000000 0.000000
vn 1.000000 0.000000 0.000000
vn 1.000000 0.000000 0.000000
vn 0.000000 -0.000000 1.000000
vn 0.000000 0.000000 1.000000
vn 0.000000 -0.000000 -1.000000
vn -0.000000 0.000000 -1.000000
vn -1.000000 0.000000 0.000000
vn -1.000000 0.000000 0.000000
vn 1.000000 0.000000 0.000000
vn 1.000000 0.000000 0.000000
vn 0.000000 -0.000000 1.000000
vn 0.000000 0.000000 1.000000
vn 0.000000 -0.000000 -1.000000
vn -0.000000 0.000000 -1.000000
vn -1.000000 0.000000 0.000000
vn -1.000000 0.000000 0.000000
vn 1.000000 0.000000 0.000000
vn 1.000000 0.000000 0.000000
vn 0.000000 -0.000000 1.000000
vn 0.000000 0.000000 1.000000
vn 0.000000 -0.000000 -1.000000
vn -0.000000 0.000000 -1.000000
vn -1.000000 0.000000 0.000000
vn -1.000000 0.000000 0.000000
vn 1.000000 0.000000 0.000000
vn 1.000000 0.000000 0.000000
vn 0.000000 -0.000000 1.000000
vn 0.000000 0.000000 1.000000
vn 0.000000 -0.000000 -1.000000
vn -0.000000 0.000000 -1.000000
vn -1.000000 0.000000 0.000000
vn -1.000000 0.000000 0.000000
vn 1.000000 0.000000 0.000000
vn 1.000000 0.000000 0.000000
vn 0.000000 -0.000000 1.000000
vn 0.000000 0.000000 1.000000
vn 0.000000 -0.000000 -1.000000
vn -0.000000 0.000000 -1.000000
vn -1.000000 0.000000 0.000000
vn -1.000000 0.000000 0.000000
vn 1.000000 0.000000 0.000000
vn 1.000000 0.000000 0.000000
vn 0.000000 -0.000000 1.000000
vn 0.000000 0.000000 1.000000
vn 0.000000 -0.000000 -1.000000
vn -0.000000 0.000000 -1.000000
vn -1.000000 0.000000 0.000000
vn -1.000000 0.000000 0.000000
vn 1.000000 0.000000 0.000000
vn 1.000000 0.000000 0.000000
vn 0.000000 -0.000000 1.000000
vn 0.000000 0.000000 1.000000
vn 0.000000 -0.000000 -1.000000
vn -0.000000 0.000000 -1.000000
vn -1.000000 0.000000 0.000000
vn -1.000000 0.000000 0.000000
vn 1.000000 0.000000 0.000000
vn 1.000000 0.000000 0.000000
vn 0.000000 -0.000000 1.000000
vn 0.000000 0.000000 1.000000
vn 0.000000 -0.000000 -1.000000
vn -0.000000 0.000000 -1.000000
vn -1.000000 0.000000 0.000000
vn -1.000000 0.000000 0.000000
vn 1.000000 0.000000 0.000000
vn 1.000000 0.000000 0.000000
vn 0.000000 -0.000000 1.000000
vn 0.000000 0.000000 1.000000
vn 0.000000 -0.000000 -1.000000
vn -0.000000 0.000000 -1.000000
vn -1.000000 0.000000 0.000000
vn -1.000000 0.000000 0.000000
vn 1.000000 0.000000 0.000000
vn 1.000000 0.000000 0.000000
vn 0.000000 -0.000000 1.000000
vn 0.000000 0.000000 1.000000
vn 0.000000 -0.000000 -1.000000
vn -0.000000 0.000000 -1.000000
vn -1.000000 0.000000 0.000000
vn -1.000000 0.000000 0.000000
vn 1.000000 0.000000 0.000000
vn 1.000000 0.000000 0.000000
vn 0.000000 -0.000000 1.000000
vn 0.000000 0.000000 1.000000
vn 0.000000 -0.000000 -1.000000
vn -0.000000 0.000000 -1.000000
vn -1.000000 0.000000 0.000000
vn -1.000000 0.000000 0.000000
vn 1.000000 0.000000 0.000000
vn 1.000000 0.000000 0.000000
vn 0.000000 -0.000000 1.000000
vn 0.000000 0.000000 1.000000
vn 0.000000 -0.000000 -1.000000
vn -0.000000 0.000000 -1.000000
vn -1.000000 0.000000 0.000000
vn -1.000000 0.000000 0.000000
vn 1.000000 0.000000 0.000000
vn 1.000000 0.000000 0.000000
vn 0.000000 -0.000000 1.000000
vn 0.000000 0.000000 1.000000
vn 0.000000 -0.000000 -1.000000
vn -0.000000 0.000000 -1.000000
vn -1.000000 0.000000 0.000000
vn -1.000000 0.000000 0.000000
vn 1.000000 0.000000 0.000000
vn 1.000000 0.000000 0.000000
vn 0.000000 -0.000000 1.000000
vn 0.000000 0.000000 1.000000
vn 0.000000 -0.000000 -1.000000
vn -0.000000 0.000000 -1.000000
vn -1.000000 0.000000 0.000000
vn -1.000000 0.000000 0.000000
vn 1.000000 0.000000 0.000000
vn 1.000000 0.000000 0.000000
vn 0.000000 -0.000000 1.000000
vn 0.000000 0.000000 1.000000
vn 0.000000 -0.000000 -1.000000
vn -0.000000 0.000000 -1.000000
vn -1.000000 0.000000 0.000000
vn -1.000000 0.000000 0.000000
vn 1.000000 0.000000 0.000000
vn 1.000000 0.000000 0.000000
vn 0.000000 -0.000000 1.000000
vn 0.000000 0.000000 1.000000
vn 0.000000 -0.000000 -1.000000
vn -0.000000 0.000000 -1.000000
vn -1.000000 0.000000 0.000000
vn -1.000000 0.000000 0.000000
vn 1.000000 0.000000 0.000000
vn 1.000000 0.000000 0.000000
vn 0.000000 -0.000000 1.000000
vn 0.000000 0.000000 1.000000
vn 0.000000 -0.000000 -1.000000
vn -0.000000 0.000000 -1.000000
vn -1.000000 0.000000 0.000000
vn -1.000000 0.000000 0.000000
vn 1.000000 0.000000 0.000000
vn 1.000000 0.000000 0.000000
vn 0.000000 -0.000000 1.000000
vn 0.000000 0.000000 1.000000
vn 0.000000 -0.000000 -1.000000
vn -0.000000 0.000000 -1.000000
vn -1.000000 0.000000 0.000000
vn -1.000000 0.000000 0.000000
vn 1.000000 0.000000 0.000000
vn 1.000000 0.000000 0.000000
vn 0.000000 -0.000000 1.000000
vn 0.000000 0.000000 1.000000
vn 0.000000 -0.000000 -1.000000
vn -0.000000 0.000000 -1.000000
vn -1.000000 0.000000 0.000000
vn -1.000000 0.000000 0.000000
vn 1.000000 0.000000 0.000000
vn 1.000000 0.000000 0.000000
vn 0.000000 -0.000000 1.000000
vn 0.000000 0.000000 1.000000
vn 0.000000 -0.000000 -1.000000
vn -0.000000 0.000000 -1.000000
vn -1.000000 0.000000 0.000000
vn -1.000000 0.000000 0.000000
vn 1.000000 0.000000 0.000000
vn 1.000000 0.000000 0.000000
vn 0.000000 -0.000000 1.000000
vn 0.000000 0.000000 1.000000
vn 0.000000 -0.000000 -1.000000
vn -0.000000 0.000000 -1.000000
vn -1.000000 0.000000 0.000000
vn -1.000000 0.000000 0.000000
vn 1.000000 0.000000 0.000000
vn 1.000000 0.000000 0.000000
vn 0.000000 -0.000000 1.000000
vn 0.000000 0.000000 1.000000
vn 0.000000 -0.000000 -1.000000
vn -0.000000 0.000000 -1.000000
vn -1.000000 0.000000 0.000000
vn -1.000000 0.000000 0.000000
vn 1.000000 0.000000 0.000000
vn 1.000000 0.000000 0.000000
vn 0.000000 -0.000000 1.000000
vn 0.000000 0.000000 1.000000
vn 0.000000 -0.000000 -1.000000
vn -0.000000 0.000000 -1.000000
vn -1.000000 0.000000 0.000000
vn -1.000000 0.000000 0.000000
vn 1.000000 0.000000 0.000000
vn 1.000000 0.000000 0.000000
vn 0.000000 -0.000000 1.000000
vn 0.000000 0.000000 1.000000
vn 0.000000 -0.000000 -1.000000
vn -0.000000 0.000000 -1.000000
vn -1.000000 0.000000 0.000000
vn -1.000000 0.000000 0.000000
vn 0.000000 -0.000000 1.000000
vn 0.000000 0.000000 1.000000
vn 1.000000 0.000000 0.000000
vn 1.000000 0.000000 0.000000
vn 0.000000 1.000000 0.000000
vn 0.000000 1.000000 -0.000000
vn 0.000000 1.000000 0.000000
vn 0.000000 1.000000 -0.000000
vn 0.000000 1.000000 0.000000
vn 0.000000 1.000000 -0.000000
vn 0.000000 1.000000 0.000000
vn 0.000000 1.000000 -0.000000
vn 0.000000 1.000000 0.000000
vn 0.000000 1.000000 -0.000000
vn 0.000000 1.000000 0.000000
vn 0.000000 1.000000 -0.000000
vn 0.000000 1.000000 0.000000
vn 0.000000 1.000000 -0.000000
vn 0.000000 1.000000 0.000000
vn 0.000000 1.000000 -0.000000
vn 0.000000 1.000000 0.000000
vn 0.000000 1.000000 -0.000000
vn 0.000000 1.000000 0.000000
vn 0.000000 1.000000 -0.000000
vn 0.000000 1.000000 0.000000
vn 0.000000 1.000000 -0.000000
vn 0.000000 1.000000 0.000000
vn 0.000000 1.000000 -0.000000
vn 0.000000 1.000000 0.000000
vn 0.000000 1.000000 -0.000000
vn 0.000000 1.000000 0.000000
vn 0.000000 1.000000 -0.000000
vn 0.000000 1.000000 0.000000
vn 0.000000 1.000000 -0.000000
vn 0.000000 1.000000 0.000000
vn 0.000000 1.000000 -0.000000
vn 0.000000 1.000000 0.000000
vn 0.000000 1.000000 -0.000000
vn 0.000000 1.000000 0.000000
vn 0.000000 1.000000 -0.000000
vn 0.000000 1.000000 0.000000
vn 0.000000 1.000000 -0.000000
vn 0.000000 1.000000 0.000000
vn 0.000000 1.000000 -0.000000
vn 0.000000 1.000000 0.000000
vn 0.000000 1.000000 -0.000000
vn 0.000000 1.000000 0.000000
vn 0.000000 1.000000 -0.000000
vn 0.000000 1.000000 0.000000
vn 0.000000 1.000000 -0.000000
vn 0.000000 1.000000 0.000000
vn 0.000000 1.000000 -0.000000
vn 0.000000 1.000000 0.000000
vn 0.000000 1.000000 -0.000000
vn 0.000000 1.000000 0.000000
vn 0.000000 1.000000 -0.000000
vn 0.000000 1.000000 0.000000
vn 0.000000 1.000000 -0.000000
vn 0.000000 1.000000 0.000000
vn 0.000000 1.000000 -0.000000
vn 0.000000 1.000000 0.000000
vn 0.000000 1.000000 -0.000000
vn 0.000000 1.000000 0.000000
vn 0.000000 1.000000 -0.000000
vn 0.000000 1.000000 0.000000
vn 0.000000 1.000000 -0.000000
vn 0.000000 1.000000 0.000000
vn 0.000000 1.000000 -0.000000
vn 0.000000 1.000000 0.000000
vn 0.000000 1.000000 -0.000000
f 1//1 2//1 3//1
f 3//2 2//2 4//2
f 5//3 6//3 1//3
f 1//4 6//4 2//4
f 7//5 2//5 8//5
f 9//6 2//6 7//6
f 10//7 2//7 9//7
f 11//8 2//8 10//8
f 12//9 2//9 11//9
f 13//10 2//10 6//10
f 13//11 8//11 2//11
f 14//12 13//12 6//12
f 15//13 7//13 14//13
f 15//14 14//14 6//14
f 15//15 9//15 7//15
f 16//16 15//16 6//16
f 17//17 10//17 16//17
f 17//18 11//18 10//18
f 17//19 16//19 6//19
f 18//20 17//20 6//20
f 19//21 12//21 18//21
f 19//22 20//22 12//22
f 21//23 22//23 23//23
f 21//24 24//24 22//24
f 25//25 26//25 27//25
f 25//26 28//26 26//26
f 29//27 30//27 31//27
f 29//28 32//28 30//28
f 33//29 34//29 35//29
f 33//30 36//30 34//30
f 37//31 38//31 39//31
f 37//32 40//32 38//32
f 41//33 42//33 43//33
f 41//34 44//34 42//34
f 45//35 46//35 47//35
f 45//36 47//36 48//36
f 49//37 50//37 51//37
f 49//38 51//38 52//38
f 53//39 54//39 55//39
f 53//40 55//40 56//40
f 57//41 58//41 59//41
f 57//42 59//42 60//42
f 61//43 62//43 63//43
f 61//44 63//44 64//44
f 65//45 66//45 67//45
f 65//46 67//46 68//46
f 69//47 70//47 71//47
f 69//48 71//48 72//48
f 73//49 74//49 75//49
f 73//50 75//50 76//50
f 77//51 78//51 79//51
f 77//52 79//52 80//52
f 81//53 82//53 83//53
f 81//54 83//54 84//54
f 85//55 86//55 87//55
f 85//56 88//56 86//56
f 89//57 90//57 91//57
f 89//58 92//58 90//58
f 93//59 94//59 95//59
f 93//60 96//60 94//60
f 97//61 98//61 99//61
f 97//62 99//62 100//62
f 101//63 102//63 103//63
f 101//64 103//64 104//64
f 105//65 106//65 107//65
f 105//66 108//66 106//66
f 4//67 109//67 110//67
f 4//68 111//68 112//68
f 4//69 113//69 114//69
f 4//70 115//70 109//70
f 4//71 112//71 113//71
f 4//72 110//72 111//72
f 116//73 117//73 118//73
f 116//74 119//74 117//74
f 120//75 121//75 122//75
f 120//76 123//76 121//76
f 124//77 125//77 126//77
f 124//78 127//78 125//78
f 128//79 129//79 130//79
f 128//80 131//80 129//80
f 132//81 115//81 133//81
f 132//82 109//82 115//82
f 134//83 110//83 135//83
f 134//84 111//84 110//84
f 136//85 112//85 137//85
f 136//86 113//86 112//86
f 138//87 4//87 114//87
f 139//88 134//88 135//88
f 139//89 4//89 138//89
f 139//90 135//90 132//90
f 139//91 137//91 134//91
f 139//92 138//92 136//92
f 139//93 132//93 133//93
f 139//94 136//94 137//94
f 4//95 2//95 12//95
f 4//96 12//96 20//96
f 4//97 20//97 22//97
f 4//98 22//98 24//98
f 4//99 24//99 26//99
f 4//100 26//100 28//100
f 4//101 28//101 30//101
f 4//102 30//102 32//102
f 4//103 32//103 34//103
f 4//104 34//104 36//104
f 4//105 36//105 38//105
f 4//106 38//106 40//106
f 4//107 40//107 42//107
f 4//108 42//108 44//108
f 4//109 44//109 47//109
f 4//110 47//110 46//110
f 4//111 46//111 51//111
f 4//112 51//112 50//112
f 4//113 50//113 55//113
f 4//114 55//114 54//114
f 4//115 54//115 59//115
f 4//116 59//116 58//116
f 4//117 58//117 63//117
f 4//118 63//118 62//118
f 4//119 62//119 67//119
f 4//120 67//120 66//120
f 4//121 66//121 71//121
f 4//122 71//122 70//122
f 4//123 70//123 75//123
f 4//124 75//124 74//124
f 4//125 74//125 79//125
f 4//126 79//126 78//126
f 4//127 78//127 83//127
f 4//128 83//128 82//128
f 4//129 82//129 86//129
f 4//130 86//130 88//130
f 4//131 88//131 90//131
f 4//132 90//132 92//132
f 4//133 92//133 94//133
f 4//134 94//134 96//134
f 4//135 96//135 99//135
f 4//136 99//136 98//136
f 4//137 98//137 103//137
f 4//138 103//138 102//138
f 4//139 102//139 106//139
f 4//140 106//140 108//140
f 4//141 108//141 117//141
f 4//142 117//142 119//142
f 4//143 119//143 121//143
f 4//144 121//144 123//144
f 4//145 123//145 125//145
f 4//146 125//146 127//146
f 4//147 127//147 129//147
f 4//148 129//148 131//148
f 4//149 131//149 115//149
f 6//150 139//150 133//150
f 6//151 133//151 128//151
f 6//152 128//152 130//152
f 6//153 130//153 124//153
f 6//154 124//154 126//154
f 6//155 126//155 120//155
f 6//156 120//156 122//156
f 6//157 122//157 116//157
f 6//158 116//158 118//158
f 6//159 118//159 105//159
f 6//160 105//160 107//160
f 6//161 107//161 101//161
f 6//162 101//162 104//162
f 6//163 104//163 97//163
f 6//164 97//164 100//164
f 6//165 100//165 93//165
f 6//166 93//166 95//166
f 6//167 95//167 89//167
f 6//168 89//168 91//168
f 6//169 91//169 85//169
f 6//170 85//170 87//170
f 6//171 87//171 81//171
f 6//172 81//172 84//172
f 6//173 84//173 77//173
f 6//174 77//174 80//174
f 6//175 80//175 73//175
f 6//176 73//176 76//176
f 6//177 76//177 69//177
f 6//178 69//178 72//178
f 6//179 72//179 65//179
f 6//180 65//180 68//180
f 6//181 68//181 61//181
f 6//182 61//182 64//182
f 6//183 64//183 57//183
f 6//184 57//184 60//184
f 6//185 60//185 53//185
f 6//186 53//186 56//186
f 6//187 56//187 49//187
f 6//188 49//188 52//188
f 6//189 52//189 45//189
f 6//190 45//190 48//190
f 6//191 48//191 41//191
f 6//192 41//192 43//192
f 6//193 43//193 37//193
f 6//194 37//194 39//194
f 6//195 39//195 33//195
f 6//196 33//196 35//196
f 6//197 35//197 29//197
f 6//198 29//198 31//198
f 6//199 31//199 25//199
f 6//200 25//200 27//200
f 6//201 27//201 21//201
f 6//202 21//202 23//202
f 6//203 23//203 19//203
f 6//204 19//204 18//204
f 139//205 140//205 3//205
f 139//206 3//206 4//206
f 1//207 3//207 5//207
f 3//208 140//208 5//208
f 6//209 5//209 140//209
f 6//210 140//210 139//210
f 13//211 141//211 142//211
f 13//212 142//212 8//212
f 141//213 14//213 143//213
f 141//214 13//214 14//214
f 7//215 142//215 144//215
f 8//216 142//216 7//216
f 143//217 14//217 144//217
f 144//218 14//218 7//218
f 15//219 145//219 146//219
f 15//220 146//220 9//220
f 145//221 16//221 147//221
f 145//222 15//222 16//222
f 10//223 146//223 148//223
f 9//224 146//224 10//224
f 147//225 16//225 148//225
f 148//226 16//226 10//226
f 17//227 149//227 150//227
f 17//228 150//228 11//228
f 149//229 18//229 151//229
f 149//230 17//230 18//230
f 12//231 150//231 152//231
f 11//232 150//232 12//232
f 151//233 18//233 152//233
f 152//234 18//234 12//234
f 19//235 153//235 154//235
f 19//236 154//236 20//236
f 153//237 23//237 155//237
f 153//238 19//238 23//238
f 22//239 154//239 156//239
f 20//240 154//240 22//240
f 155//241 23//241 156//241
f 156//242 23//242 22//242
f 21//243 157//243 158//243
f 21//244 158//244 24//244
f 157//245 27//245 159//245
f 157//246 21//246 27//246
f 26//247 158//247 160//247
f 24//248 158//248 26//248
f 159//249 27//249 160//249
f 160//250 27//250 26//250
f 25//251 161//251 162//251
f 25//252 162//252 28//252
f 161//253 31//253 163//253
f 161//254 25//254 31//254
f 30//255 162//255 164//255
f 28//256 162//256 30//256
f 163//257 31//257 164//257
f 164//258 31//258 30//258
f 29//259 165//259 166//259
f 29//260 166//260 32//260
f 165//261 35//261 167//261
f 165//262 29//262 35//262
f 34//263 166//263 168//263
f 32//264 166//264 34//264
f 167//265 35//265 168//265
f 168//266 35//266 34//266
f 33//267 169//267 170//267
f 33//268 170//268 36//268
f 169//269 39//269 171//269
f 169//270 33//270 39//270
f 38//271 170//271 172//271
f 36//272 170//272 38//272
f 171//273 39//273 172//273
f 172//274 39//274 38//274
f 37//275 173//275 174//275
f 37//276 174//276 40//276
f 173//277 43//277 175//277
f 173//278 37//278 43//278
f 42//279 174//279 176//279
f 40//280 174//280 42//280
f 175//281 43//281 176//281
f 176//282 43//282 42//282
f 41//283 177//283 178//283
f 41//284 178//284 44//284
f 177//285 48//285 179//285
f 177//286 41//286 48//286
f 47//287 178//287 180//287
f 44//288 178//288 47//288
f 179//289 48//289 180//289
f 180//290 48//290 47//290
f 45//291 181//291 182//291
f 45//292 182//292 46//292
f 181//293 52//293 183//293
f 181//294 45//294 52//294
f 51//295 182//295 184//295
f 46//296 182//296 51//296
f 183//297 52//297 184//297
f 184//298 52//298 51//298
f 49//299 185//299 186//299
f 49//300 186//300 50//300
f 185//301 56//301 187//301
f 185//302 49//302 56//302
f 55//303 186//303 188//303
f 50//304 186//304 55//304
f 187//305 56//305 188//305
f 188//306 56//306 55//306
f 53//307 189//307 190//307
f 53//308 190//308 54//308
f 189//309 60//309 191//309
f 189//310 53//310 60//310
f 59//311 190//311 192//311
f 54//312 190//312 59//312
f 191//313 60//313 192//313
f 192//314 60//314 59//314
f 57//315 193//315 194//315
f 57//316 194//316 58//316
f 193//317 64//317 195//317
f 193//318 57//318 64//318
f 63//319 194//319 196//319
f 58//320 194//320 63//320
f 195//321 64//321 196//321
f 196//322 64//322 63//322
f 61//323 197//323 198//323
f 61//324 198//324 62//324
f 197//325 68//325 199//325
f 197//326 61//326 68//326
f 67//327 198//327 200//327
f 62//328 198//328 67//328
f 199//329 68//329 200//329
f 200//330 68//330 67//330
f 65//331 201//331 202//331
f 65//332 202//332 66//332
f 201//333 72//333 203//333
f 201//334 65//334 72//334
f 71//335 202//335 204//335
f 66//336 202//336 71//336
f 203//337 72//337 204//337
f 204//338 72//338 71//338
f 69//339 205//339 206//339
f 69//340 206//340 70//340
f 205//341 76//341 207//341
f 205//342 69//342 76//342
f 75//343 206//343 208//343
f 70//344 206//344 75//344
f 207//345 76//345 208//345
f 208//346 76//346 75//346
f 73//347 209//347 210//347
f 73//348 210//348 74//348
f 209//349 73//349 211//349
f 211//350 73//350 80//350
f 74//351 210//351 212//351
f 74//352 212//352 79//352
f 211//353 80//353 212//353
f 212//354 80//354 79//354
f 77//355 213//355 214//355
f 77//356 214//356 78//356
f 213//357 84//357 215//357
f 213//358 77//358 84//358
f 83//359 214//359 216//359
f 78//360 214//360 83//360
f 215//361 84//361 216//361
f 216//362 84//362 83//362
f 81//363 217//363 218//363
f 81//364 218//364 82//364
f 217//365 87//365 219//365
f 217//366 81//366 87//366
f 86//367 218//367 220//367
f 82//368 218//368 86//368
f 219//369 87//369 220//369
f 220//370 87//370 86//370
f 85//371 221//371 222//371
f 85//372 222//372 88//372
f 221//373 91//373 223//373
f 221//374 85//374 91//374
f 90//375 222//375 224//375
f 88//376 222//376 90//376
f 223//377 91//377 224//377
f 224//378 91//378 90//378
f 89//379 225//379 226//379
f 89//380 226//380 92//380
f 225//381 95//381 227//381
f 225//382 89//382 95//382
f 94//383 226//383 228//383
f 92//384 226//384 94//384
f 227//385 95//385 228//385
f 228//386 95//386 94//386
f 93//387 229//387 230//387
f 93//388 230//388 96//388
f 229//389 100//389 231//389
f 229//390 93//390 100//390
f 99//391 230//391 232//391
f 96//392 230//392 99//392
f 231//393 100//393 232//393
f 232//394 100//394 99//394
f 97//395 233//395 234//395
f 97//396 234//396 98//396
f 233//397 104//397 235//397
f 233//398 97//398 104//398
f 103//399 234//399 236//399
f 98//400 234//400 103//400
f 235//401 104//401 236//401
f 236//402 104//402 103//402
f 101//403 237//403 238//403
f 101//404 238//404 102//404
f 237//405 107//405 239//405
f 237//406 101//406 107//406
f 106//407 238//407 240//407
f 102//408 238//408 106//408
f 239//409 107//409 240//409
f 240//410 107//410 106//410
f 105//411 241//411 242//411
f 105//412 242//412 108//412
f 241//413 118//413 243//413
f 241//414 105//414 118//414
f 117//415 242//415 244//415
f 108//416 242//416 117//416
f 243//417 118//417 244//417
f 244//418 118//418 117//418
f 116//419 245//419 246//419
f 116//420 246//420 119//420
f 245//421 122//421 247//421
f 245//422 116//422 122//422
f 121//423 246//423 248//423
f 119//424 246//424 121//424
f 247//425 122//425 248//425
f 248//426 122//426 121//426
f 120//427 249//427 250//427
f 120//428 250//428 123//428
f 249//429 126//429 251//429
f 249//430 120//430 126//430
f 125//431 250//431 252//431
f 123//432 250//432 125//432
f 251//433 126//433 252//433
f 252//434 126//434 125//434
f 124//435 253//435 254//435
f 124//436 254//436 127//436
f 253//437 130//437 255//437
f 253//438 124//438 130//438
f 129//439 254//439 256//439
f 127//440 254//440 129//440
f 255//441 130//441 256//441
f 256//442 130//442 129//442
f 128//443 257//443 258//443
f 128//444 258//444 131//444
f 257//445 133//445 259//445
f 257//446 128//446 133//446
f 115//447 258//447 260//447
f 131//448 258//448 115//448
f 259//449 133//449 260//449
f 260//450 133//450 115//450
f 132//451 261//451 262//451
f 132//452 262//452 109//452
f 261//453 135//453 263//453
f 261//454 132//454 135//454
f 110//455 262//455 264//455
f 109//456 262//456 110//456
f 263//457 135//457 264//457
f 264//458 135//458 110//458
f 134//459 265//459 266//459
f 134//460 266//460 111//460
f 265//461 137//461 267//461
f 265//462 134//462 137//462
f 112//463 266//463 268//463
f 111//464 266//464 112//464
f 267//465 137//465 268//465
f 268//466 137//466 112//466
f 136//467 269//467 270//467
f 136//468 270//468 113//468
f 269//469 138//469 271//469
f 269//470 136//470 138//470
f 271//471 138//471 272//471
f 272//472 138//472 114//472
f 114//473 270//473 272//473
f 113//474 270//474 114//474
f 141//475 144//475 142//475
f 143//476 144//476 141//476
f 145//477 148//477 146//477
f 147//478 148//478 145//478
f 149//479 152//479 150//479
f 151//480 152//480 149//480
f 153//481 156//481 154//481
f 155//482 156//482 153//482
f 157//483 160//483 158//483
f 159//484 160//484 157//484
f 161//485 164//485 162//485
f 163//486 164//486 161//486
f 165//487 168//487 166//487
f 167//488 168//488 165//488
f 169//489 172//489 170//489
f 171//490 172//490 169//490
f 173//491 176//491 174//491
f 175//492 176//492 173//492
f 177//493 180//493 178//493
f 179//494 180//494 177//494
f 181//495 184//495 182//495
f 183//496 184//496 181//496
f 185//497 188//497 186//497
f 187//498 188//498 185//498
f 189//499 192//499 190//499
f 191//500 192//500 189//500
f 193//501 196//501 194//501
f 195//502 196//502 193//502
f 197//503 200//503 198//503
f 199//504 200//504 197//504
f 201//505 204//505 202//505
f 203//506 204//506 201//506
f 205//507 208//507 206//507
f 207//508 208//508 205//508
f 209//509 212//509 210//509
f 211//510 212//510 209//510
f 213//511 216//511 214//511
f 215//512 216//512 213//512
f 217//513 220//513 218//513
f 219//514 220//514 217//514
f 221//515 224//515 222//515
f 223//516 224//516 221//516
f 225//517 228//517 226//517
f 227//518 228//518 225//518
f 229//519 232//519 230//519
f 231//520 232//520 229//520
f 233//521 236//521 234//521
f 235//522 236//522 233//522
f 237//523 240//523 238//523
f 239//524 240//524 237//524
f 241//525 244//525 242//525
f 243//526 244//526 241//526
f 245//527 248//527 246//527
f 247//528 248//528 245//528
f 249//529 252//529 250//529
f 251//530 252//530 249//530
f 253//531 256//531 254//531
f 255//532 256//532 253//532
f 257//533 260//533 258//533
f 259//534 260//534 257//534
f 261//535 264//535 262//535
f 263//536 264//536 261//536
f 265//537 268//537 266//537
f 267//538 268//538 265//538
f 269//539 272//539 270//539
f 271//540 272//540 269//540
