# Created by FreeCAD <https://www.freecad.org>
v 2.200000 -0.520756 -0.455348
v 2.200000 -0.503420 -0.468457
v 2.200000 -0.505348 -0.470756
v 2.200000 -0.518457 -0.453420
v 2.200000 -0.533253 -0.437500
v 2.200000 -0.486000 -0.480655
v 2.200000 -0.487500 -0.483253
v 2.200000 -0.530655 -0.436000
v 2.200000 -0.542462 -0.417753
v 2.200000 -0.466726 -0.489643
v 2.200000 -0.467753 -0.492462
v 2.200000 -0.539643 -0.416726
v 2.200000 -0.548101 -0.396706
v 2.200000 -0.446185 -0.495147
v 2.200000 -0.446706 -0.498101
v 2.200000 -0.545147 -0.396185
v 2.200000 -0.550000 -0.375000
v 2.200000 -0.425000 -0.497000
v 2.200000 -0.425000 -0.500000
v 2.200000 -0.547000 -0.375000
v 2.200000 -0.550000 0.375000
v 2.200000 -0.547000 0.375000
v 2.200000 -0.548101 0.396706
v 2.200000 -0.545147 0.396185
v 2.200000 -0.542462 0.417753
v 2.200000 -0.539643 0.416726
v 2.200000 -0.533253 0.437500
v 2.200000 -0.530655 0.436000
v 2.200000 0.425000 -0.497000
v 2.200000 0.425000 -0.500000
v 2.200000 -0.520756 0.455348
v 2.200000 -0.518457 0.453420
v 2.200000 0.446185 -0.495147
v 2.200000 0.446706 -0.498101
v 2.200000 -0.505348 0.470756
v 2.200000 -0.503420 0.468457
v 2.200000 0.466726 -0.489643
v 2.200000 0.467753 -0.492462
v 2.200000 -0.486000 0.480655
v 2.200000 -0.487500 0.483253
v 2.200000 0.487500 -0.483253
v 2.200000 0.486000 -0.480655
v 2.200000 -0.467753 0.492462
v 2.200000 -0.466726 0.489643
v 2.200000 0.503420 -0.468457
v 2.200000 0.505348 -0.470756
v 2.200000 -0.446706 0.498101
v 2.200000 -0.446185 0.495147
v 2.200000 0.518457 -0.453420
v 2.200000 0.520756 -0.455348
v 2.200000 -0.425000 0.497000
v 2.200000 -0.425000 0.500000
v 2.200000 0.530655 -0.436000
v 2.200000 0.533253 -0.437500
v 2.200000 0.542462 -0.417753
v 2.200000 0.539643 -0.416726
v 2.200000 0.545147 -0.396185
v 2.200000 0.548101 -0.396706
v 2.200000 0.547000 -0.375000
v 2.200000 0.550000 -0.375000
v 2.200000 0.550000 0.375000
v 2.200000 0.547000 0.375000
v 2.200000 0.425000 0.500000
v 2.200000 0.425000 0.497000
v 2.200000 0.545147 0.396185
v 2.200000 0.446706 0.498101
v 2.200000 0.446185 0.495147
v 2.200000 0.548101 0.396706
v 2.200000 0.467753 0.492462
v 2.200000 0.466726 0.489643
v 2.200000 0.542462 0.417753
v 2.200000 0.539643 0.416726
v 2.200000 0.530655 0.436000
v 2.200000 0.487500 0.483253
v 2.200000 0.486000 0.480655
v 2.200000 0.533253 0.437500
v 2.200000 0.503420 0.468457
v 2.200000 0.505348 0.470756
v 2.200000 0.520756 0.455348
v 2.200000 0.518457 0.453420
v 2.208000 -0.425000 0.500000
v 2.208000 0.425000 0.500000
v 2.208000 -0.446706 0.498101
v 2.208000 -0.467753 0.492462
v 2.208000 -0.487500 0.483253
v 2.208000 -0.505348 0.470756
v 2.208000 -0.520756 0.455348
v 2.208000 -0.533253 0.437500
v 2.208000 -0.542462 0.417753
v 2.208000 -0.548101 0.396706
v 2.208000 -0.550000 0.375000
v 2.208000 0.446706 0.498101
v 2.208000 0.467753 0.492462
v 2.208000 0.487500 0.483253
v 2.208000 0.505348 0.470756
v 2.208000 0.520756 0.455348
v 2.208000 0.533253 0.437500
v 2.208000 0.542462 0.417753
v 2.208000 0.548101 0.396706
v 2.208000 0.550000 0.375000
v 2.208000 -0.550000 -0.375000
v 2.208000 0.550000 -0.375000
v 2.208000 -0.446706 -0.498101
v 2.208000 -0.425000 -0.500000
v 2.208000 -0.467753 -0.492462
v 2.208000 -0.487500 -0.483253
v 2.208000 -0.505348 -0.470756
v 2.208000 -0.520756 -0.455348
v 2.208000 -0.533253 -0.437500
v 2.208000 -0.542462 -0.417753
v 2.208000 -0.548101 -0.396706
v 2.208000 0.446706 -0.498101
v 2.208000 0.425000 -0.500000
v 2.208000 0.467753 -0.492462
v 2.208000 0.487500 -0.483253
v 2.208000 0.505348 -0.470756
v 2.208000 0.520756 -0.455348
v 2.208000 0.533253 -0.437500
v 2.208000 0.542462 -0.417753
v 2.208000 0.548101 -0.396706
v 2.208000 -0.425000 0.497000
v 2.208000 -0.446185 0.495147
v 2.208000 -0.466726 0.489643
v 2.208000 -0.486000 0.480655
v 2.208000 -0.503420 0.468457
v 2.208000 -0.518457 0.453420
v 2.208000 -0.530655 0.436000
v 2.208000 -0.539643 0.416726
v 2.208000 -0.545147 0.396185
v 2.208000 -0.547000 0.375000
v 2.208000 -0.547000 -0.375000
v 2.208000 -0.446185 -0.495147
v 2.208000 -0.425000 -0.497000
v 2.208000 -0.466726 -0.489643
v 2.208000 -0.486000 -0.480655
v 2.208000 -0.503420 -0.468457
v 2.208000 -0.518457 -0.453420
v 2.208000 -0.530655 -0.436000
v 2.208000 -0.539643 -0.416726
v 2.208000 -0.545147 -0.396185
v 2.208000 0.425000 -0.497000
v 2.208000 0.446185 -0.495147
v 2.208000 0.466726 -0.489643
v 2.208000 0.486000 -0.480655
v 2.208000 0.503420 -0.468457
v 2.208000 0.518457 -0.453420
v 2.208000 0.530655 -0.436000
v 2.208000 0.539643 -0.416726
v 2.208000 0.545147 -0.396185
v 2.208000 0.547000 -0.375000
v 2.208000 0.547000 0.375000
v 2.208000 0.446185 0.495147
v 2.208000 0.425000 0.497000
v 2.208000 0.466726 0.489643
v 2.208000 0.486000 0.480655
v 2.208000 0.503420 0.468457
v 2.208000 0.518457 0.453420
v 2.208000 0.530655 0.436000
v 2.208000 0.539643 0.416726
v 2.208000 0.545147 0.396185
v 2.492000 -0.520756 -0.455348
v 2.492000 -0.503420 -0.468457
v 2.492000 -0.505348 -0.470756
v 2.492000 -0.518457 -0.453420
v 2.492000 -0.533253 -0.437500
v 2.492000 -0.486000 -0.480655
v 2.492000 -0.487500 -0.483253
v 2.492000 -0.530655 -0.436000
v 2.492000 -0.542462 -0.417753
v 2.492000 -0.466726 -0.489643
v 2.492000 -0.467753 -0.492462
v 2.492000 -0.539643 -0.416726
v 2.492000 -0.548101 -0.396706
v 2.492000 -0.446185 -0.495147
v 2.492000 -0.446706 -0.498101
v 2.492000 -0.545147 -0.396185
v 2.492000 -0.550000 -0.375000
v 2.492000 -0.425000 -0.497000
v 2.492000 -0.425000 -0.500000
v 2.492000 -0.547000 -0.375000
v 2.492000 -0.550000 0.375000
v 2.492000 -0.547000 0.375000
v 2.492000 -0.548101 0.396706
v 2.492000 -0.545147 0.396185
v 2.492000 -0.542462 0.417753
v 2.492000 -0.539643 0.416726
v 2.492000 -0.533253 0.437500
v 2.492000 -0.530655 0.436000
v 2.492000 0.425000 -0.497000
v 2.492000 0.425000 -0.500000
v 2.492000 -0.520756 0.455348
v 2.492000 -0.518457 0.453420
v 2.492000 0.446185 -0.495147
v 2.492000 0.446706 -0.498101
v 2.492000 -0.505348 0.470756
v 2.492000 -0.503420 0.468457
v 2.492000 0.466726 -0.489643
v 2.492000 0.467753 -0.492462
v 2.492000 -0.486000 0.480655
v 2.492000 -0.487500 0.483253
v 2.492000 0.487500 -0.483253
v 2.492000 0.486000 -0.480655
v 2.492000 -0.467753 0.492462
v 2.492000 -0.466726 0.489643
v 2.492000 0.503420 -0.468457
v 2.492000 0.505348 -0.470756
v 2.492000 -0.446706 0.498101
v 2.492000 -0.446185 0.495147
v 2.492000 0.518457 -0.453420
v 2.492000 0.520756 -0.455348
v 2.492000 -0.425000 0.497000
v 2.492000 -0.425000 0.500000
v 2.492000 0.530655 -0.436000
v 2.492000 0.533253 -0.437500
v 2.492000 0.542462 -0.417753
v 2.492000 0.539643 -0.416726
v 2.492000 0.545147 -0.396185
v 2.492000 0.548101 -0.396706
v 2.492000 0.547000 -0.375000
v 2.492000 0.550000 -0.375000
v 2.492000 0.550000 0.375000
v 2.492000 0.547000 0.375000
v 2.492000 0.425000 0.500000
v 2.492000 0.425000 0.497000
v 2.492000 0.545147 0.396185
v 2.492000 0.446706 0.498101
v 2.492000 0.446185 0.495147
v 2.492000 0.548101 0.396706
v 2.492000 0.467753 0.492462
v 2.492000 0.466726 0.489643
v 2.492000 0.542462 0.417753
v 2.492000 0.539643 0.416726
v 2.492000 0.530655 0.436000
v 2.492000 0.487500 0.483253
v 2.492000 0.486000 0.480655
v 2.492000 0.533253 0.437500
v 2.492000 0.503420 0.468457
v 2.492000 0.505348 0.470756
v 2.492000 0.520756 0.455348
v 2.492000 0.518457 0.453420
v 2.500000 -0.425000 0.500000
v 2.500000 0.425000 0.500000
v 2.500000 -0.446706 0.498101
v 2.500000 -0.467753 0.492462
v 2.500000 -0.487500 0.483253
v 2.500000 -0.505348 0.470756
v 2.500000 -0.520756 0.455348
v 2.500000 -0.533253 0.437500
v 2.500000 -0.542462 0.417753
v 2.500000 -0.548101 0.396706
v 2.500000 -0.550000 0.375000
v 2.500000 0.446706 0.498101
v 2.500000 0.467753 0.492462
v 2.500000 0.487500 0.483253
v 2.500000 0.505348 0.470756
v 2.500000 0.520756 0.455348
v 2.500000 0.533253 0.437500
v 2.500000 0.542462 0.417753
v 2.500000 0.548101 0.396706
v 2.500000 0.550000 0.375000
v 2.500000 -0.550000 -0.375000
v 2.500000 0.550000 -0.375000
v 2.500000 -0.446706 -0.498101
v 2.500000 -0.425000 -0.500000
v 2.500000 -0.467753 -0.492462
v 2.500000 -0.487500 -0.483253
v 2.500000 -0.505348 -0.470756
v 2.500000 -0.520756 -0.455348
v 2.500000 -0.533253 -0.437500
v 2.500000 -0.542462 -0.417753
v 2.500000 -0.548101 -0.396706
v 2.500000 0.446706 -0.498101
v 2.500000 0.425000 -0.500000
v 2.500000 0.467753 -0.492462
v 2.500000 0.487500 -0.483253
v 2.500000 0.505348 -0.470756
v 2.500000 0.520756 -0.455348
v 2.500000 0.533253 -0.437500
v 2.500000 0.542462 -0.417753
v 2.500000 0.548101 -0.396706
v 2.500000 -0.425000 0.497000
v 2.500000 -0.446185 0.495147
v 2.500000 -0.466726 0.489643
v 2.500000 -0.486000 0.480655
v 2.500000 -0.503420 0.468457
v 2.500000 -0.518457 0.453420
v 2.500000 -0.530655 0.436000
v 2.500000 -0.539643 0.416726
v 2.500000 -0.545147 0.396185
v 2.500000 -0.547000 0.375000
v 2.500000 -0.547000 -0.375000
v 2.500000 -0.446185 -0.495147
v 2.500000 -0.425000 -0.497000
v 2.500000 -0.466726 -0.489643
v 2.500000 -0.486000 -0.480655
v 2.500000 -0.503420 -0.468457
v 2.500000 -0.518457 -0.453420
v 2.500000 -0.530655 -0.436000
v 2.500000 -0.539643 -0.416726
v 2.500000 -0.545147 -0.396185
v 2.500000 0.425000 -0.497000
v 2.500000 0.446185 -0.495147
v 2.500000 0.466726 -0.489643
v 2.500000 0.486000 -0.480655
v 2.500000 0.503420 -0.468457
v 2.500000 0.518457 -0.453420
v 2.500000 0.530655 -0.436000
v 2.500000 0.539643 -0.416726
v 2.500000 0.545147 -0.396185
v 2.500000 0.547000 -0.375000
v 2.500000 0.547000 0.375000
v 2.500000 0.446185 0.495147
v 2.500000 0.425000 0.497000
v 2.500000 0.466726 0.489643
v 2.500000 0.486000 0.480655
v 2.500000 0.503420 0.468457
v 2.500000 0.518457 0.453420
v 2.500000 0.530655 0.436000
v 2.500000 0.539643 0.416726
v 2.500000 0.545147 0.396185
vn -1.000000 0.000000 0.000000
vn -1.000000 0.000000 -0.000000
vn -1.000000 0.000000 0.000000
vn -1.000000 0.000000 0.000000
vn -1.000000 0.000000 -0.000000
vn -1.000000 0.000000 0.000000
vn -1.000000 0.000000 0.000000
vn -1.000000 0.000000 0.000000
vn -1.000000 0.000000 -0.000000
vn -1.000000 0.000000 0.000000
vn -1.000000 0.000000 0.000000
vn -1.000000 0.000000 -0.000000
vn -1.000000 0.000000 0.000000
vn -1.000000 0.000000 0.000000
vn -1.000000 0.000000 0.000000
vn -1.000000 0.000000 -0.000000
vn -1.000000 0.000000 0.000000
vn -1.000000 0.000000 0.000000
vn -1.000000 0.000000 0.000000
vn -1.000000 0.000000 0.000000
vn -1.000000 0.000000 -0.000000
vn -1.000000 0.000000 0.000000
vn -1.000000 0.000000 0.000000
vn -1.000000 0.000000 -0.000000
vn -1.000000 0.000000 0.000000
vn -1.000000 0.000000 -0.000000
vn -1.000000 0.000000 0.000000
vn -1.000000 0.000000 0.000000
vn -1.000000 0.000000 -0.000000
vn -1.000000 0.000000 0.000000
vn -1.000000 0.000000 0.000000
vn -1.000000 0.000000 0.000000
vn -1.000000 0.000000 0.000000
vn -1.000000 0.000000 0.000000
vn -1.000000 0.000000 0.000000
vn -1.000000 0.000000 0.000000
vn -1.000000 0.000000 0.000000
vn -1.000000 0.000000 0.000000
vn -1.000000 0.000000 0.000000
vn -1.000000 0.000000 0.000000
vn -1.000000 0.000000 0.000000
vn -1.000000 0.000000 0.000000
vn -1.000000 0.000000 0.000000
vn -1.000000 0.000000 0.000000
vn -1.000000 0.000000 0.000000
vn -1.000000 0.000000 0.000000
vn -1.000000 0.000000 -0.000000
vn -1.000000 0.000000 0.000000
vn -1.000000 0.000000 0.000000
vn -1.000000 0.000000 0.000000
vn -1.000000 0.000000 -0.000000
vn -1.000000 0.000000 0.000000
vn -1.000000 0.000000 0.000000
vn -1.000000 0.000000 -0.000000
vn -1.000000 0.000000 -0.000000
vn -1.000000 0.000000 0.000000
vn -1.000000 0.000000 -0.000000
vn -1.000000 0.000000 0.000000
vn -1.000000 0.000000 0.000000
vn -1.000000 0.000000 0.000000
vn -1.000000 0.000000 0.000000
vn -1.000000 0.000000 0.000000
vn -1.000000 0.000000 0.000000
vn -1.000000 0.000000 0.000000
vn -1.000000 0.000000 0.000000
vn -1.000000 0.000000 0.000000
vn -1.000000 0.000000 -0.000000
vn -1.000000 0.000000 0.000000
vn -1.000000 0.000000 0.000000
vn -1.000000 0.000000 0.000000
vn -1.000000 0.000000 0.000000
vn -1.000000 0.000000 -0.000000
vn -1.000000 0.000000 0.000000
vn -1.000000 0.000000 0.000000
vn -1.000000 0.000000 -0.000000
vn -1.000000 0.000000 0.000000
vn -1.000000 0.000000 0.000000
vn -1.000000 0.000000 -0.000000
vn -1.000000 0.000000 0.000000
vn -1.000000 0.000000 0.000000
vn 0.000000 0.000000 1.000000
vn 0.000000 -0.000000 1.000000
vn 0.000000 -0.087155 0.996195
vn 0.000000 -0.087155 0.996195
vn 0.000000 -0.258819 0.965926
vn 0.000000 -0.422619 0.906307
vn 0.000000 -0.258819 0.965926
vn 0.000000 -0.422619 0.906307
vn 0.000000 -0.573577 0.819152
vn 0.000000 -0.573577 0.819152
vn 0.000000 -0.707107 0.707107
vn 0.000000 -0.819151 0.573578
vn 0.000000 -0.707107 0.707107
vn 0.000000 -0.819151 0.573578
vn 0.000000 -0.906308 0.422618
vn 0.000000 -0.965926 0.258818
vn 0.000000 -0.906308 0.422618
vn 0.000000 -0.996195 0.087157
vn 0.000000 -0.965926 0.258818
vn 0.000000 -0.996195 0.087157
vn 0.000000 0.087155 0.996195
vn 0.000000 0.087155 0.996195
vn 0.000000 0.258819 0.965926
vn 0.000000 0.258819 0.965926
vn 0.000000 0.422619 0.906307
vn 0.000000 0.422619 0.906307
vn 0.000000 0.573577 0.819152
vn 0.000000 0.573577 0.819152
vn 0.000000 0.707107 0.707107
vn 0.000000 0.707107 0.707107
vn 0.000000 0.819151 0.573578
vn 0.000000 0.819151 0.573578
vn 0.000000 0.906308 0.422618
vn -0.000000 0.965926 0.258818
vn 0.000000 0.906308 0.422618
vn -0.000000 0.996195 0.087157
vn 0.000000 0.965926 0.258818
vn 0.000000 0.996195 0.087157
vn 0.000000 -1.000000 0.000000
vn 0.000000 -1.000000 0.000000
vn 0.000000 1.000000 0.000000
vn 0.000000 1.000000 -0.000000
vn 0.000000 -0.087155 -0.996195
vn -0.000000 -0.087155 -0.996195
vn 0.000000 -0.258819 -0.965926
vn 0.000000 -0.422619 -0.906307
vn -0.000000 -0.258819 -0.965926
vn 0.000000 -0.422619 -0.906307
vn 0.000000 -0.573577 -0.819152
vn -0.000000 -0.573577 -0.819152
vn 0.000000 -0.707107 -0.707107
vn 0.000000 -0.819151 -0.573578
vn -0.000000 -0.707107 -0.707107
vn 0.000000 -0.819151 -0.573578
vn 0.000000 -0.906308 -0.422618
vn 0.000000 -0.965926 -0.258818
vn -0.000000 -0.906308 -0.422618
vn 0.000000 -0.996195 -0.087157
vn 0.000000 -0.965926 -0.258818
vn 0.000000 -0.996195 -0.087157
vn 0.000000 0.087155 -0.996195
vn 0.000000 0.087155 -0.996195
vn 0.000000 0.258819 -0.965926
vn 0.000000 0.258819 -0.965926
vn 0.000000 0.422619 -0.906307
vn 0.000000 0.422619 -0.906307
vn 0.000000 0.573577 -0.819152
vn 0.000000 0.573577 -0.819152
vn 0.000000 0.707107 -0.707107
vn 0.000000 0.707107 -0.707107
vn 0.000000 0.819151 -0.573578
vn 0.000000 0.819151 -0.573578
vn 0.000000 0.906308 -0.422618
vn 0.000000 0.965926 -0.258818
vn 0.000000 0.906308 -0.422618
vn 0.000000 0.996195 -0.087157
vn 0.000000 0.965926 -0.258818
vn 0.000000 0.996195 -0.087157
vn 0.000000 0.000000 -1.000000
vn -0.000000 -0.000000 -1.000000
vn 0.000000 0.087156 -0.996195
vn 0.000000 0.087156 -0.996195
vn 0.000000 0.258819 -0.965926
vn 0.000000 0.258819 -0.965926
vn 0.000000 0.422619 -0.906308
vn 0.000000 0.573577 -0.819152
vn 0.000000 0.422619 -0.906308
vn 0.000000 0.573577 -0.819152
vn 0.000000 0.707107 -0.707107
vn 0.000000 0.707107 -0.707107
vn 0.000000 0.819152 -0.573576
vn 0.000000 0.906307 -0.422620
vn 0.000000 0.819152 -0.573576
vn 0.000000 0.965926 -0.258818
vn 0.000000 0.906307 -0.422620
vn 0.000000 0.965926 -0.258818
vn 0.000000 0.996195 -0.087156
vn 0.000000 0.996195 -0.087156
vn 0.000000 1.000000 0.000000
vn 0.000000 1.000000 -0.000000
vn 0.000000 0.087156 0.996195
vn 0.000000 0.087156 0.996195
vn 0.000000 0.258819 0.965926
vn 0.000000 0.258819 0.965926
vn 0.000000 0.422619 0.906308
vn 0.000000 0.422619 0.906308
vn 0.000000 0.573577 0.819152
vn 0.000000 0.573577 0.819152
vn 0.000000 0.707107 0.707107
vn 0.000000 0.707107 0.707107
vn 0.000000 0.819152 0.573576
vn 0.000000 0.819152 0.573576
vn 0.000000 0.965926 0.258818
vn 0.000000 0.906307 0.422620
vn 0.000000 0.906307 0.422620
vn 0.000000 0.965926 0.258818
vn 0.000000 0.996195 0.087156
vn 0.000000 0.996195 0.087156
vn 0.000000 0.000000 1.000000
vn 0.000000 -0.000000 1.000000
vn 0.000000 -0.087156 0.996195
vn 0.000000 -0.087156 0.996195
vn 0.000000 -0.258819 0.965926
vn 0.000000 -0.258819 0.965926
vn 0.000000 -0.422619 0.906308
vn 0.000000 -0.573577 0.819152
vn 0.000000 -0.422619 0.906308
vn 0.000000 -0.573577 0.819152
vn 0.000000 -0.707107 0.707107
vn 0.000000 -0.707107 0.707107
vn 0.000000 -0.819152 0.573576
vn 0.000000 -0.906307 0.422620
vn 0.000000 -0.819152 0.573576
vn 0.000000 -0.965926 0.258818
vn 0.000000 -0.906307 0.422620
vn 0.000000 -0.965926 0.258818
vn 0.000000 -0.996195 0.087156
vn 0.000000 -0.996195 0.087156
vn 0.000000 -1.000000 0.000000
vn 0.000000 -1.000000 0.000000
vn 0.000000 -0.087156 -0.996195
vn -0.000000 -0.087156 -0.996195
vn -0.000000 -0.258819 -0.965926
vn 0.000000 -0.258819 -0.965926
vn -0.000000 -0.422619 -0.906308
vn 0.000000 -0.422619 -0.906308
vn -0.000000 -0.573577 -0.819152
vn 0.000000 -0.573577 -0.819152
vn -0.000000 -0.707107 -0.707107
vn 0.000000 -0.707107 -0.707107
vn -0.000000 -0.819152 -0.573576
vn 0.000000 -0.819152 -0.573576
vn -0.000000 -0.965926 -0.258818
vn -0.000000 -0.906307 -0.422620
vn 0.000000 -0.906307 -0.422620
vn -0.000000 -0.965926 -0.258818
vn -0.000000 -0.996195 -0.087156
vn 0.000000 -0.996195 -0.087156
vn 0.000000 0.000000 -1.000000
vn -0.000000 -0.000000 -1.000000
vn 1.000000 0.000000 0.000000
vn 1.000000 0.000000 0.000000
vn 1.000000 0.000000 0.000000
vn 1.000000 0.000000 0.000000
vn 1.000000 0.000000 0.000000
vn 1.000000 0.000000 0.000000
vn 1.000000 0.000000 0.000000
vn 1.000000 0.000000 0.000000
vn 1.000000 0.000000 0.000000
vn 1.000000 0.000000 0.000000
vn 1.000000 0.000000 0.000000
vn 1.000000 0.000000 0.000000
vn 1.000000 0.000000 0.000000
vn 1.000000 0.000000 0.000000
vn 1.000000 0.000000 0.000000
vn 1.000000 0.000000 0.000000
vn 1.000000 0.000000 0.000000
vn 1.000000 0.000000 0.000000
vn 1.000000 0.000000 0.000000
vn 1.000000 0.000000 0.000000
vn 1.000000 0.000000 0.000000
vn 1.000000 0.000000 0.000000
vn 1.000000 0.000000 0.000000
vn 1.000000 0.000000 0.000000
vn 1.000000 0.000000 0.000000
vn 1.000000 0.000000 0.000000
vn 1.000000 0.000000 0.000000
vn 1.000000 0.000000 0.000000
vn 1.000000 0.000000 0.000000
vn 1.000000 0.000000 0.000000
vn 1.000000 0.000000 0.000000
vn 1.000000 0.000000 0.000000
vn 1.000000 0.000000 0.000000
vn 1.000000 0.000000 0.000000
vn 1.000000 0.000000 0.000000
vn 1.000000 0.000000 0.000000
vn 1.000000 0.000000 0.000000
vn 1.000000 0.000000 0.000000
vn 1.000000 0.000000 0.000000
vn 1.000000 0.000000 0.000000
vn 1.000000 0.000000 0.000000
vn 1.000000 0.000000 0.000000
vn 1.000000 0.000000 0.000000
vn 1.000000 0.000000 0.000000
vn 1.000000 0.000000 0.000000
vn 1.000000 0.000000 0.000000
vn 1.000000 0.000000 0.000000
vn 1.000000 0.000000 0.000000
vn 1.000000 0.000000 0.000000
vn 1.000000 0.000000 0.000000
vn 1.000000 0.000000 0.000000
vn 1.000000 0.000000 0.000000
vn 1.000000 0.000000 0.000000
vn 1.000000 0.000000 0.000000
vn 1.000000 0.000000 0.000000
vn 1.000000 0.000000 0.000000
vn 1.000000 0.000000 0.000000
vn 1.000000 0.000000 0.000000
vn 1.000000 0.000000 0.000000
vn 1.000000 0.000000 0.000000
vn 1.000000 0.000000 0.000000
vn 1.000000 0.000000 0.000000
vn 1.000000 0.000000 0.000000
vn 1.000000 0.000000 0.000000
vn 1.000000 0.000000 0.000000
vn 1.000000 0.000000 0.000000
vn 1.000000 0.000000 0.000000
vn 1.000000 0.000000 0.000000
vn 1.000000 0.000000 0.000000
vn 1.000000 0.000000 0.000000
vn 1.000000 0.000000 0.000000
vn 1.000000 0.000000 0.000000
vn 1.000000 0.000000 0.000000
vn 1.000000 0.000000 0.000000
vn 1.000000 0.000000 0.000000
vn 1.000000 0.000000 0.000000
vn 1.000000 0.000000 0.000000
vn 1.000000 0.000000 0.000000
vn 1.000000 0.000000 0.000000
vn 1.000000 0.000000 0.000000
vn -1.000000 0.000000 0.000000
vn -1.000000 0.000000 -0.000000
vn -1.000000 0.000000 0.000000
vn -1.000000 0.000000 0.000000
vn -1.000000 0.000000 -0.000000
vn -1.000000 0.000000 0.000000
vn -1.000000 0.000000 0.000000
vn -1.000000 0.000000 0.000000
vn -1.000000 0.000000 -0.000000
vn -1.000000 0.000000 0.000000
vn -1.000000 0.000000 0.000000
vn -1.000000 0.000000 -0.000000
vn -1.000000 0.000000 0.000000
vn -1.000000 0.000000 0.000000
vn -1.000000 0.000000 0.000000
vn -1.000000 0.000000 -0.000000
vn -1.000000 0.000000 0.000000
vn -1.000000 0.000000 0.000000
vn -1.000000 0.000000 0.000000
vn -1.000000 0.000000 0.000000
vn -1.000000 0.000000 -0.000000
vn -1.000000 0.000000 0.000000
vn -1.000000 0.000000 0.000000
vn -1.000000 0.000000 -0.000000
vn -1.000000 0.000000 0.000000
vn -1.000000 0.000000 -0.000000
vn -1.000000 0.000000 0.000000
vn -1.000000 0.000000 0.000000
vn -1.000000 0.000000 -0.000000
vn -1.000000 0.000000 0.000000
vn -1.000000 0.000000 0.000000
vn -1.000000 0.000000 0.000000
vn -1.000000 0.000000 0.000000
vn -1.000000 0.000000 0.000000
vn -1.000000 0.000000 0.000000
vn -1.000000 0.000000 0.000000
vn -1.000000 0.000000 0.000000
vn -1.000000 0.000000 0.000000
vn -1.000000 0.000000 0.000000
vn -1.000000 0.000000 0.000000
vn -1.000000 0.000000 0.000000
vn -1.000000 0.000000 0.000000
vn -1.000000 0.000000 0.000000
vn -1.000000 0.000000 0.000000
vn -1.000000 0.000000 0.000000
vn -1.000000 0.000000 0.000000
vn -1.000000 0.000000 -0.000000
vn -1.000000 0.000000 0.000000
vn -1.000000 0.000000 0.000000
vn -1.000000 0.000000 0.000000
vn -1.000000 0.000000 -0.000000
vn -1.000000 0.000000 0.000000
vn -1.000000 0.000000 0.000000
vn -1.000000 0.000000 -0.000000
vn -1.000000 0.000000 -0.000000
vn -1.000000 0.000000 0.000000
vn -1.000000 0.000000 -0.000000
vn -1.000000 0.000000 0.000000
vn -1.000000 0.000000 0.000000
vn -1.000000 0.000000 0.000000
vn -1.000000 0.000000 0.000000
vn -1.000000 0.000000 0.000000
vn -1.000000 0.000000 0.000000
vn -1.000000 0.000000 0.000000
vn -1.000000 0.000000 0.000000
vn -1.000000 0.000000 0.000000
vn -1.000000 0.000000 -0.000000
vn -1.000000 0.000000 0.000000
vn -1.000000 0.000000 0.000000
vn -1.000000 0.000000 0.000000
vn -1.000000 0.000000 0.000000
vn -1.000000 0.000000 -0.000000
vn -1.000000 0.000000 0.000000
vn -1.000000 0.000000 0.000000
vn -1.000000 0.000000 -0.000000
vn -1.000000 0.000000 0.000000
vn -1.000000 0.000000 0.000000
vn -1.000000 0.000000 -0.000000
vn -1.000000 0.000000 0.000000
vn -1.000000 0.000000 0.000000
vn 0.000000 0.000000 1.000000
vn 0.000000 -0.000000 1.000000
vn 0.000000 -0.087155 0.996195
vn 0.000000 -0.087155 0.996195
vn 0.000000 -0.258819 0.965926
vn 0.000000 -0.422619 0.906307
vn 0.000000 -0.258819 0.965926
vn 0.000000 -0.422619 0.906307
vn 0.000000 -0.573577 0.819152
vn 0.000000 -0.573577 0.819152
vn 0.000000 -0.707107 0.707107
vn 0.000000 -0.819151 0.573578
vn 0.000000 -0.707107 0.707107
vn 0.000000 -0.819151 0.573578
vn 0.000000 -0.906308 0.422618
vn 0.000000 -0.965926 0.258818
vn 0.000000 -0.906308 0.422618
vn 0.000000 -0.996195 0.087157
vn 0.000000 -0.965926 0.258818
vn 0.000000 -0.996195 0.087157
vn 0.000000 0.087155 0.996195
vn 0.000000 0.087155 0.996195
vn 0.000000 0.258819 0.965926
vn 0.000000 0.258819 0.965926
vn 0.000000 0.422619 0.906307
vn 0.000000 0.422619 0.906307
vn 0.000000 0.573577 0.819152
vn 0.000000 0.573577 0.819152
vn 0.000000 0.707107 0.707107
vn 0.000000 0.707107 0.707107
vn 0.000000 0.819151 0.573578
vn 0.000000 0.819151 0.573578
vn 0.000000 0.906308 0.422618
vn -0.000000 0.965926 0.258818
vn 0.000000 0.906308 0.422618
vn -0.000000 0.996195 0.087157
vn 0.000000 0.965926 0.258818
vn 0.000000 0.996195 0.087157
vn 0.000000 -1.000000 0.000000
vn 0.000000 -1.000000 0.000000
vn 0.000000 1.000000 0.000000
vn 0.000000 1.000000 -0.000000
vn 0.000000 -0.087155 -0.996195
vn -0.000000 -0.087155 -0.996195
vn 0.000000 -0.258819 -0.965926
vn 0.000000 -0.422619 -0.906307
vn -0.000000 -0.258819 -0.965926
vn 0.000000 -0.422619 -0.906307
vn 0.000000 -0.573577 -0.819152
vn -0.000000 -0.573577 -0.819152
vn 0.000000 -0.707107 -0.707107
vn 0.000000 -0.819151 -0.573578
vn -0.000000 -0.707107 -0.707107
vn 0.000000 -0.819151 -0.573578
vn 0.000000 -0.906308 -0.422618
vn 0.000000 -0.965926 -0.258818
vn -0.000000 -0.906308 -0.422618
vn 0.000000 -0.996195 -0.087157
vn 0.000000 -0.965926 -0.258818
vn 0.000000 -0.996195 -0.087157
vn 0.000000 0.087155 -0.996195
vn 0.000000 0.087155 -0.996195
vn 0.000000 0.258819 -0.965926
vn 0.000000 0.258819 -0.965926
vn 0.000000 0.422619 -0.906307
vn 0.000000 0.422619 -0.906307
vn 0.000000 0.573577 -0.819152
vn 0.000000 0.573577 -0.819152
vn 0.000000 0.707107 -0.707107
vn 0.000000 0.707107 -0.707107
vn 0.000000 0.819151 -0.573578
vn 0.000000 0.819151 -0.573578
vn 0.000000 0.906308 -0.422618
vn 0.000000 0.965926 -0.258818
vn 0.000000 0.906308 -0.422618
vn 0.000000 0.996195 -0.087157
vn 0.000000 0.965926 -0.258818
vn 0.000000 0.996195 -0.087157
vn 0.000000 0.000000 -1.000000
vn -0.000000 -0.000000 -1.000000
vn 0.000000 0.087156 -0.996195
vn 0.000000 0.087156 -0.996195
vn 0.000000 0.258819 -0.965926
vn 0.000000 0.258819 -0.965926
vn 0.000000 0.422619 -0.906308
vn 0.000000 0.573577 -0.819152
vn 0.000000 0.422619 -0.906308
vn 0.000000 0.573577 -0.819152
vn 0.000000 0.707107 -0.707107
vn 0.000000 0.707107 -0.707107
vn 0.000000 0.819152 -0.573576
vn 0.000000 0.906307 -0.422620
vn 0.000000 0.819152 -0.573576
vn 0.000000 0.965926 -0.258818
vn 0.000000 0.906307 -0.422620
vn 0.000000 0.965926 -0.258818
vn 0.000000 0.996195 -0.087156
vn 0.000000 0.996195 -0.087156
vn 0.000000 1.000000 0.000000
vn 0.000000 1.000000 -0.000000
vn 0.000000 0.087156 0.996195
vn 0.000000 0.087156 0.996195
vn 0.000000 0.258819 0.965926
vn 0.000000 0.258819 0.965926
vn 0.000000 0.422619 0.906308
vn 0.000000 0.422619 0.906308
vn 0.000000 0.573577 0.819152
vn 0.000000 0.573577 0.819152
vn 0.000000 0.707107 0.707107
vn 0.000000 0.707107 0.707107
vn 0.000000 0.819152 0.573576
vn 0.000000 0.819152 0.573576
vn 0.000000 0.965926 0.258818
vn 0.000000 0.906307 0.422620
vn 0.000000 0.906307 0.422620
vn 0.000000 0.965926 0.258818
vn 0.000000 0.996195 0.087156
vn 0.000000 0.996195 0.087156
vn 0.000000 0.000000 1.000000
vn 0.000000 -0.000000 1.000000
vn 0.000000 -0.087156 0.996195
vn 0.000000 -0.087156 0.996195
vn 0.000000 -0.258819 0.965926
vn 0.000000 -0.258819 0.965926
vn 0.000000 -0.422619 0.906308
vn 0.000000 -0.573577 0.819152
vn 0.000000 -0.422619 0.906308
vn 0.000000 -0.573577 0.819152
vn 0.000000 -0.707107 0.707107
vn 0.000000 -0.707107 0.707107
vn 0.000000 -0.819152 0.573576
vn 0.000000 -0.906307 0.422620
vn 0.000000 -0.819152 0.573576
vn 0.000000 -0.965926 0.258818
vn 0.000000 -0.906307 0.422620
vn 0.000000 -0.965926 0.258818
vn 0.000000 -0.996195 0.087156
vn 0.000000 -0.996195 0.087156
vn 0.000000 -1.000000 0.000000
vn 0.000000 -1.000000 0.000000
vn 0.000000 -0.087156 -0.996195
vn -0.000000 -0.087156 -0.996195
vn -0.000000 -0.258819 -0.965926
vn 0.000000 -0.258819 -0.965926
vn -0.000000 -0.422619 -0.906308
vn 0.000000 -0.422619 -0.906308
vn -0.000000 -0.573577 -0.819152
vn 0.000000 -0.573577 -0.819152
vn -0.000000 -0.707107 -0.707107
vn 0.000000 -0.707107 -0.707107
vn -0.000000 -0.819152 -0.573576
vn 0.000000 -0.819152 -0.573576
vn -0.000000 -0.965926 -0.258818
vn -0.000000 -0.906307 -0.422620
vn 0.000000 -0.906307 -0.422620
vn -0.000000 -0.965926 -0.258818
vn -0.000000 -0.996195 -0.087156
vn 0.000000 -0.996195 -0.087156
vn 0.000000 0.000000 -1.000000
vn -0.000000 -0.000000 -1.000000
vn 1.000000 0.000000 0.000000
vn 1.000000 0.000000 0.000000
vn 1.000000 0.000000 0.000000
vn 1.000000 0.000000 0.000000
vn 1.000000 0.000000 0.000000
vn 1.000000 0.000000 0.000000
vn 1.000000 0.000000 0.000000
vn 1.000000 0.000000 0.000000
vn 1.000000 0.000000 0.000000
vn 1.000000 0.000000 0.000000
vn 1.000000 0.000000 0.000000
vn 1.000000 0.000000 0.000000
vn 1.000000 0.000000 0.000000
vn 1.000000 0.000000 0.000000
vn 1.000000 0.000000 0.000000
vn 1.000000 0.000000 0.000000
vn 1.000000 0.000000 0.000000
vn 1.000000 0.000000 0.000000
vn 1.000000 0.000000 0.000000
vn 1.000000 0.000000 0.000000
vn 1.000000 0.000000 0.000000
vn 1.000000 0.000000 0.000000
vn 1.000000 0.000000 0.000000
vn 1.000000 0.000000 0.000000
vn 1.000000 0.000000 0.000000
vn 1.000000 0.000000 0.000000
vn 1.000000 0.000000 0.000000
vn 1.000000 0.000000 0.000000
vn 1.000000 0.000000 0.000000
vn 1.000000 0.000000 0.000000
vn 1.000000 0.000000 0.000000
vn 1.000000 0.000000 0.000000
vn 1.000000 0.000000 0.000000
vn 1.000000 0.000000 0.000000
vn 1.000000 0.000000 0.000000
vn 1.000000 0.000000 0.000000
vn 1.000000 0.000000 0.000000
vn 1.000000 0.000000 0.000000
vn 1.000000 0.000000 0.000000
vn 1.000000 0.000000 0.000000
vn 1.000000 0.000000 0.000000
vn 1.000000 0.000000 0.000000
vn 1.000000 0.000000 0.000000
vn 1.000000 0.000000 0.000000
vn 1.000000 0.000000 0.000000
vn 1.000000 0.000000 0.000000
vn 1.000000 0.000000 0.000000
vn 1.000000 0.000000 0.000000
vn 1.000000 0.000000 0.000000
vn 1.000000 0.000000 0.000000
vn 1.000000 0.000000 0.000000
vn 1.000000 0.000000 0.000000
vn 1.000000 0.000000 0.000000
vn 1.000000 0.000000 0.000000
vn 1.000000 0.000000 0.000000
vn 1.000000 0.000000 0.000000
vn 1.000000 0.000000 0.000000
vn 1.000000 0.000000 0.000000
vn 1.000000 0.000000 0.000000
vn 1.000000 0.000000 0.000000
vn 1.000000 0.000000 0.000000
vn 1.000000 0.000000 0.000000
vn 1.000000 0.000000 0.000000
vn 1.000000 0.000000 0.000000
vn 1.000000 0.000000 0.000000
vn 1.000000 0.000000 0.000000
vn 1.000000 0.000000 0.000000
vn 1.000000 0.000000 0.000000
vn 1.000000 0.000000 0.000000
vn 1.000000 0.000000 0.000000
vn 1.000000 0.000000 0.000000
vn 1.000000 0.000000 0.000000
vn 1.000000 0.000000 0.000000
vn 1.000000 0.000000 0.000000
vn 1.000000 0.000000 0.000000
vn 1.000000 0.000000 0.000000
vn 1.000000 0.000000 0.000000
vn 1.000000 0.000000 0.000000
vn 1.000000 0.000000 0.000000
vn 1.000000 0.000000 0.000000
f 1//1 2//1 3//1
f 4//2 2//2 1//2
f 1//3 5//3 4//3
f 3//4 6//4 7//4
f 2//5 6//5 3//5
f 5//6 8//6 4//6
f 5//7 9//7 8//7
f 7//8 10//8 11//8
f 6//9 10//9 7//9
f 9//10 12//10 8//10
f 9//11 13//11 12//11
f 10//12 14//12 11//12
f 11//13 14//13 15//13
f 13//14 16//14 12//14
f 13//15 17//15 16//15
f 14//16 18//16 15//16
f 15//17 18//17 19//17
f 17//18 20//18 16//18
f 21//19 22//19 17//19
f 17//20 22//20 20//20
f 23//21 24//21 21//21
f 21//22 24//22 22//22
f 23//23 25//23 24//23
f 25//24 26//24 24//24
f 25//25 27//25 26//25
f 27//26 28//26 26//26
f 18//27 29//27 19//27
f 19//28 29//28 30//28
f 31//29 32//29 27//29
f 27//30 32//30 28//30
f 29//31 33//31 30//31
f 30//32 33//32 34//32
f 31//33 35//33 32//33
f 32//34 35//34 36//34
f 34//35 37//35 38//35
f 33//36 37//36 34//36
f 35//37 39//37 36//37
f 35//38 40//38 39//38
f 37//39 41//39 38//39
f 37//40 42//40 41//40
f 39//41 43//41 44//41
f 40//42 43//42 39//42
f 41//43 45//43 46//43
f 42//44 45//44 41//44
f 44//45 47//45 48//45
f 43//46 47//46 44//46
f 49//47 50//47 45//47
f 45//48 50//48 46//48
f 47//49 51//49 48//49
f 47//50 52//50 51//50
f 53//51 54//51 49//51
f 49//52 54//52 50//52
f 53//53 55//53 54//53
f 56//54 55//54 53//54
f 57//55 58//55 56//55
f 56//56 58//56 55//56
f 59//57 60//57 57//57
f 57//58 60//58 58//58
f 59//59 61//59 60//59
f 62//60 61//60 59//60
f 51//61 63//61 64//61
f 52//62 63//62 51//62
f 62//63 65//63 61//63
f 63//64 66//64 64//64
f 64//65 66//65 67//65
f 65//66 68//66 61//66
f 66//67 69//67 67//67
f 67//68 69//68 70//68
f 65//69 71//69 68//69
f 72//70 71//70 65//70
f 72//71 73//71 71//71
f 69//72 74//72 70//72
f 70//73 74//73 75//73
f 73//74 76//74 71//74
f 74//75 77//75 75//75
f 74//76 78//76 77//76
f 73//77 79//77 76//77
f 78//78 79//78 77//78
f 80//79 79//79 73//79
f 77//80 79//80 80//80
f 81//81 63//81 52//81
f 81//82 82//82 63//82
f 83//83 52//83 47//83
f 83//84 81//84 52//84
f 84//85 47//85 43//85
f 84//86 43//86 40//86
f 84//87 83//87 47//87
f 85//88 84//88 40//88
f 86//89 40//89 35//89
f 86//90 85//90 40//90
f 87//91 35//91 31//91
f 87//92 31//92 27//92
f 87//93 86//93 35//93
f 88//94 87//94 27//94
f 89//95 27//95 25//95
f 89//96 25//96 23//96
f 89//97 88//97 27//97
f 90//98 23//98 21//98
f 90//99 89//99 23//99
f 91//100 90//100 21//100
f 63//101 92//101 66//101
f 82//102 92//102 63//102
f 66//103 93//103 69//103
f 92//104 93//104 66//104
f 69//105 94//105 74//105
f 93//106 94//106 69//106
f 74//107 95//107 78//107
f 94//108 95//108 74//108
f 78//109 96//109 79//109
f 95//110 96//110 78//110
f 79//111 97//111 76//111
f 96//112 97//112 79//112
f 76//113 98//113 71//113
f 71//114 98//114 68//114
f 97//115 98//115 76//115
f 68//116 99//116 61//116
f 98//117 99//117 68//117
f 99//118 100//118 61//118
f 17//119 101//119 21//119
f 21//120 101//120 91//120
f 102//121 60//121 61//121
f 102//122 61//122 100//122
f 19//123 103//123 15//123
f 104//124 103//124 19//124
f 15//125 105//125 11//125
f 11//126 105//126 7//126
f 103//127 105//127 15//127
f 105//128 106//128 7//128
f 7//129 107//129 3//129
f 106//130 107//130 7//130
f 3//131 108//131 1//131
f 1//132 108//132 5//132
f 107//133 108//133 3//133
f 108//134 109//134 5//134
f 5//135 110//135 9//135
f 9//136 110//136 13//136
f 109//137 110//137 5//137
f 13//138 111//138 17//138
f 110//139 111//139 13//139
f 111//140 101//140 17//140
f 112//141 30//141 34//141
f 112//142 113//142 30//142
f 114//143 34//143 38//143
f 114//144 112//144 34//144
f 115//145 38//145 41//145
f 115//146 114//146 38//146
f 116//147 41//147 46//147
f 116//148 115//148 41//148
f 117//149 46//149 50//149
f 117//150 116//150 46//150
f 118//151 50//151 54//151
f 118//152 117//152 50//152
f 119//153 54//153 55//153
f 119//154 55//154 58//154
f 119//155 118//155 54//155
f 120//156 58//156 60//156
f 120//157 119//157 58//157
f 102//158 120//158 60//158
f 30//159 104//159 19//159
f 113//160 104//160 30//160
f 121//161 122//161 51//161
f 51//162 122//162 48//162
f 48//163 123//163 44//163
f 122//164 123//164 48//164
f 44//165 124//165 39//165
f 39//166 124//166 36//166
f 123//167 124//167 44//167
f 124//168 125//168 36//168
f 36//169 126//169 32//169
f 125//170 126//170 36//170
f 32//171 127//171 28//171
f 28//172 127//172 26//172
f 126//173 127//173 32//173
f 26//174 128//174 24//174
f 127//175 128//175 26//175
f 128//176 129//176 24//176
f 24//177 130//177 22//177
f 129//178 130//178 24//178
f 131//179 20//179 22//179
f 131//180 22//180 130//180
f 132//181 133//181 18//181
f 132//182 18//182 14//182
f 134//183 14//183 10//183
f 134//184 132//184 14//184
f 135//185 10//185 6//185
f 135//186 134//186 10//186
f 136//187 6//187 2//187
f 136//188 135//188 6//188
f 137//189 2//189 4//189
f 137//190 136//190 2//190
f 138//191 4//191 8//191
f 138//192 137//192 4//192
f 139//193 12//193 16//193
f 139//194 8//194 12//194
f 139//195 138//195 8//195
f 140//196 139//196 16//196
f 131//197 16//197 20//197
f 131//198 140//198 16//198
f 133//199 29//199 18//199
f 133//200 141//200 29//200
f 141//201 142//201 29//201
f 29//202 142//202 33//202
f 33//203 143//203 37//203
f 142//204 143//204 33//204
f 37//205 144//205 42//205
f 42//206 144//206 45//206
f 143//207 144//207 37//207
f 144//208 145//208 45//208
f 45//209 146//209 49//209
f 145//210 146//210 45//210
f 49//211 147//211 53//211
f 53//212 147//212 56//212
f 146//213 147//213 49//213
f 56//214 148//214 57//214
f 147//215 148//215 56//215
f 148//216 149//216 57//216
f 57//217 150//217 59//217
f 149//218 150//218 57//218
f 59//219 150//219 62//219
f 62//220 150//220 151//220
f 152//221 153//221 64//221
f 152//222 64//222 67//222
f 154//223 67//223 70//223
f 154//224 152//224 67//224
f 155//225 70//225 75//225
f 155//226 154//226 70//226
f 156//227 75//227 77//227
f 156//228 155//228 75//228
f 157//229 77//229 80//229
f 157//230 156//230 77//230
f 158//231 80//231 73//231
f 158//232 157//232 80//232
f 159//233 72//233 65//233
f 159//234 73//234 72//234
f 159//235 158//235 73//235
f 160//236 159//236 65//236
f 151//237 65//237 62//237
f 151//238 160//238 65//238
f 64//239 121//239 51//239
f 153//240 121//240 64//240
f 136//241 108//241 107//241
f 136//242 137//242 108//242
f 109//243 108//243 137//243
f 135//244 107//244 106//244
f 135//245 136//245 107//245
f 138//246 109//246 137//246
f 110//247 109//247 138//247
f 134//248 106//248 105//248
f 134//249 135//249 106//249
f 139//250 110//250 138//250
f 111//251 110//251 139//251
f 132//252 134//252 105//252
f 132//253 105//253 103//253
f 140//254 111//254 139//254
f 101//255 111//255 140//255
f 133//256 132//256 103//256
f 133//257 103//257 104//257
f 131//258 101//258 140//258
f 130//259 91//259 101//259
f 130//260 101//260 131//260
f 129//261 90//261 91//261
f 129//262 91//262 130//262
f 89//263 90//263 129//263
f 128//264 89//264 129//264
f 88//265 89//265 128//265
f 127//266 88//266 128//266
f 141//267 133//267 104//267
f 141//268 104//268 113//268
f 126//269 87//269 88//269
f 126//270 88//270 127//270
f 142//271 141//271 113//271
f 142//272 113//272 112//272
f 86//273 87//273 126//273
f 86//274 126//274 125//274
f 143//275 112//275 114//275
f 143//276 142//276 112//276
f 124//277 86//277 125//277
f 85//278 86//278 124//278
f 115//279 143//279 114//279
f 144//280 143//280 115//280
f 84//281 124//281 123//281
f 84//282 85//282 124//282
f 145//283 115//283 116//283
f 145//284 144//284 115//284
f 83//285 123//285 122//285
f 83//286 84//286 123//286
f 117//287 146//287 145//287
f 117//288 145//288 116//288
f 121//289 83//289 122//289
f 81//290 83//290 121//290
f 118//291 147//291 146//291
f 118//292 146//292 117//292
f 119//293 147//293 118//293
f 119//294 148//294 147//294
f 120//295 149//295 148//295
f 120//296 148//296 119//296
f 102//297 150//297 149//297
f 102//298 149//298 120//298
f 100//299 150//299 102//299
f 100//300 151//300 150//300
f 82//301 121//301 153//301
f 82//302 81//302 121//302
f 160//303 151//303 100//303
f 92//304 82//304 153//304
f 92//305 153//305 152//305
f 99//306 160//306 100//306
f 93//307 92//307 152//307
f 93//308 152//308 154//308
f 98//309 160//309 99//309
f 98//310 159//310 160//310
f 158//311 159//311 98//311
f 94//312 93//312 154//312
f 94//313 154//313 155//313
f 97//314 158//314 98//314
f 156//315 94//315 155//315
f 95//316 94//316 156//316
f 96//317 158//317 97//317
f 96//318 95//318 156//318
f 96//319 157//319 158//319
f 96//320 156//320 157//320
f 161//321 162//321 163//321
f 164//322 162//322 161//322
f 161//323 165//323 164//323
f 163//324 166//324 167//324
f 162//325 166//325 163//325
f 165//326 168//326 164//326
f 165//327 169//327 168//327
f 167//328 170//328 171//328
f 166//329 170//329 167//329
f 169//330 172//330 168//330
f 169//331 173//331 172//331
f 170//332 174//332 171//332
f 171//333 174//333 175//333
f 173//334 176//334 172//334
f 173//335 177//335 176//335
f 174//336 178//336 175//336
f 175//337 178//337 179//337
f 177//338 180//338 176//338
f 181//339 182//339 177//339
f 177//340 182//340 180//340
f 183//341 184//341 181//341
f 181//342 184//342 182//342
f 183//343 185//343 184//343
f 185//344 186//344 184//344
f 185//345 187//345 186//345
f 187//346 188//346 186//346
f 178//347 189//347 179//347
f 179//348 189//348 190//348
f 191//349 192//349 187//349
f 187//350 192//350 188//350
f 189//351 193//351 190//351
f 190//352 193//352 194//352
f 191//353 195//353 192//353
f 192//354 195//354 196//354
f 194//355 197//355 198//355
f 193//356 197//356 194//356
f 195//357 199//357 196//357
f 195//358 200//358 199//358
f 197//359 201//359 198//359
f 197//360 202//360 201//360
f 199//361 203//361 204//361
f 200//362 203//362 199//362
f 201//363 205//363 206//363
f 202//364 205//364 201//364
f 204//365 207//365 208//365
f 203//366 207//366 204//366
f 209//367 210//367 205//367
f 205//368 210//368 206//368
f 207//369 211//369 208//369
f 207//370 212//370 211//370
f 213//371 214//371 209//371
f 209//372 214//372 210//372
f 213//373 215//373 214//373
f 216//374 215//374 213//374
f 217//375 218//375 216//375
f 216//376 218//376 215//376
f 219//377 220//377 217//377
f 217//378 220//378 218//378
f 219//379 221//379 220//379
f 222//380 221//380 219//380
f 211//381 223//381 224//381
f 212//382 223//382 211//382
f 222//383 225//383 221//383
f 223//384 226//384 224//384
f 224//385 226//385 227//385
f 225//386 228//386 221//386
f 226//387 229//387 227//387
f 227//388 229//388 230//388
f 225//389 231//389 228//389
f 232//390 231//390 225//390
f 232//391 233//391 231//391
f 229//392 234//392 230//392
f 230//393 234//393 235//393
f 233//394 236//394 231//394
f 234//395 237//395 235//395
f 234//396 238//396 237//396
f 233//397 239//397 236//397
f 238//398 239//398 237//398
f 240//399 239//399 233//399
f 237//400 239//400 240//400
f 241//401 223//401 212//401
f 241//402 242//402 223//402
f 243//403 212//403 207//403
f 243//404 241//404 212//404
f 244//405 207//405 203//405
f 244//406 203//406 200//406
f 244//407 243//407 207//407
f 245//408 244//408 200//408
f 246//409 200//409 195//409
f 246//410 245//410 200//410
f 247//411 195//411 191//411
f 247//412 191//412 187//412
f 247//413 246//413 195//413
f 248//414 247//414 187//414
f 249//415 187//415 185//415
f 249//416 185//416 183//416
f 249//417 248//417 187//417
f 250//418 183//418 181//418
f 250//419 249//419 183//419
f 251//420 250//420 181//420
f 223//421 252//421 226//421
f 242//422 252//422 223//422
f 226//423 253//423 229//423
f 252//424 253//424 226//424
f 229//425 254//425 234//425
f 253//426 254//426 229//426
f 234//427 255//427 238//427
f 254//428 255//428 234//428
f 238//429 256//429 239//429
f 255//430 256//430 238//430
f 239//431 257//431 236//431
f 256//432 257//432 239//432
f 236//433 258//433 231//433
f 231//434 258//434 228//434
f 257//435 258//435 236//435
f 228//436 259//436 221//436
f 258//437 259//437 228//437
f 259//438 260//438 221//438
f 177//439 261//439 181//439
f 181//440 261//440 251//440
f 262//441 220//441 221//441
f 262//442 221//442 260//442
f 179//443 263//443 175//443
f 264//444 263//444 179//444
f 175//445 265//445 171//445
f 171//446 265//446 167//446
f 263//447 265//447 175//447
f 265//448 266//448 167//448
f 167//449 267//449 163//449
f 266//450 267//450 167//450
f 163//451 268//451 161//451
f 161//452 268//452 165//452
f 267//453 268//453 163//453
f 268//454 269//454 165//454
f 165//455 270//455 169//455
f 169//456 270//456 173//456
f 269//457 270//457 165//457
f 173//458 271//458 177//458
f 270//459 271//459 173//459
f 271//460 261//460 177//460
f 272//461 190//461 194//461
f 272//462 273//462 190//462
f 274//463 194//463 198//463
f 274//464 272//464 194//464
f 275//465 198//465 201//465
f 275//466 274//466 198//466
f 276//467 201//467 206//467
f 276//468 275//468 201//468
f 277//469 206//469 210//469
f 277//470 276//470 206//470
f 278//471 210//471 214//471
f 278//472 277//472 210//472
f 279//473 214//473 215//473
f 279//474 215//474 218//474
f 279//475 278//475 214//475
f 280//476 218//476 220//476
f 280//477 279//477 218//477
f 262//478 280//478 220//478
f 190//479 264//479 179//479
f 273//480 264//480 190//480
f 281//481 282//481 211//481
f 211//482 282//482 208//482
f 208//483 283//483 204//483
f 282//484 283//484 208//484
f 204//485 284//485 199//485
f 199//486 284//486 196//486
f 283//487 284//487 204//487
f 284//488 285//488 196//488
f 196//489 286//489 192//489
f 285//490 286//490 196//490
f 192//491 287//491 188//491
f 188//492 287//492 186//492
f 286//493 287//493 192//493
f 186//494 288//494 184//494
f 287//495 288//495 186//495
f 288//496 289//496 184//496
f 184//497 290//497 182//497
f 289//498 290//498 184//498
f 291//499 180//499 182//499
f 291//500 182//500 290//500
f 292//501 293//501 178//501
f 292//502 178//502 174//502
f 294//503 174//503 170//503
f 294//504 292//504 174//504
f 295//505 170//505 166//505
f 295//506 294//506 170//506
f 296//507 166//507 162//507
f 296//508 295//508 166//508
f 297//509 162//509 164//509
f 297//510 296//510 162//510
f 298//511 164//511 168//511
f 298//512 297//512 164//512
f 299//513 172//513 176//513
f 299//514 168//514 172//514
f 299//515 298//515 168//515
f 300//516 299//516 176//516
f 291//517 176//517 180//517
f 291//518 300//518 176//518
f 293//519 189//519 178//519
f 293//520 301//520 189//520
f 301//521 302//521 189//521
f 189//522 302//522 193//522
f 193//523 303//523 197//523
f 302//524 303//524 193//524
f 197//525 304//525 202//525
f 202//526 304//526 205//526
f 303//527 304//527 197//527
f 304//528 305//528 205//528
f 205//529 306//529 209//529
f 305//530 306//530 205//530
f 209//531 307//531 213//531
f 213//532 307//532 216//532
f 306//533 307//533 209//533
f 216//534 308//534 217//534
f 307//535 308//535 216//535
f 308//536 309//536 217//536
f 217//537 310//537 219//537
f 309//538 310//538 217//538
f 219//539 310//539 222//539
f 222//540 310//540 311//540
f 312//541 313//541 224//541
f 312//542 224//542 227//542
f 314//543 227//543 230//543
f 314//544 312//544 227//544
f 315//545 230//545 235//545
f 315//546 314//546 230//546
f 316//547 235//547 237//547
f 316//548 315//548 235//548
f 317//549 237//549 240//549
f 317//550 316//550 237//550
f 318//551 240//551 233//551
f 318//552 317//552 240//552
f 319//553 232//553 225//553
f 319//554 233//554 232//554
f 319//555 318//555 233//555
f 320//556 319//556 225//556
f 311//557 225//557 222//557
f 311//558 320//558 225//558
f 224//559 281//559 211//559
f 313//560 281//560 224//560
f 296//561 268//561 267//561
f 296//562 297//562 268//562
f 269//563 268//563 297//563
f 295//564 267//564 266//564
f 295//565 296//565 267//565
f 298//566 269//566 297//566
f 270//567 269//567 298//567
f 294//568 266//568 265//568
f 294//569 295//569 266//569
f 299//570 270//570 298//570
f 271//571 270//571 299//571
f 292//572 294//572 265//572
f 292//573 265//573 263//573
f 300//574 271//574 299//574
f 261//575 271//575 300//575
f 293//576 292//576 263//576
f 293//577 263//577 264//577
f 291//578 261//578 300//578
f 290//579 251//579 261//579
f 290//580 261//580 291//580
f 289//581 250//581 251//581
f 289//582 251//582 290//582
f 249//583 250//583 289//583
f 288//584 249//584 289//584
f 248//585 249//585 288//585
f 287//586 248//586 288//586
f 301//587 293//587 264//587
f 301//588 264//588 273//588
f 286//589 247//589 248//589
f 286//590 248//590 287//590
f 302//591 301//591 273//591
f 302//592 273//592 272//592
f 246//593 247//593 286//593
f 246//594 286//594 285//594
f 303//595 272//595 274//595
f 303//596 302//596 272//596
f 284//597 246//597 285//597
f 245//598 246//598 284//598
f 275//599 303//599 274//599
f 304//600 303//600 275//600
f 244//601 284//601 283//601
f 244//602 245//602 284//602
f 305//603 275//603 276//603
f 305//604 304//604 275//604
f 243//605 283//605 282//605
f 243//606 244//606 283//606
f 277//607 306//607 305//607
f 277//608 305//608 276//608
f 281//609 243//609 282//609
f 241//610 243//610 281//610
f 278//611 307//611 306//611
f 278//612 306//612 277//612
f 279//613 307//613 278//613
f 279//614 308//614 307//614
f 280//615 309//615 308//615
f 280//616 308//616 279//616
f 262//617 310//617 309//617
f 262//618 309//618 280//618
f 260//619 310//619 262//619
f 260//620 311//620 310//620
f 242//621 281//621 313//621
f 242//622 241//622 281//622
f 320//623 311//623 260//623
f 252//624 242//624 313//624
f 252//625 313//625 312//625
f 259//626 320//626 260//626
f 253//627 252//627 312//627
f 253//628 312//628 314//628
f 258//629 320//629 259//629
f 258//630 319//630 320//630
f 318//631 319//631 258//631
f 254//632 253//632 314//632
f 254//633 314//633 315//633
f 257//634 318//634 258//634
f 316//635 254//635 315//635
f 255//636 254//636 316//636
f 256//637 318//637 257//637
f 256//638 255//638 316//638
f 256//639 317//639 318//639
f 256//640 316//640 317//640
